<svg id="Artboard_30" height="512" viewBox="0 0 64 64" width="512" xmlns="http://www.w3.org/2000/svg" data-name="Artboard 30"><path d="m3.487 31.077 30.607-15.956a5 5 0 0 0 8.8-4.13l.006.028a20 20 0 0 1 19.1 19.981v2z" fill="#ffd55d"/><path d="m47 31h13a2 2 0 0 1 2 2v18a2 2 0 0 1 -2 2h-56a2 2 0 0 1 -2-2v-8.536a4 4 0 1 0 0-6.929v-2.535a2 2 0 0 1 2-2z" fill="#ffc239"/><g fill="#f4ac1c"><circle cx="20" cy="37.999" r="4"/><path d="m46.412 33.352a3 3 0 1 1 -4.412 2.648 5 5 0 1 1 4.413-2.646z"/><path d="m47.355 53a4 4 0 1 1 5.29 0z"/><circle cx="26" cy="24.999" r="2"/><circle cx="53" cy="23.999" r="3"/><circle cx="32" cy="44.999" r="3"/><circle cx="12" cy="46.999" r="2"/></g></svg>