<svg height="512pt" viewBox="0 -61 512 512" width="512pt" xmlns="http://www.w3.org/2000/svg"><path d="m257 295h120v70h-120zm0 0" fill="#3e5959"/><path d="m317 295h60v70h-60zm0 0" fill="#293939"/><path d="m165 390h-150c-8.285156 0-15-6.714844-15-15v-330c0-8.285156 6.714844-15 15-15h150c8.285156 0 15 6.714844 15 15v330c0 8.285156-6.714844 15-15 15zm0 0" fill="#3e5959"/><path d="m180 45v330c0 8.28125-6.71875 15-15 15h-75v-360h75c8.28125 0 15 6.71875 15 15zm0 0" fill="#293939"/><path d="m0 105h180v60h-180zm0 0" fill="#547983"/><path d="m90 105h90v60h-90zm0 0" fill="#3e5959"/><path d="m105 348c0 8.285156-6.714844 15-15 15s-15-6.714844-15-15 6.714844-15 15-15 15 6.714844 15 15zm0 0" fill="#81e885"/><path d="m105 348c0 8.28125-6.71875 15-15 15v-30c8.28125 0 15 6.71875 15 15zm0 0" fill="#5dc983"/><path d="m482 300h-330c-16.542969 0-30-13.457031-30-30v-240c0-16.542969 13.457031-30 30-30h330c16.542969 0 30 13.457031 30 30v240c0 16.542969-13.457031 30-30 30zm0 0" fill="#547983"/><path d="m512 30v240c0 16.539062-13.460938 30-30 30h-165v-300h165c16.539062 0 30 13.460938 30 30zm0 0" fill="#3e5959"/><path d="m152 30h330v240h-330zm0 0" fill="#19c0ef"/><path d="m317 30h165v240h-165zm0 0" fill="#159be1"/><path d="m407 390h-180c-8.285156 0-15-6.714844-15-15s6.714844-15 15-15h180c8.285156 0 15 6.714844 15 15s-6.714844 15-15 15zm0 0" fill="#547983"/><path d="m422 375c0 8.28125-6.71875 15-15 15h-90v-30h90c8.28125 0 15 6.71875 15 15zm0 0" fill="#3e5959"/></svg>