<svg id="Capa_1" enable-background="new 0 0 512 512" height="512" viewBox="0 0 512 512" width="512" xmlns="http://www.w3.org/2000/svg"><g><g><g><path d="m388.305 133.296c-43.568 43.568-130.365 27.408-130.365 27.408s-16.16-86.797 27.408-130.365 130.365-27.408 130.365-27.408 16.16 86.798-27.408 130.365z" fill="#00df8e"/></g><path d="m298.797 450.135c-5.35 0-10.75-.515-16.052-1.53-8.583-1.643-17.373-2.477-26.127-2.477l-.605.003.234.001h-.58l.343-.001-.531-.001c-8.821 0-17.643.833-26.221 2.475-5.301 1.015-10.704 1.53-16.056 1.53-15.824.001-31.333-4.484-44.851-12.969-18.186-11.416-31.248-29.13-36.778-49.878l-23.937-89.808c-6.478-24.304-1.583-49.818 13.429-70 15.633-21.016 39.522-33.069 65.541-33.069 6.7 0 13.43.831 20.004 2.468l17.152 4.274c10.509 2.618 21.356 3.946 32.239 3.946 10.882 0 21.729-1.328 32.238-3.946l17.154-4.274c6.569-1.637 13.297-2.467 19.995-2.467 26.022 0 49.914 12.054 65.55 33.071 15.01 20.178 19.904 45.692 13.426 69.997l-23.938 89.808c-5.53 20.748-18.591 38.462-36.778 49.878-13.516 8.484-29.026 12.969-44.851 12.969z"/><g><g><path d="m256.537 158.572h-30.933c0-91.342-65.508-121.339-66.169-121.631l12.5-28.294c.895.395 22.15 9.948 42.986 33.315 18.985 21.29 41.616 58.803 41.616 116.61z" fill="#ca8e5b"/></g></g><g><path d="m238.718 141.123-17.153-4.274c-56.472-14.069-115.403 7.012-150.138 53.707-26.349 35.421-34.939 80.201-23.569 122.857l23.937 89.808c9.573 35.916 32.183 66.58 63.665 86.341 31.481 19.762 68.925 26.794 105.432 19.804 4.901-.938 9.935-1.398 15.019-1.37h.089l38.686-185.707-38.686-179.055c-5.817 0-11.634-.704-17.282-2.111z" fill="#ff837f"/><path d="m440.573 190.556c-34.735-46.688-93.668-67.774-150.138-53.707l-17.153 4.274c-5.648 1.407-11.465 2.111-17.282 2.111v364.762h.089c5.087-.035 10.119.432 15.02 1.37 9.207 1.763 18.472 2.634 27.688 2.634 27.325 0 54.201-7.66 77.744-22.438 31.481-19.762 54.091-50.425 63.664-86.341l23.938-89.808c11.369-42.657 2.778-87.437-23.57-122.857z" fill="#ff5a6f"/></g><g><path d="m223.761 201.153-17.153-4.274c-6.489-1.617-13.153-2.436-19.809-2.436-25.773 0-50.346 12.35-65.734 33.037-15.013 20.182-19.908 45.696-13.43 70l23.938 89.809c9.863 37.003 43.438 62.846 81.653 62.846 5.337 0 10.73-.515 16.029-1.529h.002c8.399-1.609 22.072-2.487 26.743-2.487l33.454-114.419-33.454-126.61c-10.852 0-21.704-1.312-32.239-3.937z" fill="#fffbe8"/><path d="m390.935 227.479c-15.388-20.687-39.961-33.037-65.734-33.037-6.655 0-13.32.82-19.809 2.436l-17.152 4.274c-10.536 2.625-21.388 3.938-32.24 3.938v241.028c4.671 0 18.344.878 26.745 2.487 5.299 1.014 10.692 1.529 16.034 1.529 38.21 0 71.784-25.844 81.648-62.846l23.938-89.809c6.478-24.304 1.582-49.818-13.43-70z" fill="#ffecd4"/></g></g><g><g><g><path d="m210.972 297.764h30v49.049h-30z" fill="#814432"/></g><g><path d="m271.028 297.764h30v49.049h-30z" fill="#6a3624"/></g></g></g></g></svg>