<svg height="511pt" viewBox="-28 1 511 511.99944" width="511pt" xmlns="http://www.w3.org/2000/svg"><path d="m272.242188 14.785156c-25.160157 9.179688-44.457032 26.28125-54.910157 45.988282 20.691407 8.34375 46.464844 9 71.625-.179688 22.96875-8.378906 41.050781-23.363281 51.980469-40.902344 1.617188-2.59375.320312-6.148437-2.585938-7.089844-19.660156-6.382812-43.140624-6.195312-66.109374 2.183594zm0 0" fill="#aedb81"/><path d="m290.019531 45.941406c-20.082031 2.417969-39.214843-.71875-55.242187-7.925781-7.167969 6.902344-13.109375 14.578125-17.445313 22.757813 20.691407 8.347656 46.464844 9 71.625-.179688 17.367188-6.335938 31.929688-16.457031 42.730469-28.59375-12.03125 7.117188-26.175781 12.078125-41.667969 13.941406zm0 0" fill="#95cc81"/><path d="m228.050781 132.570312c-4.136719 0-7.667969-3.140624-8.082031-7.339843-7.761719-79.316407-38.054688-111.109375-38.355469-111.425781-3.136719-3.207032-3.078125-8.351563.125-11.492188 3.214844-3.136719 8.359375-3.070312 11.492188.128906 1.414062 1.441406 34.605469 36.253906 42.914062 121.210938.4375 4.464844-2.824219 8.441406-7.292969 8.878906-.269531.023438-.539062.039062-.800781.039062zm0 0" fill="#c38c66"/><path d="m396.011719 130.101562c-60.8125-35.476562-99.90625-8.199218-167.953125-8.199218-68.050782 0-107.144532-27.277344-167.953125 8.199218-40.980469 23.90625-66.601563 64.691407-57.914063 148.167969 8.683594 83.476563 86.871094 233.730469 166.621094 233.730469 24.496094 0 34.863281-8.128906 59.246094-7.742188 24.378906-.386718 34.746094 7.742188 59.242187 7.742188 79.75 0 157.933594-150.253906 166.625-233.730469 8.683594-83.476562-16.9375-124.261719-57.914062-148.167969zm0 0" fill="#aedb81"/><path d="m107.058594 278.269531c-4.65625-83.476562 9.074218-124.261719 31.023437-148.167969 7.3125-7.964843 14.074219-12.652343 20.519531-15.308593-32.386718-4.613281-61.445312-6.308594-98.496093 15.308593-40.980469 23.90625-66.601563 64.691407-57.914063 148.167969 8.683594 83.476563 86.871094 233.730469 166.621094 233.730469 7.496094 0 13.671875-.761719 19.328125-1.804688-39.726563-17.289062-76.730469-153.835937-81.082031-231.925781zm0 0" fill="#95cc81"/><path d="m312.9375 447.832031c-4.023438-2.007812-8.886719-.363281-10.886719 3.667969-17.65625 35.570312-35.246093 55.175781-49.464843 55.359375 8.539062 1.828125 16.554687 4.089844 27.058593 4.863281 12.28125-10.417968 24.554688-28 36.960938-53 2-4.015625.355469-8.898437-3.667969-10.890625zm0 0" fill="#95cc81"/><path d="m193.230469 2.441406c-3.132813-3.199218-8.277344-3.265625-11.492188-.128906-3.207031 3.140625-3.261719 8.28125-.125 11.492188.105469.113281 4.085938 4.355468 9.484375 13.3125 1.453125 2.410156 4.105469 3.863281 6.921875 3.863281 6.28125 0 10.265625-6.867188 7.023438-12.25-6.382813-10.597657-11.285157-15.757813-11.8125-16.289063zm0 0" fill="#b57f5f"/></svg>