<svg height="512pt" viewBox="-3 0 512 512.00011" width="512pt" xmlns="http://www.w3.org/2000/svg"><path d="m229.296875 40.453125c-18.21875-26.3125-47.796875-40.320313-78.492187-40.453125-4.796876-.0195312-9.132813 2.980469-10.800782 7.480469-10.679687 28.777343-7.976562 61.394531 10.242188 87.707031 19.757812 28.539062 52.878906 42.605469 86.296875 40.1875 14.023437-30.429688 12.511719-66.382812-7.246094-94.921875zm0 0" fill="#00c756"/><path d="m173.9375 95.1875c-18.214844-26.3125-20.921875-58.929688-10.238281-87.710938.921875-2.484374 2.660156-4.511718 4.839843-5.824218-5.816406-1.066406-11.753906-1.6250002-17.734374-1.652344-4.796876-.0195312-9.132813 2.980469-10.800782 7.476562-10.679687 28.78125-7.976562 61.398438 10.242188 87.710938 19.757812 28.539062 52.878906 42.605469 86.296875 40.1875.152343-.332031.292969-.667969.441406-1-24.9375-3.972656-47.914063-17.332031-63.046875-39.1875zm0 0" fill="#00a52c"/><path d="m236.550781 143.101562c-2.449219 0-4.859375-1.160156-6.359375-3.328124l-58.476562-84.457032c-2.425782-3.511718-1.554688-8.324218 1.953125-10.753906 3.507812-2.429688 8.324219-1.550781 10.753906 1.957031l58.476563 84.457031c2.425781 3.507813 1.550781 8.324219-1.957032 10.75-1.339844.929688-2.875 1.375-4.390625 1.375zm0 0" fill="#55d47b"/><path d="m286.992188 22.5-23.042969-6.949219c-7.535157-2.273437-15.601563 1.207031-19.15625 8.230469-13.085938 25.84375-18.421875 55.367188-17.984375 84.226562.296875 19.671876 2.515625 39.203126 7.035156 58.359376.089844.351562.136719.53125.136719.53125l37.804687-7.527344c.003906.027344-.035156-.222656-.050781-.429688-3.042969-38.269531-.046875-79.136718 23.257813-111.246094.050781-.074218.105468-.148437.160156-.21875 6.597656-8.984374 2.511718-21.761718-8.160156-24.976562zm0 0" fill="#de8957"/><path d="m250.5 108.003906c-.433594-28.855468 4.898438-58.382812 17.984375-84.222656 1.117187-2.207031 2.679687-4.058594 4.527344-5.5l-9.0625-2.730469c-7.535157-2.273437-15.601563 1.207031-19.15625 8.230469-13.085938 25.839844-18.421875 55.367188-17.984375 84.222656.296875 19.675782 2.515625 39.203125 7.035156 58.359375.089844.355469.136719.535157.136719.535157l22.679687-4.515626c-3.914062-17.878906-5.882812-36.0625-6.160156-54.378906zm0 0" fill="#c76d33"/><path d="m349.160156 104.566406c-31.042968.21875-59.914062 9.539063-84.097656 25.417969-7.402344 4.859375-16.957031 4.859375-24.359375 0-24.183594-15.878906-53.058594-25.199219-84.097656-25.417969-87.136719-.613281-157.191407 71.863282-156.60156275 159 1.05078175 154.679688 71.57031275 248.433594 137.43359375 248.433594 66.359375 0 68.261719-16.410156 115.445312-16.410156 47.183594 0 49.082032 16.410156 115.441407 16.410156 65.863281 0 136.382812-93.753906 137.433593-248.433594.59375-87.136718-69.460937-159.613281-156.597656-159zm0 0" fill="#fd5f7e"/><path d="m41.210938 263.566406c-.542969-79.785156 58.144531-147.265625 134.941406-157.617187-6.40625-.851563-12.921875-1.335938-19.546875-1.382813-87.140625-.613281-157.191407 71.863282-156.60156275 159 1.05078175 154.675782 71.57031275 248.433594 137.43359375 248.433594 11.019531 0 20.253906-.453125 28.21875-1.210938-61.816406-11.347656-123.460938-102.679687-124.445312-247.222656zm0 0" fill="#f9496e"/><g fill="#423e4f"><path d="m139.574219 329.589844c-4.269531 0-7.726563-3.460938-7.726563-7.726563v-20.507812c0-4.265625 3.457032-7.726563 7.726563-7.726563 4.265625 0 7.726562 3.460938 7.726562 7.726563v20.507812c0 4.265625-3.460937 7.726563-7.726562 7.726563zm0 0"/><path d="m366.191406 329.589844c-4.269531 0-7.726562-3.460938-7.726562-7.726563v-20.507812c0-4.265625 3.457031-7.726563 7.726562-7.726563 4.265625 0 7.726563 3.460938 7.726563 7.726563v20.507812c0 4.265625-3.460938 7.726563-7.726563 7.726563zm0 0"/><path d="m252.882812 340.535156c-13.132812 0-25.445312-5.472656-33.785156-15.015625-2.808594-3.210937-2.480468-8.09375.730469-10.902343 3.214844-2.808594 8.09375-2.480469 10.902344.734374 5.40625 6.183594 13.480469 9.730469 22.152343 9.730469 8.667969 0 16.742188-3.546875 22.148438-9.730469 2.808594-3.214843 7.6875-3.542968 10.902344-.734374 3.210937 2.808593 3.539062 7.691406.730468 10.902343-8.339843 9.542969-20.652343 15.015625-33.78125 15.015625zm0 0"/></g></svg>