<svg id="Capa_1" enable-background="new 0 0 510 510" height="512" viewBox="0 0 510 510" width="512" xmlns="http://www.w3.org/2000/svg" xmlns:xlink="http://www.w3.org/1999/xlink"><linearGradient id="SVGID_1_" gradientUnits="userSpaceOnUse" x1="204.765" x2="293.018" y1="412.803" y2="412.803"><stop offset="0" stop-color="#f89580"/><stop offset="1" stop-color="#c4573a"/></linearGradient><linearGradient id="lg1"><stop offset="0" stop-color="#c4573a" stop-opacity="0"/><stop offset="1" stop-color="#883f2e"/></linearGradient><linearGradient id="SVGID_00000142159877211996736150000015459309287291277466_" gradientUnits="userSpaceOnUse" x1="264.089" x2="327.963" xlink:href="#lg1" y1="415.567" y2="371.653"/><linearGradient id="SVGID_00000176002097572079616120000009218383610128172423_" gradientUnits="userSpaceOnUse" x1="242.62" x2="148.804" xlink:href="#lg1" y1="434.072" y2="511.919"/><linearGradient id="SVGID_00000096037765042500456770000000504861588230709133_" gradientUnits="userSpaceOnUse" x1="268.764" x2="268.764" xlink:href="#lg1" y1="431.654" y2="336.658"/><linearGradient id="SVGID_00000121977086146032061970000011750374743841713808_" gradientUnits="userSpaceOnUse" x1="255" x2="255" xlink:href="#lg1" y1="482.055" y2="511.565"/><linearGradient id="SVGID_00000036235643954795306250000006227466745867235502_" gradientUnits="userSpaceOnUse" x1="222.042" x2="188.109" xlink:href="#lg1" y1="495.341" y2="510.645"/><linearGradient id="SVGID_00000103223584288199187680000012408577768744570773_" gradientUnits="userSpaceOnUse" x1="129.847" x2="361.88" y1="85.187" y2="381.591"><stop offset="0" stop-color="#bbec6c"/><stop offset=".2905" stop-color="#abdc59"/><stop offset=".8729" stop-color="#82b22a"/><stop offset="1" stop-color="#78a91f"/></linearGradient><linearGradient id="lg2"><stop offset="0" stop-color="#026841" stop-opacity="0"/><stop offset=".238" stop-color="#076743" stop-opacity=".238"/><stop offset=".5198" stop-color="#156349" stop-opacity=".52"/><stop offset=".8225" stop-color="#2d5d52" stop-opacity=".823"/><stop offset="1" stop-color="#3e5959"/></linearGradient><linearGradient id="SVGID_00000036232700697044665360000007430375280535512746_" gradientUnits="userSpaceOnUse" x1="373.64" x2="363.66" xlink:href="#lg2" y1="199.825" y2="290.647"/><linearGradient id="SVGID_00000141449489019996286490000011813991265558623676_" gradientUnits="userSpaceOnUse" x1="323.427" x2="451.842" xlink:href="#lg2" y1="112.928" y2="163.496"/><linearGradient id="SVGID_00000042700744645516925470000012240696651512994725_" gradientUnits="userSpaceOnUse" x1="244.687" x2="354.536" xlink:href="#lg2" y1="60.746" y2="60.746"/><linearGradient id="SVGID_00000122684735658669682960000010546118875488600490_" gradientUnits="userSpaceOnUse" x1="255" x2="255" xlink:href="#lg2" y1="254.212" y2="362.503"/><linearGradient id="SVGID_00000096044478412797354150000004484361901895100067_" gradientUnits="userSpaceOnUse" x1="338.92" x2="290.016" xlink:href="#lg2" y1="254.619" y2="323.484"/><linearGradient id="SVGID_00000164473555266146019260000009961801112197181337_" gradientUnits="userSpaceOnUse" x1="153.656" x2="103.754" xlink:href="#lg2" y1="169.108" y2="258.932"/><linearGradient id="SVGID_00000003075053044318933480000012338368012480898467_" gradientUnits="userSpaceOnUse" x1="204.316" x2="108.503" xlink:href="#lg2" y1="294.107" y2="220.252"/><linearGradient id="SVGID_00000024000550778401832960000014456873279175371937_" gradientUnits="userSpaceOnUse" x1="340.102" x2="231.648" xlink:href="#lg2" y1="318.491" y2="255.947"/><linearGradient id="SVGID_00000144319928700213095990000013885629418380164276_" gradientUnits="userSpaceOnUse" x1="260.004" x2="132.254" xlink:href="#lg2" y1="189.139" y2="127.26"/><linearGradient id="SVGID_00000072985435266771558750000003723439827098607758_" gradientUnits="userSpaceOnUse" x1="408.711" x2="264.993" xlink:href="#lg2" y1="223.422" y2="150.233"/><linearGradient id="SVGID_00000094613611190737609460000007229787347336878755_" gradientUnits="userSpaceOnUse" x1="501.559" x2="396.432" xlink:href="#lg2" y1="322.839" y2="256.968"/><linearGradient id="lg3"><stop offset="0" stop-color="#fd4755"/><stop offset="1" stop-color="#a72b2b"/></linearGradient><linearGradient id="SVGID_00000118380970895875996570000003157667200193742976_" gradientUnits="userSpaceOnUse" x1="133.219" x2="159.174" xlink:href="#lg3" y1="232.04" y2="264.175"/><linearGradient id="lg4"><stop offset="0" stop-color="#5a5a5a"/><stop offset="1" stop-color="#444"/></linearGradient><linearGradient id="SVGID_00000168825514505491658030000012259912981717241785_" gradientUnits="userSpaceOnUse" x1="141.261" x2="156.947" xlink:href="#lg4" y1="209.162" y2="228.582"/><linearGradient id="SVGID_00000025402676593472063290000007706466734840786601_" gradientUnits="userSpaceOnUse" x1="140.33" x2="166.285" xlink:href="#lg3" y1="464.16" y2="496.295"/><linearGradient id="SVGID_00000067946088651023084830000016829200513555698086_" gradientUnits="userSpaceOnUse" x1="148.372" x2="164.058" xlink:href="#lg4" y1="441.282" y2="460.703"/><linearGradient id="SVGID_00000107547891311939077680000014642689277335041181_" gradientUnits="userSpaceOnUse" x1="189.449" x2="215.404" xlink:href="#lg3" y1="107.63" y2="139.765"/><linearGradient id="SVGID_00000109020730998341939650000006301946020285666952_" gradientUnits="userSpaceOnUse" x1="197.491" x2="213.177" xlink:href="#lg4" y1="84.752" y2="104.172"/><linearGradient id="SVGID_00000118394829779678788880000015757326007621524918_" gradientUnits="userSpaceOnUse" x1="258.016" x2="283.97" xlink:href="#lg3" y1="257.597" y2="289.731"/><linearGradient id="SVGID_00000052811652013964527490000004239116944482237576_" gradientUnits="userSpaceOnUse" x1="266.057" x2="281.743" xlink:href="#lg4" y1="234.718" y2="254.139"/><linearGradient id="SVGID_00000165193451672829467690000016719575514197330049_" gradientUnits="userSpaceOnUse" x1="328.778" x2="354.733" xlink:href="#lg3" y1="145.523" y2="177.658"/><linearGradient id="SVGID_00000102526865173145628050000002315986796228934553_" gradientUnits="userSpaceOnUse" x1="336.82" x2="352.506" xlink:href="#lg4" y1="122.645" y2="142.066"/><linearGradient id="SVGID_00000084493607325834068250000005801742883592688319_" gradientUnits="userSpaceOnUse" x1="412.78" x2="438.735" xlink:href="#lg3" y1="258.212" y2="290.347"/><linearGradient id="SVGID_00000033352581119795968590000015667196409480937360_" gradientUnits="userSpaceOnUse" x1="420.822" x2="436.508" xlink:href="#lg4" y1="235.334" y2="254.755"/><g><g><path d="m279.081 315.607h-48.161s-.457 108.811-58.538 166.544c-10.305 10.243-2.944 27.849 11.585 27.849h142.065c14.529 0 21.891-17.606 11.586-27.849-58.08-57.734-58.537-166.544-58.537-166.544z" fill="url(#SVGID_1_)"/><path d="m267.645 315.607h-25.29s-.24 108.811-30.739 166.544c-5.411 10.243-1.546 27.849 6.084 27.849h74.6c7.63 0 11.495-17.606 6.084-27.849-30.499-57.734-30.739-166.544-30.739-166.544z" fill="url(#SVGID_00000142159877211996736150000015459309287291277466_)"/><path d="m267.645 315.607h-25.29s-.24 108.811-30.739 166.544c-5.411 10.243-1.546 27.849 6.084 27.849h74.6c7.63 0 11.495-17.606 6.084-27.849-30.499-57.734-30.739-166.544-30.739-166.544z" fill="url(#SVGID_00000176002097572079616120000009218383610128172423_)"/><path d="m226.419 361.485 84.691 84.691c-31.717-58.046-32.028-130.568-32.028-130.568h-48.161c-.002-.001-.084 19.262-4.502 45.877z" fill="url(#SVGID_00000096037765042500456770000000504861588230709133_)"/><path d="m172.382 482.151c-10.305 10.243-2.944 27.849 11.585 27.849h142.065c14.529 0 21.891-17.606 11.586-27.849-11.937-11.866-21.436-25.89-29.001-40.683h-107.234c-7.566 14.792-17.064 28.817-29.001 40.683z" fill="url(#SVGID_00000121977086146032061970000011750374743841713808_)"/><path d="m172.382 482.151c-10.305 10.243-2.944 27.849 11.585 27.849h142.065c14.529 0 21.891-17.606 11.586-27.849-11.937-11.866-21.436-25.89-29.001-40.683h-107.234c-7.566 14.792-17.064 28.817-29.001 40.683z" fill="url(#SVGID_00000036235643954795306250000006227466745867235502_)"/></g><g><path d="m432.989 201.9c.017-.576.044-1.149.044-1.73 0-22.822-12.87-42.628-31.742-52.585 4.033-8.817 6.299-18.611 6.299-28.94 0-38.478-31.192-69.67-69.67-69.67-7.955 0-15.59 1.351-22.71 3.806-3.904-29.782-29.363-52.781-60.21-52.781s-56.306 22.999-60.209 52.781c-7.121-2.455-14.756-3.806-22.71-3.806-38.478 0-69.67 31.192-69.67 69.67 0 10.329 2.265 20.124 6.299 28.94-18.872 9.958-31.742 29.764-31.742 52.585 0 .58.027 1.153.044 1.73-31.525 7.118-54.957 35.588-54.253 69.425.759 36.476 30.067 66.516 66.516 68.116 16.605.729 31.99-4.36 44.299-13.398 10.036-7.368 23.481-8.555 34.466-2.694 6.883 3.673 14.743 5.755 23.091 5.755.518 0 1.03-.023 1.544-.039 11.434 22.846 35.04 38.54 62.326 38.54s50.892-15.694 62.326-38.54c.514.016 1.026.039 1.544.039 8.348 0 16.207-2.082 23.091-5.755 10.985-5.861 24.43-4.674 34.466 2.694 12.309 9.037 27.695 14.127 44.299 13.398 36.449-1.601 65.757-31.64 66.516-68.116.703-33.836-22.729-62.307-54.254-69.425z" fill="url(#SVGID_00000103223584288199187680000012408577768744570773_)"/><path d="m433.031 200.168c0 32.826-26.608 59.433-59.433 59.433-3.543 0-7.016-.309-10.39-.908-7.395-15.42-22.596-26.378-40.471-27.766-5.429-8.972-8.563-19.502-8.563-30.76 0-32.816 26.608-59.424 59.424-59.424 32.825.001 59.433 26.609 59.433 59.425z" fill="url(#SVGID_00000036232700697044665360000007430375280535512746_)"/><path d="m373.602 140.74c10.001 0 19.418 2.482 27.688 6.845 4.033-8.817 6.299-18.611 6.299-28.94 0-38.478-31.192-69.67-69.67-69.67s-69.67 31.192-69.67 69.67c0 30.884 20.102 57.057 47.93 66.192 6.763-25.389 29.904-44.097 57.423-44.097z" fill="url(#SVGID_00000141449489019996286490000011813991265558623676_)"/><path d="m268.244 118.647c0 .469 0 .928.02 1.387-4.272.958-8.703 1.457-13.264 1.457-33.544 0-60.741-27.197-60.741-60.751 0-33.543 27.197-60.74 60.741-60.74 30.84 0 56.32 22.985 60.222 52.767-27.336 9.401-46.978 35.34-46.978 65.88z" fill="url(#SVGID_00000042700744645516925470000012240696651512994725_)"/><path d="m22.758 271.326c.759 36.476 30.067 66.515 66.516 68.116 16.605.729 31.99-4.361 44.299-13.398 10.036-7.368 23.481-8.555 34.466-2.694 6.883 3.673 14.743 5.755 23.091 5.755.518 0 1.03-.023 1.544-.039 11.434 22.846 35.04 38.54 62.326 38.54s50.892-15.694 62.326-38.54c.514.016 1.026.039 1.544.039 8.348 0 16.207-2.082 23.09-5.755 10.985-5.861 24.43-4.674 34.466 2.694 12.309 9.037 27.695 14.127 44.299 13.398 36.449-1.601 65.757-31.64 66.516-68.116.336-16.161-4.843-31.089-13.77-43.06h-436.943c-8.927 11.97-14.106 26.899-13.77 43.06z" fill="url(#SVGID_00000122684735658669682960000010546118875488600490_)"/><path d="m368.028 279.941c0 27.157-22.007 49.164-49.154 49.164-.519 0-1.028-.01-1.537-.03 4.701-9.372 7.336-19.941 7.336-31.139 0-24.921-13.094-46.798-32.776-59.104 7.745-5.09 17.017-8.054 26.977-8.054 27.147-.001 49.154 22.016 49.154 49.163z" fill="url(#SVGID_00000096044478412797354150000004484361901895100067_)"/><path d="m195.826 200.168c0 11.258-3.134 21.787-8.563 30.76-11.597.898-22.057 5.829-30.001 13.394-10.19-25.859-35.381-44.153-64.853-44.153-5.3 0-10.45.589-15.41 1.717-.02-.569-.03-1.148-.03-1.717 0-32.816 26.608-59.424 59.433-59.424 32.816-.001 59.424 26.607 59.424 59.423z" fill="url(#SVGID_00000164473555266146019260000009961801112197181337_)"/></g><path d="m158.95 205.283c-2.923-2.923-7.663-2.923-10.586 0-5.059 5.058-8.192 11.524-9.053 18.513-.359-.08-.721-.15-1.075-.241-10.839-2.786-21.898 3.966-24.29 14.899-.505 2.306-.77 4.701-.77 7.158 0 10.165 4.546 21.334 11.716 29.308l52.186 52.124c4.454 1.329 9.166 2.06 14.053 2.06.518 0 1.03-.023 1.544-.039 11.434 22.846 35.04 38.54 62.326 38.54 18.376 0 35.076-7.125 47.52-18.752z" fill="url(#SVGID_00000003075053044318933480000012338368012480898467_)"/><path d="m283.747 230.84c-2.923-2.923-7.663-2.923-10.586 0-5.059 5.058-8.192 11.524-9.053 18.513-.359-.08-.721-.15-1.075-.241-10.839-2.786-21.898 3.966-24.29 14.899-.505 2.306-.77 4.701-.77 7.158 0 10.165 4.546 21.334 11.716 29.308l50.513 50.453c7.07-6.041 12.923-13.466 17.125-21.864.514.016 1.026.039 1.544.039 8.348 0 16.207-2.082 23.09-5.755 10.985-5.861 24.43-4.674 34.466 2.694 2.266 1.663 4.638 3.191 7.1 4.575z" fill="url(#SVGID_00000024000550778401832960000014456873279175371937_)"/><path d="m215.181 80.873c-2.923-2.922-7.663-2.923-10.586 0-5.059 5.058-8.192 11.524-9.053 18.513-.359-.08-.721-.15-1.075-.241-10.839-2.786-21.898 3.966-24.29 14.899-.505 2.306-.77 4.701-.77 7.158 0 10.165 4.546 21.334 11.716 29.308l169.814 169.691c8.779-1.665 18.067.392 25.491 5.843 12.309 9.037 27.695 14.127 44.299 13.398 14.559-.639 27.97-5.826 38.886-14.138z" fill="url(#SVGID_00000144319928700213095990000013885629418380164276_)"/><path d="m432.989 201.9c.017-.576.044-1.149.044-1.73 0-.994-.033-1.98-.082-2.962l-78.442-78.442c-2.923-2.922-7.663-2.923-10.586 0-5.059 5.058-8.192 11.524-9.053 18.513-.359-.08-.721-.15-1.076-.241-10.839-2.786-21.898 3.966-24.29 14.899-.505 2.306-.77 4.701-.77 7.158 0 10.165 4.546 21.334 11.716 29.308l137.957 137.794c17.089-12.445 28.367-32.435 28.834-54.872.17-8.161-1.076-16.004-3.489-23.316l-44.308-44.308c-2.11-.696-4.26-1.305-6.455-1.801z" fill="url(#SVGID_00000072985435266771558750000003723439827098607758_)"/><path d="m438.512 231.456c-2.923-2.923-7.663-2.923-10.586 0-5.059 5.058-8.192 11.524-9.053 18.513-.359-.08-.721-.15-1.076-.241-10.839-2.786-21.898 3.966-24.29 14.899-.504 2.306-.77 4.701-.77 7.158 0 10.165 4.546 21.334 11.716 29.308l34.939 34.898c24.786-8.229 43.464-30.095 47.173-56.481z" fill="url(#SVGID_00000094613611190737609460000007229787347336878755_)"/><g><path d="m178.148 237.456c-2.392-10.933-13.451-17.685-24.29-14.899-2.656.683-5.44 1.046-8.31 1.046s-5.654-.363-8.31-1.046c-10.839-2.786-21.898 3.966-24.29 14.899-.505 2.306-.77 4.701-.77 7.158 0 10.165 4.546 21.334 11.716 29.308 3.621 4.028 9.448 5.069 14.267 2.598 2.314-1.186 4.799-1.832 7.387-1.832 2.591 0 5.079.647 7.395 1.836 4.663 2.394 10.398 1.601 13.945-2.257 7.351-7.995 12.03-19.341 12.03-29.654 0-2.456-.265-4.851-.77-7.157z" fill="url(#SVGID_00000118380970895875996570000003157667200193742976_)"/><path d="m145.548 235.652c-4.134 0-7.485-3.351-7.485-7.485v-1.421c0-8.485 3.304-16.462 9.304-22.461 2.923-2.922 7.663-2.922 10.586 0 2.923 2.923 2.923 7.663-.001 10.586-3.172 3.171-4.918 7.388-4.918 11.874v1.421c-.001 4.135-3.352 7.486-7.486 7.486z" fill="url(#SVGID_00000168825514505491658030000012259912981717241785_)"/></g><g><path d="m185.259 469.576c-2.392-10.933-13.451-17.685-24.29-14.899-2.656.683-5.44 1.046-8.31 1.046s-5.654-.363-8.31-1.046c-10.839-2.786-21.898 3.966-24.29 14.899-.505 2.306-.77 4.701-.77 7.158 0 10.165 4.546 21.334 11.716 29.308 3.621 4.028 9.448 5.069 14.267 2.598 2.314-1.186 4.799-1.832 7.387-1.832 2.591 0 5.079.647 7.395 1.836 4.663 2.394 10.398 1.601 13.945-2.257 7.351-7.995 12.03-19.341 12.03-29.654.001-2.456-.265-4.851-.77-7.157z" fill="url(#SVGID_00000025402676593472063290000007706466734840786601_)"/><path d="m152.659 467.772c-4.134 0-7.485-3.351-7.485-7.485v-1.421c0-8.485 3.304-16.462 9.304-22.461 2.923-2.923 7.663-2.922 10.586 0 2.923 2.923 2.923 7.663-.001 10.586-3.172 3.171-4.918 7.388-4.918 11.874v1.421c-.001 4.135-3.351 7.486-7.486 7.486z" fill="url(#SVGID_00000067946088651023084830000016829200513555698086_)"/></g><g><path d="m234.378 113.046c-2.392-10.933-13.451-17.685-24.29-14.899-2.656.683-5.44 1.046-8.31 1.046s-5.654-.363-8.31-1.046c-10.839-2.786-21.898 3.966-24.29 14.899-.505 2.306-.77 4.701-.77 7.158 0 10.165 4.546 21.334 11.716 29.308 3.621 4.028 9.448 5.069 14.267 2.598 2.314-1.186 4.799-1.832 7.387-1.832 2.591 0 5.079.647 7.395 1.836 4.663 2.394 10.398 1.601 13.945-2.257 7.351-7.995 12.03-19.341 12.03-29.654.001-2.456-.265-4.851-.77-7.157z" fill="url(#SVGID_00000107547891311939077680000014642689277335041181_)"/><path d="m201.778 111.242c-4.134 0-7.485-3.351-7.485-7.485v-1.421c0-8.485 3.304-16.462 9.304-22.461 2.923-2.922 7.663-2.922 10.586 0 2.923 2.923 2.923 7.663-.001 10.586-3.172 3.171-4.918 7.388-4.918 11.874v1.421c0 4.135-3.351 7.486-7.486 7.486z" fill="url(#SVGID_00000109020730998341939650000006301946020285666952_)"/></g><g><path d="m302.945 263.013c-2.392-10.933-13.451-17.685-24.29-14.899-2.656.683-5.44 1.046-8.31 1.046s-5.654-.363-8.31-1.046c-10.839-2.786-21.898 3.966-24.29 14.899-.505 2.306-.77 4.701-.77 7.158 0 10.165 4.546 21.334 11.716 29.308 3.621 4.028 9.448 5.069 14.267 2.598 2.314-1.186 4.799-1.832 7.387-1.832 2.591 0 5.079.647 7.395 1.836 4.663 2.394 10.398 1.601 13.945-2.257 7.351-7.995 12.03-19.341 12.03-29.654 0-2.457-.266-4.852-.77-7.157z" fill="url(#SVGID_00000118394829779678788880000015757326007621524918_)"/><path d="m270.345 261.208c-4.134 0-7.485-3.351-7.485-7.485v-1.421c0-8.485 3.304-16.462 9.304-22.461 2.923-2.923 7.663-2.922 10.586 0 2.923 2.923 2.923 7.663-.001 10.586-3.172 3.171-4.918 7.388-4.918 11.874v1.421c-.001 4.135-3.352 7.486-7.486 7.486z" fill="url(#SVGID_00000052811652013964527490000004239116944482237576_)"/></g><g><path d="m373.707 150.939c-2.392-10.933-13.451-17.685-24.29-14.899-2.656.683-5.44 1.046-8.31 1.046s-5.654-.363-8.31-1.046c-10.839-2.786-21.898 3.966-24.29 14.899-.505 2.306-.77 4.701-.77 7.158 0 10.165 4.546 21.334 11.716 29.308 3.621 4.028 9.448 5.069 14.267 2.598 2.314-1.186 4.799-1.832 7.387-1.832 2.591 0 5.079.647 7.395 1.836 4.663 2.394 10.398 1.601 13.945-2.257 7.351-7.995 12.03-19.341 12.03-29.654.001-2.456-.265-4.851-.77-7.157z" fill="url(#SVGID_00000165193451672829467690000016719575514197330049_)"/><path d="m341.107 149.135c-4.134 0-7.485-3.351-7.485-7.485v-1.421c0-8.485 3.304-16.462 9.304-22.461 2.923-2.922 7.663-2.922 10.586 0 2.923 2.923 2.923 7.663-.001 10.586-3.172 3.171-4.918 7.388-4.918 11.874v1.421c-.001 4.135-3.351 7.486-7.486 7.486z" fill="url(#SVGID_00000102526865173145628050000002315986796228934553_)"/></g><g><path d="m457.709 263.628c-2.392-10.933-13.451-17.685-24.29-14.899-2.656.683-5.44 1.046-8.31 1.046s-5.654-.363-8.31-1.046c-10.839-2.786-21.898 3.966-24.29 14.899-.505 2.306-.77 4.701-.77 7.158 0 10.165 4.546 21.334 11.716 29.308 3.621 4.028 9.448 5.069 14.267 2.598 2.314-1.186 4.799-1.832 7.387-1.832 2.591 0 5.079.647 7.395 1.836 4.663 2.394 10.398 1.601 13.945-2.257 7.351-7.995 12.03-19.341 12.03-29.654.001-2.456-.265-4.851-.77-7.157z" fill="url(#SVGID_00000084493607325834068250000005801742883592688319_)"/><path d="m425.109 261.824c-4.134 0-7.485-3.351-7.485-7.485v-1.421c0-8.485 3.304-16.462 9.304-22.461 2.923-2.922 7.663-2.922 10.586 0 2.923 2.923 2.923 7.663-.001 10.586-3.172 3.171-4.918 7.388-4.918 11.874v1.421c-.001 4.135-3.351 7.486-7.486 7.486z" fill="url(#SVGID_00000033352581119795968590000015667196409480937360_)"/></g></g></svg>