<?xml version="1.0" encoding="iso-8859-1"?>
<!-- Generator: Adobe Illustrator 19.0.0, SVG Export Plug-In . SVG Version: 6.00 Build 0)  -->
<svg version="1.1" id="Layer_1" xmlns="http://www.w3.org/2000/svg" xmlns:xlink="http://www.w3.org/1999/xlink" x="0px" y="0px"
	 viewBox="0 0 512.001 512.001" style="enable-background:new 0 0 512.001 512.001;" xml:space="preserve">
<g>
	<path style="fill:#E2E5E7;" d="M512.001,391.794c0,7.145-5.79,12.936-12.937,12.936H12.937C5.791,404.73,0,398.939,0,391.794
		V64.937c0-7.143,5.791-12.938,12.937-12.938h486.127c7.146,0,12.937,5.795,12.937,12.938L512.001,391.794L512.001,391.794z"/>
	<path style="fill:#D1D5D5;" d="M314.069,404.73h-58.068h-58.069c0,0-2.353,38.809-7.057,47.041h65.126h65.125
		C316.422,443.538,314.069,404.73,314.069,404.73z"/>
	<path style="fill:#C6CBCB;" d="M332.003,455.005c-7.057-0.883-10.877-3.234-10.877-3.234h-65.125h-65.126
		c0,0-3.82,2.352-10.877,3.234c-7.055,0.883-11.76,1.469-11.76,4.998h87.763h87.762
		C343.762,456.474,339.058,455.888,332.003,455.005z"/>
	<path style="fill:#2D404E;" d="M499.064,51.999H12.937C5.791,51.999,0,57.794,0,64.937v293.537h512V64.937
		C512.001,57.794,506.211,51.999,499.064,51.999z M490.811,340.089H233.865H21.19V70.388h377.583h92.038V340.089L490.811,340.089z"
		/>
	<polygon style="fill:#E2E5E7;" points="21.19,70.388 21.19,340.089 233.865,340.089 490.811,340.089 490.811,70.388 
		398.773,70.388 	"/>
	<path style="fill:#C6CBCB;" d="M314.069,404.73h-58.068h-58.069c0,0-0.351,5.773-1.05,13.33h118.237
		C314.42,410.503,314.069,404.73,314.069,404.73z"/>
	<circle style="fill:#2D404E;" cx="256.067" cy="382.689" r="8.412"/>
	<g>
		<g>
			<rect x="69.414" y="121.105" style="fill:#2D404E;" width="201.988" height="168.268"/>
		</g>
		<g>
			<polygon style="fill:#DF584C;" points="69.414,183.218 111.088,216.663 156.164,185.64 207.616,229.269 271.402,218.603 
				271.402,289.372 69.414,289.372 			"/>
		</g>
		<g>
			<polygon style="fill:#B9483E;" points="156.164,185.64 161.566,185.64 212.281,228.485 207.616,229.269 			"/>
		</g>
		<g>
			<polygon style="fill:#B9483E;" points="69.414,176.749 69.414,183.218 111.088,216.663 114.729,214.157 			"/>
		</g>
	</g>
	<g>
		<path style="fill:#DF584C;" d="M420.875,175.78c0-12.271-5.002-23.373-13.076-31.383l-31.133,31.383l30.858,31.645
			C415.756,199.394,420.875,188.187,420.875,175.78z"/>
		<path style="fill:#2D404E;" d="M376.666,175.78h-44.21c0,24.414,19.792,44.209,44.21,44.209c12.008,0,22.891-4.795,30.858-12.564
			L376.666,175.78z"/>
		<path style="fill:#586A73;" d="M376.666,131.569c-24.418,0-44.21,19.793-44.21,44.211h44.21l31.133-31.383
			C399.808,136.47,388.81,131.569,376.666,131.569z"/>
	</g>
	<g>
		<path style="fill:#C6CBCB;" d="M442.588,239.362c0,2.23-1.807,4.037-4.037,4.037H314.78c-2.229,0-4.036-1.807-4.036-4.037l0,0
			c0-2.229,1.808-4.037,4.036-4.037h123.771C440.781,235.325,442.588,237.134,442.588,239.362L442.588,239.362z"/>
		<path style="fill:#C6CBCB;" d="M442.588,257.116c0,2.23-1.807,4.037-4.037,4.037H314.78c-2.229,0-4.036-1.807-4.036-4.037l0,0
			c0-2.229,1.808-4.037,4.036-4.037h123.771C440.781,253.079,442.588,254.888,442.588,257.116L442.588,257.116z"/>
		<path style="fill:#C6CBCB;" d="M420.875,274.87c0,2.23-1.51,4.037-3.372,4.037H314.114c-1.861,0-3.371-1.807-3.371-4.037l0,0
			c0-2.229,1.51-4.037,3.371-4.037h103.389C419.365,270.833,420.875,272.642,420.875,274.87L420.875,274.87z"/>
	</g>
	<polygon style="fill:#E2E5E7;" points="156.163,166.278 159.277,171.671 162.392,177.065 156.163,177.065 149.934,177.065 
		153.049,171.671 	"/>
	<path style="opacity:0.2;fill:#E2E5E7;enable-background:new    ;" d="M499.064,51.999h-89.058L271.402,358.474h240.599V64.937
		C512.001,57.794,506.211,51.999,499.064,51.999z"/>
</g>
<g>
</g>
<g>
</g>
<g>
</g>
<g>
</g>
<g>
</g>
<g>
</g>
<g>
</g>
<g>
</g>
<g>
</g>
<g>
</g>
<g>
</g>
<g>
</g>
<g>
</g>
<g>
</g>
<g>
</g>
</svg>
