<svg id="Layer_1" enable-background="new 0 0 464.186 464.186" height="512" viewBox="0 0 464.186 464.186" width="512" xmlns="http://www.w3.org/2000/svg"><path d="m287.264 56.542c37.44-7.16 92.74-10.38 131 20.97 97.6 79.93 26.84 340.37-92.63 340.37-14.37 0-32.94-3.27-55.84-14.12-10.85-5.14-23.35-5.14-34.2 0-24.92 11.8-52.63 18.37-78.97 11.03-103.29-28.91-161.57-261.88-69.5-337.28 38.25-31.35 93.54-28.13 130.99-20.97 22.137 4.252 45.655 4.541 69.15 0z" fill="#fe4f60"/><path d="m340.827 51.839c24.531.765 27.322 36.011 3.204 40.558-23.28 4.389-45.989 4.741-69.917.146-37.45-7.16-92.74-10.38-130.99 20.97-48.403 39.642-55.251 122.838-35.849 197.035 6.326 24.192-28.008 36.316-38.422 13.583-37.925-82.785-41.376-197.77 18.271-246.618 38.25-31.35 93.54-28.13 130.99-20.97 22.138 4.252 45.655 4.541 69.15 0 17.709-3.388 35.905-5.255 53.563-4.704z" fill="#ff6d7a"/><path d="m130.185 134.562c-7.17 0-10.714-8.783-5.555-13.758 1.615-1.559 3.259-3.026 4.884-4.362 3.412-2.807 8.453-2.313 11.26 1.099 2.806 3.413 2.313 8.455-1.1 11.26-1.3 1.068-2.624 2.252-3.937 3.518-1.551 1.498-3.553 2.243-5.552 2.243z" fill="#fff"/><path d="m101.842 219.302c-4.373 0-7.944-3.518-7.997-7.903-.272-22.392 3.342-43.183 10.452-60.124 1.712-4.075 6.402-5.989 10.474-4.28 4.073 1.71 5.99 6.399 4.28 10.473-6.27 14.937-9.454 33.519-9.208 53.737.054 4.447-3.532 8.097-8.001 8.097z" fill="#fff"/><path d="m254.056 137.984c-3.688 0-7.004-2.564-7.813-6.315-1.923-8.916-7.389-40.62 2.997-74.238 6.217-20.154 16.915-36.703 30.515-49.396 3.23-3.016 8.292-2.841 11.307.389 3.016 3.229 2.841 8.292-.389 11.307-11.652 10.883-20.793 25.074-26.145 42.421-9.478 30.679-3.866 60.482-2.645 66.145 1.078 4.99-2.731 9.687-7.827 9.687z" fill="#9ceb63"/><path d="m252.784 67.132c1.8 7.16-1.96 14.51-8.82 17.25-33.53 13.36-61.37-.19-64.67-1.87-25.06-12.81-35.14-36.43-39.11-51.03-1.97-7.26 1.9-14.82 8.94-17.47 14.15-5.34 39.2-11.01 64.26 1.8 3.29 1.68 30.59 16.32 39.4 51.32z" fill="#befa91"/><path d="m249.664 175.382c-5.96-7.29-16.95-7.73-23.61-1.08l-221.35 221.35c-6.65 6.66-6.21 17.65 1.08 23.61 68.08 55.71 168.63 51.8 232.15-11.73 63.52-63.52 67.43-164.07 11.73-232.15z" fill="#ff6d7a"/><path d="m266.554 402.515c-6.588-2.441-13.384-3.619-22.24-1.713 57.34-63.71 59.12-159.7 5.35-225.42-5.96-7.29-16.952-7.732-23.61-1.08-3.344 3.342-153.49 153.49-154.84 154.84-2.949-6.097-5.707-12.384-8.254-18.826-1.177-2.977-.489-6.37 1.775-8.634l144.35-144.35c16.718-16.697 44.223-15.39 59.16 2.85 56.238 68.753 59.488 167.22 7.668 239.548-2.114 2.95-5.956 4.046-9.359 2.785z" fill="#e84857"/><path d="m252.497 138.168c-15.02 0-28.964-6.602-38.548-16.894-3.011-3.233-2.831-8.295.402-11.307s8.295-2.831 11.307.402c2.422 2.601 11.396 11.136 25.178 11.76 15.979.727 26.587-9.688 28.555-11.783 3.024-3.222 8.087-3.382 11.309-.358 3.221 3.024 3.381 8.087.357 11.308-3.805 4.054-17.525 16.872-38.56 16.872z" fill="#e84857"/><path d="m200.065 72.894c8.776 4.233 4.012 17.406-5.47 15.164-28.252-6.679-46.914-29.005-54.411-56.576-1.97-7.26 1.9-14.82 8.94-17.47 5.172-1.947 10.375 1.55 10.952 6.673 1.939 17.184 20.1 42.615 39.989 52.209z" fill="#daffbf"/><path d="m187.184 273.172c-42.129 42.129-27.999 99.853 8.679 128.866 13.25 10.481 10.915 31.218-4.257 38.649-59.674 29.228-132.654 22.087-185.822-21.425-7.29-5.96-7.733-16.952-1.08-23.61 19.656-19.671 211.791-211.798 221.35-221.35 6.657-6.652 17.65-6.21 23.61 1.08 1.043 1.276 2.065 2.563 3.067 3.861 7.066 9.162 6.236 22.146-1.945 30.327z" fill="#ff8c95"/><path d="m209.654 190.702c52.07 52.07 52.07 136.48 0 188.55s-136.48 52.07-188.55 0z" fill="#ffebd2"/><path d="m180.432 401.382c-50.771 28.415-116.16 21.038-159.328-22.13l188.55-188.55c9.005 9.005 16.449 18.976 22.335 29.584 1.717 3.093 1.121 6.96-1.381 9.462l-43.424 43.424c-36.781 36.781-30.691 85.055-4.476 116.072 3.236 3.829 2.1 9.689-2.276 12.138z" fill="#fff3e4"/><g fill="#ffaa64"><path d="m129.184 350.302c-4.418 0-8-3.582-8-8v-10c0-4.418 3.582-8 8-8s8 3.582 8 8v10c0 4.418-3.582 8-8 8z"/><path d="m172.703 306.782h-10c-4.418 0-8-3.582-8-8s3.582-8 8-8h10c4.418 0 8 3.582 8 8s-3.582 8-8 8z"/></g></svg>