<svg height="512pt" viewBox="0 0 512 512" width="512pt" xmlns="http://www.w3.org/2000/svg"><path d="m512 45v315l-30 30h-452l-30-30v-315c0-24.902344 20.097656-45 45-45h422c24.902344 0 45 20.097656 45 45zm0 0" fill="#463b85"/><path d="m512 45v315l-30 30h-226v-390h211c24.902344 0 45 20.097656 45 45zm0 0" fill="#392e6e"/><path d="m482 45v285h-452v-285c0-8.402344 6.597656-15 15-15h422c8.402344 0 15 6.597656 15 15zm0 0" fill="#a8ebfa"/><path d="m482 45v285h-226v-300h211c8.402344 0 15 6.597656 15 15zm0 0" fill="#76e2f8"/><path d="m181 405h150v92h-150zm0 0" fill="#b6c4cf"/><path d="m256 405h75v92h-75zm0 0" fill="#9facba"/><path d="m358.898438 121.199219-50.398438-1.199219-52.5 60-30 58.5 30 61.5c2.699219 0 5.097656-.601562 7.5-2.101562l90.300781-53.398438c.601563-.300781 1.199219-.898438 1.800781-1.199219 3.296876-3 5.398438-7.5 5.398438-11.699219v-102.902343c0-2.699219-.601562-5.398438-2.101562-7.5zm0 0" fill="#5a69e6"/><path d="m203.5 120-50.398438 1.199219c-1.5 2.402343-2.101562 4.800781-2.101562 7.5v102.898437c0 4.203125 2.101562 8.703125 5.398438 11.703125.601562.296875 92.101562 54.597657 92.101562 54.597657 2.402344 1.5 4.800781 2.101562 7.5 2.101562v-120zm0 0" fill="#7984eb"/><path d="m358.898438 121.199219-102.898438 58.800781-102.898438-58.800781c.296876-.296875.597657-.898438.898438-1.199219 1.199219-1.800781 2.699219-3 4.5-4.199219l90-53.699219c2.402344-1.5 5.097656-2.101562 7.5-2.101562s5.097656.601562 7.5 2.101562l90 53.699219c1.800781 1.199219 3.300781 2.699219 4.5 4.199219.300781.300781.597656.902344.898438 1.199219zm0 0" fill="#b5baf3"/><path d="m358.898438 121.199219-102.898438 58.800781v-120c2.402344 0 5.097656.601562 7.5 2.101562l90 53.699219c1.800781 1.199219 3.300781 2.699219 4.5 4.199219.300781.300781.597656.902344.898438 1.199219zm0 0" fill="#979fef"/><path d="m512 360v15c0 24.898438-20.097656 45-45 45h-422c-24.902344 0-45-20.101562-45-45v-15zm0 0" fill="#d9e7ec"/><path d="m512 360v15c0 24.898438-20.097656 45-45 45h-211v-60zm0 0" fill="#c5d3dd"/><path d="m421 497c0 8.398438-6.597656 15-15 15h-300c-8.402344 0-15-6.601562-15-15 0-8.402344 6.597656-15 15-15h300c8.402344 0 15 6.597656 15 15zm0 0" fill="#d9e7ec"/><path d="m421 497c0 8.398438-6.597656 15-15 15h-150v-30h150c8.402344 0 15 6.597656 15 15zm0 0" fill="#c5d3dd"/></svg>