<svg height="512" viewBox="0 0 512 512" width="512" xmlns="http://www.w3.org/2000/svg" xmlns:xlink="http://www.w3.org/1999/xlink"><linearGradient id="linear-gradient" gradientTransform="matrix(-1 0 0 1 -2920 0)" gradientUnits="userSpaceOnUse" x1="-3176" x2="-3176" y1="-7.235" y2="395.354"><stop offset="0" stop-color="#99bcff"/><stop offset=".4318" stop-color="#f3ca72"/><stop offset="1" stop-color="#faff8a"/></linearGradient><linearGradient id="linear-gradient-2" gradientUnits="userSpaceOnUse" x1="418.397" x2="418.397" y1="145" y2="346.022"><stop offset=".2553" stop-color="#fff"/><stop offset="1" stop-color="#ffa647"/></linearGradient><linearGradient id="linear-gradient-3" gradientTransform="matrix(-1 0 0 1 -2920 0)" x1="-3047.103" x2="-3047.103" xlink:href="#linear-gradient-2" y1="112.059" y2="358.717"/><linearGradient id="linear-gradient-4" x1="256" x2="256" xlink:href="#linear-gradient" y1="525.103" y2="305.628"/><linearGradient id="linear-gradient-5" gradientTransform="matrix(1 0 0 -1 0 446.5)" gradientUnits="userSpaceOnUse" x1="543.12" x2="-2.215" y1="62.002" y2="62.002"><stop offset="0" stop-color="#9ca6a3"/><stop offset=".4408" stop-color="#ffbc7d"/><stop offset=".4984" stop-color="#efb883"/><stop offset=".6438" stop-color="#cbb091"/><stop offset=".7803" stop-color="#b1ab9b"/><stop offset=".903" stop-color="#a1a7a1"/><stop offset="1" stop-color="#9ca6a3"/></linearGradient><linearGradient id="linear-gradient-6" x1="543.12" x2="-2.215" xlink:href="#linear-gradient-5" y1="55.75" y2="55.75"/><linearGradient id="linear-gradient-7" gradientUnits="userSpaceOnUse" x1="543.12" x2="-2.215" y1="191.5" y2="191.5"><stop offset="0" stop-color="#679ea6"/><stop offset=".4408" stop-color="#ffae2c"/><stop offset=".4939" stop-color="#e8ac3f"/><stop offset=".612" stop-color="#baa763"/><stop offset=".7251" stop-color="#96a380"/><stop offset=".8304" stop-color="#7ca095"/><stop offset=".9251" stop-color="#6c9fa2"/><stop offset="1" stop-color="#679ea6"/></linearGradient><g id="San_Diego"><g id="Layer_22" data-name="Layer 22"><circle cx="256" cy="256" fill="url(#linear-gradient)" r="256"/><path d="m489.3918 150.6605a51.0318 51.0318 0 0 0 -7.486 38.94 51.003 51.003 0 0 0 -80.4532 53.3307 50.993 50.993 0 0 0 -53.4526 86.82v29.2488h81v12h55.7612a256.5371 256.5371 0 0 0 4.6306-220.3395z" fill="url(#linear-gradient-2)"/><path d="m150 319h81v-29.249a50.9929 50.9929 0 0 0 -53.4529-86.82 50.9946 50.9946 0 0 0 -80.4521-53.331 51.0119 51.0119 0 0 0 -35.9237-59.6486 256.3371 256.3371 0 0 0 -49.9972 241.0486h138.8259z" fill="url(#linear-gradient-3)"/><circle cx="300" cy="203" fill="#fffddb" r="40"/><path d="m508.3853 299h-504.7706c20.4515 120.904 125.6481 212.9928 252.3709 213h.0288c126.7229-.0072 231.9194-92.096 252.3709-213z" fill="url(#linear-gradient-4)"/><path d="m480 389v-9.0037q-2.5272 4.5558-5.2212 9.0037z" fill="url(#linear-gradient-5)"/><path d="m492 310v42h1.3721a254.13 254.13 0 0 0 15.3447-55h-505.4335a254.7508 254.7508 0 0 0 49.7167 114.9625v-62.9625h10.999v43h27.001v-73h14v125h44v-107h19v123.5l21 24 22-23.5v-129h16v23h29v-34h21v-14h44v14h51v115.5l21 21 21-21v-116.5h14v69h46.7788q2.7048-4.44 5.2212-9.0037v-69.9963z" fill="url(#linear-gradient-6)"/><path d="m207.6592 35.708c25.0625 7.4375 31.4408 15.376 31.3408 15.292 9.1308-7.2983 21.687-11.8838 32.84-13.8095-13.6045 5.9033-24.789 16.4174-29.251 22.792v.0009c-7.05 6.2432-9.0865-4.8818-12.6006-7.26-7.7106-8.9634-22.3292-17.0154-22.3292-17.0154z" fill="#fff"/><path d="m345.6592 93.708c25.0625 7.4375 31.4408 15.376 31.3408 15.292 9.1308-7.2983 21.687-11.8838 32.84-13.8095-13.6045 5.9033-24.789 16.4174-29.2509 22.792l-.0005.0009c-7.05 6.2432-9.0865-4.8818-12.6006-7.26-7.7102-8.9634-22.3288-17.0154-22.3288-17.0154z" fill="#fff"/><path d="m510.96 233h-18.96v42h-12v-79h-52v69h-14v-121l-21-21-21 21v121h-51v14h-44v-14h-21v-35h-29v23h-16v-134.5l-22-23.5-21 24v129h-19v-86h-44v104h-14v-73h-27.001v43h-10.999v-66l-38.4932.8952q-2.4454 6.9389-4.5068 14.052v51.0528h-9.2266q-.7652 9.9-.7734 20a258.5037 258.5037 0 0 0 1.9875 32h508.025a258.5037 258.5037 0 0 0 1.9875-32c0-7.754-.3647-15.4216-1.04-23z" fill="url(#linear-gradient-7)"/><g fill="#fffddb"><path d="m217 364 264.5288 13.2159q3.4988-6.4959 6.6212-13.2159z"/><path d="m52.2621 411q5.7812 7.5874 12.1048 14.72l294.6331-14.72z"/><path d="m1.8733 287q.791 6.5522 1.9071 13h504.4396q1.1166-6.4463 1.907-13z"/><path d="m169 416-9.7706-10.4685a2.6936 2.6936 0 0 0 1.9692-4.5315h21.8014v-57.9239a3.689 3.689 0 0 1 6.9612-1.7033l31.0388 59.6272h19.24a2.024 2.024 0 0 1 1.3566 3.5259l-11.5966 10.4741z"/></g></g></g></svg>