<svg id="Layer_1" enable-background="new 0 0 500 500" height="512" viewBox="0 0 500 500" width="512" xmlns="http://www.w3.org/2000/svg"><path id="XMLID_18_" d="m215.688 400.841-51.617 83.159h172.057l-50.712-83.159z" fill="#28a7e6"/><path id="XMLID_391_" d="m500 400.841h-499.55l-.45-384.841h500z" fill="#28a7e6"/><path id="XMLID_389_" d="m0 308.443h500v92.398h-500z" fill="#d4dedd"/><g fill="#fff"><path id="XMLID_30_" d="m240.555 354.79c0-5.204 4.229-9.423 9.445-9.423 5.216 0 9.445 4.219 9.445 9.423 0 5.204-4.229 9.423-9.445 9.423-5.216 0-9.445-4.219-9.445-9.423z"/><path id="XMLID_34_" d="m250.445 375.368c-11.58 0-21-9.421-21-21s9.42-21 21-21 21 9.421 21 21-9.42 21-21 21zm0-23.527c-1.379 0-2.502 1.133-2.502 2.526s1.122 2.526 2.502 2.526c1.379 0 2.502-1.133 2.502-2.526s-1.123-2.526-2.502-2.526z"/></g></svg>