<svg id="Layer_1" enable-background="new 0 0 64 64" height="512" viewBox="0 0 64 64" width="512" xmlns="http://www.w3.org/2000/svg"><path d="m14.174 38c-1.17 0-2.09-1-1.993-2.166l.069-.834 1.597-19.166c.087-1.037.953-1.834 1.993-1.834h32.32c1.04 0 1.907.797 1.993 1.834l1.597 19.166.069.834c.098 1.166-.823 2.166-1.993 2.166z" fill="#cadfdc"/><path d="m36.21 17.79c-1.29-.29-4.23-.79-9.21-.79s-7.92.5-9.21.79c-.29 1.29-.79 3.23-.79 8.21s.5 6.92.79 8.21c1.29.29 4.23.79 9.21.79s7.92-.5 9.21-.79c.29-1.29.79-3.23.79-8.21s-.5-6.92-.79-8.21z" fill="#333"/><path d="m37 26c0 4.98-.5 6.92-.79 8.21-1.29.29-4.23.79-9.21.79s-7.92-.5-9.21-.79l1.99-.14c8.75-.615 15.735-7.536 16.431-16.28.289 1.29.789 3.23.789 8.21z" fill="#383838"/><path d="m23 19h2.315c.931 0 1.685.754 1.685 1.685 0 .773-.526 1.447-1.276 1.634-1.677.419-2.986 1.728-3.405 3.405-.187.75-.861 1.276-1.634 1.276-.931 0-1.685-.754-1.685-1.685v-2.315c0-2.209 1.791-4 4-4z" fill="#5c5c5c"/><g fill="none" stroke="#000" stroke-linecap="round" stroke-linejoin="round" stroke-miterlimit="10"><path d="m25.5 47-.5 3h-3l.5-3z"/><path d="m26 44-.5 3h-3l.5-3z"/><path d="m29 44-.5 3h-3l.5-3z"/><path d="m28.5 47-.5 3h-3l.5-3z"/><path d="m19.5 47-.5 3h-3l.5-3z"/><path d="m20 44-.5 3h-3l.5-3z"/><path d="m23 44-.5 3h-3l.5-3z"/><path d="m22.5 47-.5 3h-3l.5-3z"/><path d="m32 44v3h-3.5l.5-3z"/><path d="m35.5 47h-3.5v-3h3z"/><path d="m36 50h-8l.5-3h7z"/><path d="m38.5 47h-3l-.5-3h3z"/><path d="m39 50h-3l-.5-3h3z"/><path d="m42 50h-3l-.5-3h3z"/><path d="m41.5 47h-3l-.5-3h3z"/><path d="m45 50h-3l-.5-3h3z"/><path d="m44.5 47h-3l-.5-3h3z"/><path d="m48 50h-3l-.5-3h3z"/><path d="m47.5 47h-3l-.5-3h3z"/></g><path d="m16 14v-4c0-1.105.895-2 2-2h28c1.105 0 2 .895 2 2v4" fill="#b5d0ca"/><path d="m48 10v1c0-1.1-.9-2-2-2h-28c-1.1 0-2 .9-2 2v-1c0-1.1.9-2 2-2h28c1.1 0 2 .9 2 2z" fill="#e3eeec"/><path d="m17 38h30v3h-30z" fill="#8cb5ad"/><path d="m56 53h-48l1.56-12h9.44 2 22 2 9.44z" fill="#e3eeec"/><path d="m25.5 47-.5 3h-3l.5-3z" fill="#b5d0ca"/><path d="m26 44-.5 3h-3l.5-3z" fill="#c4d9d5"/><path d="m29 44-.5 3h-3l.5-3z" fill="#b5d0ca"/><path d="m28.5 47-.5 3h-3l.5-3z" fill="#c4d9d5"/><path d="m19.5 47-.5 3h-3l.5-3z" fill="#b5d0ca"/><path d="m20 44-.5 3h-3l.5-3z" fill="#c4d9d5"/><path d="m23 44-.5 3h-3l.5-3z" fill="#b5d0ca"/><path d="m22.5 47-.5 3h-3l.5-3z" fill="#c4d9d5"/><path d="m32 44v3h-3.5l.5-3z" fill="#c4d9d5"/><path d="m35.5 47h-3.5v-3h3z" fill="#c4d9d5"/><path d="m36 50h-8l.5-3h7z" fill="#b5d0ca"/><path d="m38.5 47h-3l-.5-3h3z" fill="#b5d0ca"/><path d="m39 50h-3l-.5-3h3z" fill="#c4d9d5"/><path d="m42 50h-3l-.5-3h3z" fill="#b5d0ca"/><path d="m41.5 47h-3l-.5-3h3z" fill="#c4d9d5"/><path d="m45 50h-3l-.5-3h3z" fill="#c4d9d5"/><path d="m44.5 47h-3l-.5-3h3z" fill="#b5d0ca"/><path d="m48 50h-3l-.5-3h3z" fill="#b5d0ca"/><path d="m47.5 47h-3l-.5-3h3z" fill="#c4d9d5"/><path d="m55 56h-46l-1-3h48z" fill="#cadfdc"/><path d="m43 18h4v6h-4z" fill="#2a2d2c"/><path d="m43 21h4v3h-4z" fill="#555756"/><path d="m47 20.5v1h-8c-.28 0-.5-.22-.5-.5s.22-.5.5-.5z" fill="#333"/><path d="m43 28h4v6h-4z" fill="#2a2d2c"/><path d="m43 31h4v3h-4z" fill="#555756"/><path d="m47 30.5v1h-8c-.28 0-.5-.22-.5-.5s.22-.5.5-.5z" fill="#333"/><path d="m50.315 17.92-.01-.09c-.08-1.03-.95-1.83-1.99-1.83h-32.65c-1.03 0-1.89.78-1.98 1.8l.16-1.97c.08-1.03.95-1.83 1.99-1.83h32.32c1.04 0 1.91.8 1.99 1.83z" fill="#e3eeec"/></svg>