<svg enable-background="new 0 0 128 128" height="512" viewBox="0 0 128 128" width="512" xmlns="http://www.w3.org/2000/svg"><path d="m128 97v2c0 3.3-2.7 6-6 6h-116c-3.3 0-6-2.7-6-6v-2z" fill="#e4e7e7"/><path d="m55 95h18c1.7 0 3 1.3 3 3s-1.3 3-3 3h-18c-1.7 0-3-1.3-3-3 0-1.6 1.3-3 3-3z" fill="#c8cbcb"/><path d="m16 23h96c2.2 0 4 1.8 4 4v70h-104v-70c0-2.2 1.8-4 4-4z" fill="#36434f"/><path d="m18 29h92v62h-92z" fill="#465765"/><path d="m40 83h48c3.3 0 6 2.7 6 6v2h-60v-2c0-3.3 2.7-6 6-6z" fill="#7e8a94"/><path d="m46 79c2.2 0 4 1.8 4 4s-1.8 4-4 4-4-1.8-4-4 1.8-4 4-4z" fill="#e4e7e7"/><path d="m58 79c2.2 0 4 1.8 4 4s-1.8 4-4 4-4-1.8-4-4 1.8-4 4-4z" fill="#efc75e"/><path d="m70 79c2.2 0 4 1.8 4 4s-1.8 4-4 4-4-1.8-4-4 1.8-4 4-4zm12 0c2.2 0 4 1.8 4 4s-1.8 4-4 4-4-1.8-4-4 1.8-4 4-4z" fill="#e4e7e7"/></svg>