<?xml version="1.0" encoding="iso-8859-1"?>
<!-- Generator: Adobe Illustrator 19.0.0, SVG Export Plug-In . SVG Version: 6.00 Build 0)  -->
<svg version="1.1" id="Capa_1" xmlns="http://www.w3.org/2000/svg" xmlns:xlink="http://www.w3.org/1999/xlink" x="0px" y="0px"
	 viewBox="0 0 512 512" style="enable-background:new 0 0 512 512;" xml:space="preserve">
<path style="fill:#26DD9F;" d="M115.121,0c0,0,17.145,55.353,47.422,88.501c25.854,28.306,73.03,11.2,73.03,11.2
	s-4.357-40.88-35.243-66.088C179.007,16.21,115.121,0,115.121,0z"/>
<path style="fill:#23B77E;" d="M224.765,78.971c2.402,1.391,10.057,8.182,12.478,9.446l7.712,4.04l6.226,3.259
	c5.084,2.661,6.999,8.973,4.251,14.01l0,0c-2.748,5.037-9.092,6.843-14.081,4.008l-6.11-3.472l-7.616-4.337
	c-2.675-1.554-5.29-3.159-7.856-4.805c-10.241-6.603-89.218-82.302-86.288-85.164C136.328,13.177,215.155,73.38,224.765,78.971z"/>
<path style="fill:#BD7766;" d="M241.319,197.358c-0.612-3.965-1.082-7.625-1.512-11.424c-0.424-3.768-0.804-7.536-1.114-11.31
	c-0.633-7.548-1.058-15.119-1.262-22.721c-0.424-15.203,0.084-30.535,1.861-45.992c0.945-7.728,2.227-15.484,3.963-23.256
	c1.778-7.769,4.105-15.546,7.105-23.267c2.967-7.723,6.856-15.372,11.801-22.668c4.942-7.283,11.056-14.21,18.442-20.059
	l0.198-0.157c7.526-5.959,18.457-4.689,24.416,2.837s4.689,18.457-2.837,24.416c-0.481,0.381-0.995,0.742-1.501,1.065
	c-9.099,5.753-17.048,15.276-22.953,26.889c-2.962,5.792-5.561,11.979-7.753,18.44c-2.157,6.48-3.991,13.178-5.546,20.01
	c-3.01,13.703-4.964,27.886-6.018,42.219c-0.537,7.166-0.867,14.374-0.997,21.59c-0.072,3.609-0.075,7.218-0.038,10.823
	c0.036,3.572,0.142,7.277,0.313,10.658l0.011,0.212c0.233,4.602-3.309,8.522-7.911,8.755
	C245.687,204.637,241.976,201.519,241.319,197.358z"/>
<path style="fill:#FC5271;" d="M425.07,143.473c-45.145-29.889-84.753-31.893-114.404-25.304c-35.963,7.992-73.37,7.992-109.333,0
	c-29.651-6.589-69.259-4.586-114.404,25.304C1.997,199.704,14.674,425.247,181.081,502.26c28.061,12.987,121.776,12.987,149.838,0
	C497.326,425.247,510.003,199.704,425.07,143.473z"/>
<path style="fill:#E54C75;" d="M425.07,143.473c-45.145-29.889-84.753-31.893-114.404-25.304c-0.404,0.09-0.81,0.165-1.214,0.252
	c17.539,3.948,36.568,11.721,56.702,25.051c84.932,56.232,72.256,281.775-94.151,358.787c-9.415,4.357-26.224,7.25-45.461,8.684
	c38.099,2.839,85.73-0.054,104.377-8.684C497.326,425.247,510.003,199.704,425.07,143.473z"/>
<g>
</g>
<g>
</g>
<g>
</g>
<g>
</g>
<g>
</g>
<g>
</g>
<g>
</g>
<g>
</g>
<g>
</g>
<g>
</g>
<g>
</g>
<g>
</g>
<g>
</g>
<g>
</g>
<g>
</g>
</svg>
