<?xml version="1.0" encoding="iso-8859-1"?>
<!-- Generator: Adobe Illustrator 19.0.0, SVG Export Plug-In . SVG Version: 6.00 Build 0)  -->
<svg version="1.1" id="Capa_1" xmlns="http://www.w3.org/2000/svg" xmlns:xlink="http://www.w3.org/1999/xlink" x="0px" y="0px"
	 viewBox="0 0 512 512" style="enable-background:new 0 0 512 512;" xml:space="preserve">
<path style="fill:#49B1FF;" d="M325.805,459.358l-12.115-42.392L256,386.06l-57.69,30.905l-8.829,30.905l144.813,41.207h30.905
	C348.201,489.078,330.472,475.707,325.805,459.358z"/>
<g>
	<path style="fill:#7DC8FF;" d="M334.294,489.078H146.801c16.998,0,34.727-13.372,39.394-29.721l3.286-11.487h102.132l3.286,11.487
		C299.566,475.707,317.296,489.078,334.294,489.078z"/>
	<path style="fill:#7DC8FF;" d="M450.189,277.891v139.074h30.905c16.998,0,30.905-13.907,30.905-30.905v-61.811L450.189,277.891z"/>
</g>
<path style="fill:#BAE2FF;" d="M0,324.249v61.811c0,16.998,13.907,30.905,30.905,30.905h419.284
	c16.998,0,30.905-13.907,30.905-30.905V277.891L0,324.249z"/>
<path style="fill:#08426D;" d="M481.095,15.195H30.905C13.907,15.195,0,29.103,0,46.101v278.149h512V46.101
	C512,29.103,498.093,15.195,481.095,15.195z"/>
<polygon style="fill:#BAE2FF;" points="481.095,293.344 450.189,293.344 408.982,169.722 450.189,46.101 481.095,46.101 "/>
<rect x="30.905" y="46.101" style="fill:#FFFFFF;" width="419.284" height="247.243"/>
<path style="fill:#49B1FF;" d="M431.131,496.805H80.869c-4.268,0-7.726-3.458-7.726-7.726c0-4.268,3.458-7.726,7.726-7.726h350.262
	c4.268,0,7.726,3.458,7.726,7.726C438.857,493.346,435.399,496.805,431.131,496.805z"/>
<circle style="fill:#FFFFFF;" cx="256" cy="370.608" r="15.453"/>
<g>
</g>
<g>
</g>
<g>
</g>
<g>
</g>
<g>
</g>
<g>
</g>
<g>
</g>
<g>
</g>
<g>
</g>
<g>
</g>
<g>
</g>
<g>
</g>
<g>
</g>
<g>
</g>
<g>
</g>
</svg>
