<svg id="Capa_1" enable-background="new 0 0 496.62 496.62" height="512" viewBox="0 0 496.62 496.62" width="512" xmlns="http://www.w3.org/2000/svg"><path d="m496.62 287.94v107.05c0 29.82-24.17 53.99-53.99 53.99h-388.64c-29.82 0-53.99-24.17-53.99-53.99v-107.05z" fill="#a79ba7"/><path d="m442.63 47.64h-231.616c-29.82 0-53.99 24.17-53.99 53.99v206.24c0 29.819 24.168 53.989 53.988 53.99h231.618c29.82 0 53.99-24.17 53.99-53.99v-206.24c0-29.82-24.17-53.99-53.99-53.99z" fill="#cbc4cc"/><path d="m157.024 307.87v-206.24c0-29.82 24.17-53.99 53.99-53.99h-157.024c-29.82 0-53.99 24.17-53.99 53.99v206.24c0 29.82 24.17 53.99 53.99 53.99h157.024c-29.82 0-53.99-24.17-53.99-53.99z" fill="#b5adb6"/><g fill="#918291"><path d="m368.859 418.857h-240.098c-7.667 0-13.882-6.215-13.882-13.882 0-7.667 6.215-13.882 13.882-13.882h240.097c7.667 0 13.882 6.215 13.882 13.882 0 7.667-6.215 13.882-13.881 13.882z"/><path d="m70.447 416.857h-10.335c-7.667 0-13.882-6.215-13.882-13.882 0-7.667 6.215-13.882 13.882-13.882h10.335c7.667 0 13.882 6.215 13.882 13.882 0 7.667-6.215 13.882-13.882 13.882z"/><path d="m427.173 416.857h10.335c7.667 0 13.882-6.215 13.882-13.882 0-7.667-6.215-13.882-13.882-13.882h-10.335c-7.667 0-13.882 6.215-13.882 13.882 0 7.667 6.215 13.882 13.882 13.882z"/></g></svg>