<svg height="512" viewBox="0 0 512 512" width="512" xmlns="http://www.w3.org/2000/svg"><g id="flat"><path d="m304 328v16l-17.039 25.558 9.039 14.442 40-24-8-24z" fill="#b26643"/><path d="m24 488v-464h80l88 160v24l56 64 16 64 104 152z" fill="#8f6934"/><path d="m368 488h-344v-464h80l88 160v24l56 64 16 64z" fill="#8f6934"/><path d="m407.406 328h-.689a31.648 31.648 0 0 1 -28.462-17.594l-17.411-34.829a8 8 0 0 1 14.312-7.154l17.41 34.828a15.735 15.735 0 0 0 14.151 8.749h.689a17.055 17.055 0 0 0 15.317-24.667l-6.692-13.383a17.9 17.9 0 0 0 -16.1-9.95h-11.931a8 8 0 0 1 0-16h11.931a33.815 33.815 0 0 1 30.411 18.8l6.691 13.383a33.055 33.055 0 0 1 -29.627 47.817z" fill="#715329"/><path d="m352 464 8 8 24-8 16-32-16-24-24 16v24z" fill="#bf6d48"/><path d="m296 72-16 16 5.71 5.71-9.71 14.29 12 12v24l32-16v-16l16-16z" fill="#e6ccb4"/><path d="m320 128 11.109 3.7a24 24 0 0 1 15.839 17.562l13.052 58.738-56 16-24-40 8-24v-16z" fill="#ee5e5b"/><path d="m256 112-40-8-48-16-32-8v32h24l47.501 24 52.499 8.98z" fill="#e6ccb4"/><path d="m256 112 32 8v24 16l-32-8z" fill="#ee5e5b"/><path d="m288 120v40l-5.19-1.3v-40z" fill="#ee5e5b"/><path d="m248 287.638v1.343a34 34 0 0 0 21.373 31.568l58.627 23.451-9.97-45.99-30.03-10.01 24-24-8-40-44.127 37.823a34 34 0 0 0 -11.873 25.815z" fill="#026ca2"/><path d="m304 224 16 104 40 96 32-16-32-96 16-72-16-32z" fill="#0296e5"/><path d="m334.466 228.933 9.534 19.067 4.857 19.428a12 12 0 0 0 15.437 8.474l25.164-8.388a12 12 0 0 0 7.847-14.3l-10.3-41.183a12 12 0 0 0 -14.938-8.628l-30.168 8.62a12 12 0 0 0 -7.433 16.91z" fill="#5f967c"/><path d="m389.46 267.51-25.17 8.39a11.991 11.991 0 0 1 -15.43-8.47l-4.86-19.43 48-16 5.3 21.22a11.981 11.981 0 0 1 -7.84 14.29z" fill="#5f967c"/><path d="m389.46 267.51-25.17 8.39a11.991 11.991 0 0 1 -15.43-8.47l-4.86-19.43 48-16 5.3 21.22a11.981 11.981 0 0 1 -7.84 14.29z" fill="#55876f"/><path d="m168.008 240a8 8 0 0 1 -6.868-3.885l-9.6-16a8 8 0 0 1 13.72-8.232l9.6 16a8 8 0 0 1 -6.852 12.117z" fill="#715329"/><path d="m144.008 200a8 8 0 0 1 -6.868-3.885l-21.669-36.115h-19.471a8 8 0 0 1 -7.155-4.422l-40-80a8 8 0 1 1 14.31-7.156l37.789 75.578h19.056a8 8 0 0 1 6.86 3.884l24 40a8 8 0 0 1 -6.852 12.116z" fill="#715329"/><path d="m304.007 460.445a7.991 7.991 0 0 1 -6.585-3.445l-62.482-90.254-21.47-7.157a8.006 8.006 0 0 1 -4.33-3.473l-14.4-24a8 8 0 1 1 13.72-8.232l12.877 21.462 21.193 7.065a8 8 0 0 1 4.048 3.035l64 92.445a8 8 0 0 1 -6.571 12.554z" fill="#715329"/><path d="m184.008 306.667a8 8 0 0 1 -6.868-3.884l-16-26.667a8 8 0 1 1 13.72-8.232l16 26.666a8 8 0 0 1 -6.852 12.117z" fill="#715329"/><path d="m320 176h32a8 8 0 0 1 0 16h-40z" fill="#dcb93f"/><path d="m160.005 416a7.988 7.988 0 0 1 -6.32-3.088l-8-10.286a8 8 0 1 1 12.63-9.823l8 10.285a8 8 0 0 1 -6.31 12.912z" fill="#715329"/><path d="m128.894 376a7.987 7.987 0 0 1 -6.32-3.088l-24.889-32a8 8 0 0 1 -1.53-6.481l7.363-36.813-29.293-45.272a8 8 0 1 1 13.433-8.692l31.059 48a8 8 0 0 1 1.128 5.915l-7.283 36.41 22.638 29.109a8 8 0 0 1 -6.306 12.912z" fill="#715329"/><path d="m68.35 228.54a8.011 8.011 0 0 1 -11.07-2.38l-33.28-51.43v-29.46l46.72 72.2a8.01 8.01 0 0 1 -2.37 11.07z" fill="#715329"/><path d="m226.25 488h-20.5l-25.97-32.46-60.77-7.6a8.038 8.038 0 0 1 -5.26-2.94l-32-40a8 8 0 1 1 12.5-10l29.97 37.46 60.77 7.6a8.038 8.038 0 0 1 5.26 2.94z" fill="#715329"/><path d="m454.634 128a23.946 23.946 0 0 0 1.366-8 24.009 24.009 0 0 0 -17.031-22.969 24 24 0 0 0 -45.938 0 24.023 24.023 0 0 0 -17.031 22.969 23.946 23.946 0 0 0 1.366 8z" fill="#2fbbdf"/><path d="m486.634 176a23.946 23.946 0 0 0 1.366-8 24.009 24.009 0 0 0 -17.031-22.969 24 24 0 0 0 -45.938 0 24.023 24.023 0 0 0 -17.031 22.969 23.946 23.946 0 0 0 1.366 8z" fill="#2fbbdf"/><g fill="#b0d2fd"><path d="m192 64h-16a8 8 0 0 1 0-16h16a8 8 0 0 1 0 16z"/><path d="m240 32h-32a8 8 0 0 1 0-16h32a8 8 0 0 1 0 16z"/><path d="m440 232h-16a8 8 0 0 1 0-16h16a8 8 0 0 1 0 16z"/><path d="m488 264h-40a8 8 0 0 1 0-16h40a8 8 0 0 1 0 16z"/><path d="m176 32h-16a8 8 0 0 1 0-16h16a8 8 0 0 1 0 16z"/><path d="m488 232h-16a8 8 0 0 1 0-16h16a8 8 0 0 1 0 16z"/></g><path d="m312 183.824a7.963 7.963 0 0 1 .411-2.354l8-24a8 8 0 1 1 15.178 5.06l-7.156 21.47z" fill="#e82f3e"/><path d="m320 184-12.791 25.582a20 20 0 0 1 -9.766 9.332l-65.443 29.086h-32v-24l16-8h16l48-32z" fill="#e6ccb4"/><path d="m288 120v40l-5.19-1.3v-40z" fill="#e82f3e"/><path d="m354.809 69.619-.434-.868a19.984 19.984 0 0 0 -6.794-7.7l-12.527-8.351a28 28 0 0 0 -15.532-4.7h-.537a28 28 0 0 0 -23.3 12.468l-3.48 4.733c-.2-.126-.412-.247-.63-.356l-16-8a8 8 0 0 0 -7.156 14.31l16 8a7.948 7.948 0 0 0 1.457.547l54.124 30.298 13.56-20.343a20 20 0 0 0 1.249-20.038z" fill="#e82f3e"/></g></svg>