<svg height="512pt" viewBox="-37 0 512 512" width="512pt" xmlns="http://www.w3.org/2000/svg"><path d="m199.109375 438.734375c-15.195313-1.273437-27.28125-12.195313-30.707031-26.234375-9.726563 10.703125-25.566406 14.523438-39.523438 8.375-13.953125-6.152344-21.8125-20.410156-20.480468-34.796875-12.667969 6.941406-28.859376 5.410156-40.054688-4.925781-11.199219-10.339844-14.011719-26.363282-8.097656-39.542969-14.226563 2.488281-29.078125-4.207031-36.324219-17.617187-7.265625-13.425782-4.71875-29.519532 5.171875-40.074219-14.285156-2.292969-26.152344-13.457031-28.632812-28.527344-2.46875-15.027344 5.15625-29.394531 17.914062-36.148437-12.75-6.78125-20.339844-21.15625-17.832031-36.183594 2.507812-15.058594 14.382812-26.207032 28.671875-28.46875-9.863282-10.574219-12.371094-26.667969-5.085938-40.074219 7.277344-13.402344 22.117188-20.054687 36.34375-17.546875-5.882812-13.191406-3.039062-29.207031 8.175782-39.515625 11.226562-10.328125 27.429687-11.816406 40.089843-4.835937-1.3125-14.40625 6.574219-28.65625 20.535157-34.785157 13.980468-6.125 29.820312-2.261719 39.523437 8.46875 3.457031-14.039062 15.5625-24.949219 30.765625-26.183593 15.175781-1.234376 28.863281 7.535156 34.558594 20.792968 7.808594-12.152344 22.777344-18.550781 37.550781-14.816406 14.796875 3.742188 24.929687 16.507812 26.007813 30.933594 11.34375-8.957032 27.585937-10.132813 40.351562-1.777344 12.746094 8.351562 18.15625 23.695312 14.503906 37.667969 13.625-4.789063 29.355469-.652344 38.714844 11.363281 9.378906 12.035156 9.539062 28.316406 1.539062 40.363281 14.464844-.128906 28.03125 8.90625 32.980469 23.34375 4.957031 14.445313-.199219 29.894531-11.691406 38.683594 13.695313 4.589844 23.566406 17.527344 23.566406 32.769531v.199219.277344c-.039062 15.234375-9.921875 28.148437-23.617187 32.710937 11.464844 8.804688 16.578125 24.277344 11.601562 38.695313-4.984375 14.421875-18.5625 23.429687-33.027344 23.28125 7.96875 12.054687 7.773438 28.335937-1.617187 40.34375-9.390625 12.003906-25.140625 16.113281-38.746094 11.292969 3.625 13.980468-1.816406 29.316406-14.582031 37.640624-12.785156 8.332032-29.027344 7.128907-40.363281-1.867187-1.097657 14.425781-11.257813 27.183594-26.054688 30.894531-14.792969 3.703125-29.75-2.726562-37.53125-14.898437-5.351562 12.390625-17.695312 20.839843-31.683593 20.839843-.96875 0-1.9375-.039062-2.914063-.117187zm0 0" fill="#70d65b"/><path d="m199.4375 17.832031c5.871094-2.566406 11.730469-3.800781 17.050781-3.800781 7.367188 0 13.722657 2.375 17.640625 6.882812-5.34375-12.425781-17.695312-20.914062-31.726562-20.914062-.9375 0-1.886719.0429688-2.839844.117188-7.597656.609374-14.429688 3.652343-19.78125 8.296874-5.363281 4.632813-9.25 10.875-10.980469 17.894532-6.566406-7.273438-15.953125-11.390625-25.675781-11.390625-4.625 0-9.332031.9375-13.851562 2.914062-12.941407 5.6875-20.679688 18.347657-20.679688 31.660157 0 1.035156.050781 2.078124.148438 3.125-5.171876-2.851563-10.9375-4.285157-16.703126-4.285157-8.359374 0-16.742187 3.007813-23.382812 9.121094-7.410156 6.808594-11.167969 16.109375-11.167969 25.441406 0 4.792969.992188 9.597657 2.984375 14.074219-1.984375-.351562-3.96875-.519531-5.953125-.519531-12.257812 0-24.121093 6.535156-30.382812 18.0625-2.851563 5.25-4.203125 10.894531-4.203125 16.46875 0 8.691406 3.273437 17.167969 9.28125 23.605469-7.136719 1.140624-13.683594 4.488281-18.75 9.441406-5.066406 4.949218-8.667969 11.503906-9.921875 19.03125-.316407 1.921875-.4765628 3.835937-.4765628 5.722656 0 12.859375 7.1874998 24.546875 18.3046878 30.457031-11.136719 5.902344-18.36718775 17.621094-18.36718775 30.5 0 1.871094.14843775 3.75.46484375 5.648438 1.234375 7.539062 4.824219 14.09375 9.890625 19.054687 5.058594 4.964844 11.59375 8.332032 18.738281 9.472656-6.039062 6.449219-9.34375 14.957032-9.34375 23.667969 0 5.550781 1.34375 11.191407 4.171875 16.414063 6.238281 11.550781 18.136719 18.128906 30.414063 18.128906 1.964844 0 3.949218-.167969 5.914062-.519531-2.019531 4.5-3.019531 9.335937-3.019531 14.148437 0 9.3125 3.734375 18.589844 11.117187 25.398438 6.640626 6.136718 15.042969 9.164062 23.425782 9.164062 5.742187 0 11.472656-1.425781 16.625-4.242187-.09375 1.054687-.148438 2.109375-.148438 3.15625 0 13.28125 7.699219 25.949219 20.628906 31.640625 4.53125 1.992187 9.269532 2.945312 13.925782 2.945312 9.671875 0 19.023437-4.085937 25.601562-11.316406 3.421875 14.039062 15.507813 24.964844 30.699219 26.234375.984375.082031 1.953125.113281 2.914063.113281 7 0 13.578124-2.109375 19.085937-5.773437 1.921875-1.289063 3.71875-2.753907 5.355469-4.390625-2.683594.738281-5.511719 1.085937-8.40625 1.085937-6.238282 0-12.816406-1.59375-19.011719-4.328125-12.933594-5.699218-20.628906-22.285156-20.628906-36.136718 0-1.097657.054687-2.175782.148437-3.230469-5.152344 2.816406-10.882812 4.242187-16.628906 4.242187-8.382812 0-16.785156-3.027344-23.425781-9.164062-7.378907-6.808594-11.117188-16.085938-11.117188-25.398438 0-4.8125 1.003907-9.648437 3.019531-14.148437-1.960937.351562-3.949218.519531-5.910156.519531-12.277344 0-24.164062-6.578125-30.414062-18.128906-2.832032-5.222656-4.171875-10.863282-4.171875-16.414063 0-8.710937 3.304687-17.21875 9.34375-23.667969-7.148438-1.140624-13.683594-4.507812-18.738281-9.472656-5.070313-4.960937-8.65625-11.515625-9.894532-19.054687-.316406-1.898438-.464844-3.777344-.464844-5.648438 0-12.878906 7.234376-24.597656 18.382813-30.5-11.117187-5.910156-18.316406-17.597656-18.316406-30.457031 0-1.886719.15625-3.800781.472656-5.722656 1.257813-7.527344 4.855469-14.082032 9.925781-19.03125 5.066406-4.953125 11.613282-8.300782 18.75-9.441406-6.007812-6.425782-9.28125-14.914063-9.28125-23.59375 0-5.574219 1.351563-11.230469 4.203125-16.480469 6.257813-11.527344 18.125-18.0625 30.382813-18.0625 1.984375 0 3.96875.167969 5.953125.519531-1.996094-4.476562-2.988281-9.28125-2.988281-14.074219 0-9.332031 3.757812-18.632812 11.171874-25.441406 6.640626-6.113281 15.019532-9.121094 23.382813-9.121094 5.761719 0 11.527344 1.433594 16.699219 4.285157-.09375-1.035157-.136719-2.082032-.136719-3.113282 0-13.304687 7.71875-25.984375 20.671875-31.671875zm0 0" fill="#58b741"/><path d="m324.796875 512h-211.957031c42.304687 0 57.484375-36 57.484375-48.382812v-100.96875c3.640625 2.226562 7.769531 3.808593 12.234375 4.558593.972656.160157 1.933594.277344 2.894531.359375.96875.085938 1.929687.128906 2.890625.128906 12.828125 0 24.503906-7.167968 30.425781-18.246093 5.890625 11.191406 17.632813 18.445312 30.554688 18.445312 1.847656 0 3.714843-.148437 5.59375-.453125 4.53125-.738281 8.710937-2.324218 12.394531-4.582031v100.757813c0 12.382812 15.179688 48.382812 57.484375 48.382812zm0 0" fill="#ad7136"/><path d="m188.347656 367.695312c4.53125 0 8.933594-.898437 12.976563-2.542968v98.464844c0 12.382812-5.480469 48.382812-20.746094 48.382812h-67.734375c42.300781 0 57.484375-36 57.484375-48.382812v-100.96875c3.640625 2.226562 7.769531 3.8125 12.234375 4.5625.972656.15625 1.933594.273437 2.894531.355468.96875.085938 1.929688.128906 2.890625.128906zm0 0" fill="#8c531f"/><path d="m330.867188 192.421875c-4.371094 0-7.917969-3.546875-7.917969-7.917969 0-11.054687-6.695313-20.699218-10.652344-24.65625-3.089844-3.09375-3.089844-8.105468 0-11.195312 3.09375-3.09375 8.105469-3.09375 11.199219 0 7.054687 7.050781 15.289062 20.675781 15.289062 35.851562 0 4.371094-3.542968 7.917969-7.917968 7.917969zm0 0" fill="#ad7136"/><path d="m344.957031 248.21875c-2.722656 1.265625-5.527343.460938-8.152343-1.347656-1.671876-1.148438-3.582032-1.765625-5.511719-1.84375-.070313 0-.144531-.003906-.214844-.003906-2.140625-.046876-4.292969.570312-6.148437 1.847656-2.625 1.808594-5.429688 2.613281-8.152344 1.347656-33.71875-15.675781-34.183594-58.332031-20.609375-69.101562 3.691406-2.929688 7.464843-3.867188 11.128906-3.675782 6.683594.347656 13.011719 4.441406 17.867187 7.003906 2.257813 1.195313 4.195313 2.058594 5.703126 2.058594 6.523437 0 21.132812-16.15625 34.703124-5.386718 13.570313 10.769531 13.109376 53.425781-20.613281 69.101562zm0 0" fill="#ff3b6a"/><path d="m331.078125 245.023438c-2.140625-.046876-4.292969.570312-6.148437 1.847656-2.625 1.808594-5.429688 2.613281-8.152344 1.347656-33.71875-15.675781-34.183594-58.332031-20.609375-69.101562 3.691406-2.929688 7.464843-3.867188 11.128906-3.675782 6.683594.347656 13.011719 4.441406 17.867187 7.003906-34.25 0-8.644531 61.960938 5.914063 62.578126zm0 0" fill="#e21e56"/><path d="m135.890625 111.703125c-4.371094 0-7.917969-3.542969-7.917969-7.917969 0-15.011718 8.148438-28.488281 15.128906-35.46875 3.089844-3.089844 8.105469-3.089844 11.195313 0 3.09375 3.09375 3.09375 8.105469 0 11.199219-3.894531 3.894531-10.488281 13.390625-10.488281 24.269531 0 4.375-3.542969 7.917969-7.917969 7.917969zm0 0" fill="#ad7136"/><path d="m149.804688 166.695312c-2.6875 1.25-5.460938.457032-8.050782-1.328124-1.652344-1.136719-3.535156-1.742188-5.441406-1.820313-.070312 0-.144531-.003906-.214844-.003906-2.113281-.046875-4.234375.5625-6.066406 1.824219-2.59375 1.785156-5.363281 2.578124-8.050781 1.328124-33.292969-15.476562-33.75-57.59375-20.351563-68.226562 3.648438-2.894531 7.375-3.816406 10.992188-3.628906 6.597656.34375 12.847656 4.382812 17.640625 6.917968 2.230469 1.179688 4.144531 2.03125 5.632812 2.03125 6.441407 0 20.863281-15.949218 34.261719-5.316406 13.398438 10.628906 12.941406 52.746094-20.351562 68.222656zm0 0" fill="#ff3b6a"/><path d="m136.097656 163.539062c-2.113281-.042968-4.234375.566407-6.066406 1.828126-2.59375 1.785156-5.363281 2.578124-8.050781 1.328124-33.292969-15.476562-33.75-57.59375-20.351563-68.226562 3.648438-2.894531 7.375-3.820312 10.992188-3.628906 6.597656.34375 12.847656 4.382812 17.640625 6.914062-33.820313.003906-8.535157 61.179688 5.835937 61.785156zm0 0" fill="#e21e56"/><path d="m187.484375 267.988281c-4.375 0-7.917969-3.546875-7.917969-7.917969 0-15.015624 8.148438-28.492187 15.125-35.46875 3.09375-3.09375 8.105469-3.09375 11.199219 0 3.089844 3.089844 3.089844 8.105469 0 11.195313-3.898437 3.894531-10.488281 13.390625-10.488281 24.273437 0 4.371094-3.546875 7.917969-7.917969 7.917969zm0 0" fill="#ad7136"/><path d="m201.394531 317.699219c-2.6875 1.25-5.457031.457031-8.050781-1.328125-1.648438-1.132813-3.535156-1.742188-5.4375-1.820313-.070312 0-.144531 0-.214844-.003906-2.117187-.046875-4.238281.5625-6.070312 1.824219-2.589844 1.785156-5.359375 2.578125-8.046875 1.328125-33.296875-15.472657-33.75-57.59375-20.351563-68.222657 3.648438-2.898437 7.371094-3.820312 10.988282-3.632812 6.601562.34375 12.847656 4.386719 17.640624 6.917969h.003907c2.226562 1.179687 4.140625 2.03125 5.628906 2.03125 6.441406 0 20.867187-15.949219 34.265625-5.316407 13.394531 10.628907 12.941406 52.75-20.355469 68.222657zm0 0" fill="#ff3b6a"/><path d="m187.691406 314.546875c-2.117187-.046875-4.238281.5625-6.070312 1.824219-2.589844 1.785156-5.359375 2.578125-8.046875 1.328125-33.296875-15.476563-33.75-57.59375-20.351563-68.226563 3.648438-2.894531 7.371094-3.816406 10.988282-3.628906 6.601562.34375 12.847656 4.382812 17.640624 6.917969-33.820312 0-8.535156 61.175781 5.839844 61.785156zm0 0" fill="#e21e56"/></svg>