<svg height="472pt" viewBox="-3 0 471 472" width="472pt" xmlns="http://www.w3.org/2000/svg"><path d="m16.5 0h432c8.835938 0 16 7.164062 16 16v296h-464v-296c0-8.835938 7.164062-16 16-16zm0 0" fill="#75c1ff"/><path d="m.5 312h464v64c0 8.835938-7.164062 16-16 16h-432c-8.835938 0-16-7.164062-16-16zm0 0" fill="#efefef"/><path d="m176.5 392h112v72h-112zm0 0" fill="#bcbcbc"/><path d="m248.5 352c0 8.835938-7.164062 16-16 16s-16-7.164062-16-16 7.164062-16 16-16 16 7.164062 16 16zm0 0" fill="#bcbcbc"/><path d="m112.5 456h240v16h-240zm0 0" fill="#efefef"/></svg>