<svg id="Capa_1" enable-background="new 0 0 497 497" height="512" viewBox="0 0 497 497" width="512" xmlns="http://www.w3.org/2000/svg"><g><path d="m490.761 145.536c-7.112-1.288-13.593-4.385-18.955-8.795-1.405-1.156-3.106-1.737-4.806-1.74l-30 113.399v105.1l60-111.5v-89.135c0-3.642-2.654-6.68-6.239-7.329z" fill="#26abff"/><path d="m462.218 136.722c-7.188 5.921-16.392 9.481-26.432 9.481-10.008 0-19.187-3.537-26.364-9.425-2.838-2.328-6.863-2.328-9.701 0-7.177 5.888-16.355 9.425-26.364 9.425-10.008 0-19.186-3.537-26.363-9.425-2.838-2.328-6.863-2.329-9.701 0-7.177 5.888-16.355 9.425-26.364 9.425s-19.187-3.537-26.364-9.425c-2.838-2.328-6.863-2.328-9.701 0-7.177 5.888-16.355 9.425-26.364 9.425s-19.187-3.537-26.364-9.425c-2.838-2.328-6.863-2.328-9.701 0-7.177 5.888-16.355 9.425-26.364 9.425s-19.186-3.537-26.364-9.425c-2.838-2.328-6.863-2.328-9.701 0-7.177 5.888-16.355 9.425-26.363 9.425s-19.187-3.537-26.364-9.425c-2.838-2.328-6.863-2.328-9.701 0-7.177 5.888-16.355 9.425-26.364 9.425-10.04 0-19.244-3.56-26.432-9.481-2.803-2.309-6.785-2.288-9.589.019-5.395 4.438-11.924 7.547-19.089 8.819-3.547.631-6.104 3.762-6.104 7.366v29.074l467 171.5v-218.499c-1.692-.002-3.384.569-4.782 1.721z" fill="#30caf3"/><path d="m467 242-15 60 45-30v-30z" fill="#30caf3"/><path d="m373.357 242c-8.284 0-15-6.716-15-15s6.716-15 15-15 15-6.716 15-15-6.716-15-15-15h-373.357v150l123.643 45h343.357v-135z" fill="#3ae8e6"/><path d="m407 392 90-90v-30h-30z" fill="#3ae8e6"/><path d="m108.643 287c0 8.284 6.716 15 15 15s15 6.716 15 15-6.716 15-15 15h-123.643v105l467 30v-195h-343.357c-8.284 0-15 6.716-15 15z" fill="#7cf0ee"/><path d="m467 302.699-45 96.801 45 97.5h22.5c4.142 0 7.5-3.358 7.5-7.5v-187.5c-10.428 0-20.41.243-30 .699z" fill="#f9b992"/><path d="m0 437v52.5c0 4.142 3.358 7.5 7.5 7.5h459.5v-194.301c-218.928 10.4-228.928 134.301-467 134.301z" fill="#fcd9af"/><path d="m248.5 0v90c24.853 0 45-20.147 45-45s-20.147-45-45-45z" fill="#f8a351"/><path d="m263.5 45c0-24.853-6.716-45-15-45-24.853 0-45 20.147-45 45s20.147 45 45 45c8.284 0 15-20.147 15-45z" fill="#fcca5c"/><circle cx="437" cy="467" fill="#f9b992" r="7.5"/><circle cx="30" cy="467" fill="#f9b992" r="7.5"/><circle cx="467" cy="437" fill="#f79876" r="7.5"/><path d="m404.572 37.5c-2.152 0-4.201-.924-5.625-2.539-6.239-7.072-15.202-11.283-24.591-11.552-4.14-.119-7.4-3.572-7.282-7.712.119-4.14 3.533-7.396 7.712-7.282 10.91.313 21.417 4.316 29.784 11.193 8.367-6.878 18.875-10.88 29.786-11.193 4.175-.095 7.593 3.143 7.712 7.282.119 4.141-3.142 7.593-7.282 7.712-9.389.269-18.352 4.479-24.59 11.552-1.423 1.614-3.472 2.539-5.624 2.539z" fill="#302c4c"/><path d="m92.429 81.588c-2.152 0-4.201-.924-5.625-2.539-6.239-7.072-15.202-11.283-24.591-11.552-4.14-.119-7.4-3.572-7.282-7.712.119-4.14 3.526-7.404 7.712-7.282 10.91.313 21.417 4.316 29.785 11.193 8.367-6.877 18.874-10.88 29.785-11.193 4.148-.114 7.594 3.141 7.712 7.282s-3.142 7.593-7.282 7.712c-9.389.269-18.353 4.48-24.591 11.552-1.422 1.614-3.471 2.539-5.623 2.539z" fill="#504b83"/></g></svg>