<svg id="Capa_1" enable-background="new 0 0 497 497" height="512" viewBox="0 0 497 497" width="512" xmlns="http://www.w3.org/2000/svg"><g><path d="m309.18 433.03-9.32-37.28-51.36-45-51.36 45-7.5 30-1.82 7.28c-.019.075-.046.146-.065.22l90.525 30h60v-7.5c-13.77 0-25.77-9.37-29.1-22.72z" fill="#b0d0ff"/><path d="m279.245 433.25h-91.49c-3.408 13.231-15.342 22.5-29.035 22.5v7.5h149.56v-7.5c-13.693 0-25.627-9.269-29.035-22.5z" fill="#c4e3fa"/><path d="m392 470.75h-287c-4.143 0-7.5-3.358-7.5-7.5s3.357-7.5 7.5-7.5h287c4.143 0 7.5 3.358 7.5 7.5s-3.357 7.5-7.5 7.5z" fill="#b0d0ff"/><path d="m437 403.25h30c16.5 0 30-13.5 30-30v-30l-60-45z" fill="#c4e3fa"/><path d="m0 343.25v30c0 16.5 13.5 30 30 30h407c16.5 0 30-13.5 30-30v-165z" fill="#e3f5ff"/><path d="m467 26.25h-30v287l30 30h30v-287c0-16.5-13.5-30-30-30z" fill="#384f63"/><path d="m466.999 313.238-233.499-128.494 233.5-128.494c0-16.5-13.5-30-30-30h-407c-16.5 0-30 13.5-30 30v287h467z" fill="#506480"/><path d="m467 56.275-29.994-.025c-.001.007-203.506 128.5-203.506 128.5s203.502 128.497 203.5 128.5h29.999c.001 0-.002-256.97.001-256.975z" fill="#738cff"/><path d="m437 56.277h-406.912l-.088 256.973h406.99c.005 0 .01-256.973.01-256.973z" fill="#8fafff"/><path d="m113.5 238.25h45v45h-45z" fill="#fff7cc"/><path d="m188.5 238.25h45v45h-45z" fill="#ffd45e"/><path d="m263.5 238.25h45v45h-45z" fill="#ff7d4a"/><path d="m338.5 238.25h45v45h-45z" fill="#5e70f2"/></g></svg>