<svg height="512" viewBox="0 0 64 64" width="512" xmlns="http://www.w3.org/2000/svg"><g id="Layer_7" data-name="Layer 7"><path d="m53 18v16a5 5 0 0 1 -10 0v-5h-2v5a7.006 7.006 0 0 0 6 6.92v11.08a2 2 0 0 1 -2 2h-5v2h5a4 4 0 0 0 4-4v-11.08a7.006 7.006 0 0 0 6-6.92v-16z" fill="#ccc"/><rect fill="#939393" height="10" rx="2" width="4" x="56" y="4"/><path d="m59 10v-5.723a1.988 1.988 0 0 0 -3 1.723v6h1a2 2 0 0 0 2-2z" fill="#ccc"/><rect fill="#686868" height="60" rx="4" width="32" x="4" y="2"/><path d="m8 6h24v26h-24z" fill="#ccc"/><path d="m8 6v23h17a4 4 0 0 0 4-4v-19z" fill="#f2f2f2"/><rect fill="#fff" height="16" rx="3" width="14" x="11" y="9"/><path d="m54 7a2 2 0 0 0 -2 2v8a2 2 0 0 0 4 0v-10z" fill="#939393"/><path d="m36 53h4v4h-4z" fill="#939393"/><path d="m25.525 10.149a1 1 0 0 0 -.972-.044l-8 4a1 1 0 0 0 -.553.895v7.184a2.966 2.966 0 0 0 -1-.184 3 3 0 1 0 3 3v-4.382l6-3v2.566a2.966 2.966 0 0 0 -1-.184 3 3 0 1 0 3 3v-12a1 1 0 0 0 -.475-.851zm-10.525 15.851a1 1 0 1 1 1-1 1 1 0 0 1 -1 1zm3-7.618v-2.764l6-3v2.764zm5 5.618a1 1 0 1 1 1-1 1 1 0 0 1 -1 1z" fill="#3079e6"/><circle cx="20" cy="49" fill="#939393" r="9"/><path d="m7 35h2v2h-2z" fill="#939393"/><path d="m11 35h2v2h-2z" fill="#939393"/><path d="m31 35h2v2h-2z" fill="#939393"/><path d="m27 35h2v2h-2z" fill="#939393"/><circle cx="20" cy="49" fill="#686868" r="5"/><g fill="#ccc"><path d="m19 53.9v4.042a8.5 8.5 0 0 0 2 0v-4.042a5 5 0 0 1 -2 0z"/><path d="m11.059 48a8.5 8.5 0 0 0 0 2h4.041a5 5 0 0 1 0-2z"/><path d="m20 40a8.935 8.935 0 0 0 -1 .059v4.041a5 5 0 0 1 2 0v-4.041a8.935 8.935 0 0 0 -1-.059z"/><path d="m25 49a4.988 4.988 0 0 1 -.1 1h4.042a8.5 8.5 0 0 0 0-2h-4.042a4.988 4.988 0 0 1 .1 1z"/><path d="m54 15v-8a2 2 0 0 0 -2 2v8a2 2 0 0 0 2-2z"/></g><rect fill="#939393" height="10" rx="2" width="4" x="44" y="15"/><path d="m47 21v-5.723a1.988 1.988 0 0 0 -3 1.723v6h1a2 2 0 0 0 2-2z" fill="#ccc"/><path d="m42 18a2 2 0 0 0 -2 2v8a2 2 0 0 0 4 0v-10z" fill="#939393"/><path d="m42 26v-8a2 2 0 0 0 -2 2v8a2 2 0 0 0 2-2z" fill="#ccc"/></g></svg>