<svg enable-background="new 0 0 24 24" height="512" viewBox="0 0 24 24" width="512" xmlns="http://www.w3.org/2000/svg"><path d="m21.25 0h-18.5c-1.517 0-2.75 1.233-2.75 2.75v18.5c0 1.517 1.233 2.75 2.75 2.75h18.5c1.517 0 2.75-1.233 2.75-2.75v-18.5c0-1.517-1.233-2.75-2.75-2.75z" fill="#eceff1"/><path d="m12 0h-9.25c-1.517 0-2.75 1.233-2.75 2.75v18.5c0 1.517 1.233 2.75 2.75 2.75h9.25z" fill="#cdd0d2"/><path d="m17.595 14.189h-1.459v-4.378h1.459c1.877 0 3.405-1.528 3.405-3.406 0-1.877-1.528-3.405-3.405-3.405-1.878 0-3.405 1.528-3.405 3.405v1.459h-4.379v-1.459c0-1.877-1.528-3.405-3.406-3.405-1.877 0-3.405 1.528-3.405 3.405 0 1.878 1.528 3.406 3.405 3.406h1.459v4.378h-1.459c-1.877 0-3.405 1.528-3.405 3.406 0 1.877 1.528 3.405 3.405 3.405 1.878 0 3.405-1.528 3.405-3.405v-1.459h4.379v1.459c0 1.877 1.527 3.405 3.405 3.405s3.406-1.528 3.406-3.405c0-1.878-1.528-3.406-3.405-3.406zm-1.46-7.784c0-.805.655-1.459 1.459-1.459s1.459.655 1.459 1.459c0 .805-.655 1.459-1.459 1.459h-1.459zm-8.27 11.19c0 .805-.655 1.459-1.459 1.459-.805 0-1.459-.655-1.459-1.459 0-.805.655-1.459 1.459-1.459h1.459zm0-9.73h-1.46c-.805 0-1.459-.654-1.459-1.459s.655-1.459 1.459-1.459c.805 0 1.459.655 1.459 1.459v1.459zm6.324 6.324h-4.378v-4.378h4.379v4.378zm3.406 4.865c-.805 0-1.459-.655-1.459-1.459v-1.459h1.459c.805 0 1.459.655 1.459 1.459s-.655 1.459-1.459 1.459z" fill="#607d8b"/><path d="m6.405 19.054c-.805 0-1.459-.655-1.459-1.459 0-.805.655-1.459 1.459-1.459h1.459v1.459c.001.804-.654 1.459-1.459 1.459zm0-11.189c-.805 0-1.459-.654-1.459-1.459s.655-1.459 1.459-1.459c.805 0 1.459.655 1.459 1.459v1.459zm0-4.865c-1.877 0-3.405 1.528-3.405 3.405 0 1.878 1.528 3.406 3.405 3.406h1.459v4.378h-1.459c-1.877 0-3.405 1.528-3.405 3.406 0 1.877 1.528 3.405 3.405 3.405 1.878 0 3.405-1.528 3.405-3.405v-1.459h2.19v-1.946h-2.189v-4.379h2.189v-1.946h-2.189v-1.46c0-1.877-1.528-3.405-3.406-3.405z" fill="#546d79"/></svg>