<svg id="Capa_1" enable-background="new 0 0 497 497" height="512" viewBox="0 0 497 497" width="512" xmlns="http://www.w3.org/2000/svg"><g><g><path d="m324.68 0c-42.073 0-76.18 34.107-76.18 76.18v25.688h23.82c42.073 0 76.18-34.107 76.18-76.18v-1.868c0-13.155-10.664-23.82-23.82-23.82z" fill="#00ce8e"/><path d="m289.101 61.267c-2.929-2.928-7.678-2.928-10.606 0l-23.582 23.583c-8.972 8.971-13.913 20.9-13.913 33.587v8.045h15v-8.045c0-8.681 3.381-16.842 9.519-22.98l23.582-23.582c2.929-2.931 2.929-7.679 0-10.608z" fill="#00b27a"/></g><g><path d="m324.033 118.955c-26.332-3.427-51.75-.624-75.533 7.527-16.899-5.792-35.006-8.978-53.869-8.978-91.774 0-166.172 74.397-166.172 166.173s74.398 213.323 166.172 213.323h107.738c91.016 0 166.172-120.921 166.172-213.324 0-84.426-62.977-154.096-144.508-164.721z" fill="#ff7b94"/><path d="m179.525 283.676c0-55.477 27.194-127.026 68.975-157.194-16.899-5.792-35.006-8.978-53.869-8.978-91.774 0-166.172 74.397-166.172 166.173s74.398 213.323 166.172 213.323h107.738c7.348 0 14.568-.528 21.664-1.452-81.53-10.624-144.508-127.446-144.508-211.872z" fill="#ea5b70"/></g><g><g><g><ellipse cx="168.943" cy="254.063" fill="#ffb5c0" rx="29.355" ry="23.377"/></g><g><ellipse cx="328.057" cy="254.063" fill="#ffb5c0" rx="29.355" ry="23.377"/></g></g></g><g fill="#313d40"><path d="m186.051 212.06c-4.142 0-7.5 3.357-7.5 7.5v12c0 4.143 3.358 7.5 7.5 7.5s7.5-3.357 7.5-7.5v-12c0-4.143-3.358-7.5-7.5-7.5z"/><path d="m310.949 212.06c-4.142 0-7.5 3.357-7.5 7.5v12c0 4.143 3.358 7.5 7.5 7.5s7.5-3.357 7.5-7.5v-12c0-4.143-3.358-7.5-7.5-7.5z"/><path d="m269.892 225.549c-3.123-2.721-7.861-2.396-10.582.727-2.729 3.132-6.669 4.928-10.81 4.928s-8.081-1.796-10.81-4.928c-2.721-3.123-7.459-3.447-10.582-.727-3.123 2.722-3.448 7.459-.727 10.582 5.579 6.401 13.641 10.072 22.119 10.072s16.54-3.671 22.119-10.072c2.721-3.123 2.396-7.86-.727-10.582z"/></g></g></svg>