<?xml version="1.0" encoding="iso-8859-1"?>
<!-- Generator: Adobe Illustrator 19.0.0, SVG Export Plug-In . SVG Version: 6.00 Build 0)  -->
<svg version="1.1" id="Capa_1" xmlns="http://www.w3.org/2000/svg" xmlns:xlink="http://www.w3.org/1999/xlink" x="0px" y="0px"
	 viewBox="0 0 512 512" style="enable-background:new 0 0 512 512;" xml:space="preserve">
<path style="fill:#AA6100;" d="M347.211,162.014c-4.245,0-7.686-3.44-7.686-7.686V44.56c0-4.246,3.441-7.686,7.686-7.686
	s7.686,3.44,7.686,7.686v109.767C354.897,158.573,351.456,162.014,347.211,162.014z"/>
<path style="fill:#7ED63E;" d="M511.916,261.933c-0.769,23.654-7.584,46.826-19.216,67.948l-54.092,98.345
	c-4.591,7.522-11.232,13.61-19.062,17.822c-7.83,4.212-16.849,6.539-26.247,6.539c-9.224,0-17.996-2.234-25.621-6.211
	c-12.872-6.713-28.061-6.713-40.943,0c-3.812,1.988-7.902,3.546-12.206,4.591c-3.013,0.748-6.118,1.24-9.306,1.466
	c-1.353,0.103-2.716,0.154-4.099,0.154c-5.483,0-10.843-0.789-15.906-2.296c-12.309-3.628-22.895-11.407-29.403-22.065
	l-54.102-98.345c-11.622-21.122-18.437-44.294-19.206-67.948c-0.605-18.283,2.07-36.639,8.137-54.307
	c16.623-48.312,49.05-65.171,71.453-70.992c10.279-2.675,18.458-3.023,22.034-3.023c1.271,0,1.957,0.041,1.957,0.041
	c8.035,0,15.803,1.066,23.131,3.064c1.916,0.523,3.802,1.107,5.647,1.742c8.937,3.105,17.136,7.625,24.258,13.251
	c2.326,1.988,5.206,2.993,8.086,2.993s5.76-1.004,8.086-2.993c7.123-5.626,15.311-10.146,24.258-13.251
	c8.947-3.105,18.642-4.807,28.778-4.807c0,0,68.491-4.366,95.434,73.974C509.847,225.295,512.521,243.65,511.916,261.933z"/>
<path style="fill:#5EAC24;" d="M345.326,93.897c-7.324-16.59-39.71-75.487-119.903-44.377c-2.337,0.907-3.158,3.802-1.652,5.806
	c12.262,16.334,62.322,75.94,119.319,45.011C345.393,99.087,346.385,96.296,345.326,93.897z"/>
<path style="fill:#4E901E;" d="M343.083,100.335c-56.991,30.935-107.046-28.671-119.313-45.012
	c-1.503-2.007-0.688-4.901,1.649-5.803c6.864-2.664,13.39-4.674,19.576-6.093c17.296,19.912,53.776,53.396,95.916,41.724
	c1.968,3.471,3.427,6.501,4.415,8.747C346.386,96.299,345.392,99.084,343.083,100.335z"/>
<path style="fill:#5EAC24;" d="M369.698,283.158c0,68.552-33.236,129.347-84.479,167.133c-12.309-3.628-22.895-11.407-29.403-22.065
	l-54.102-98.345c-11.622-21.122-18.437-44.294-19.206-67.948c-0.605-18.283,2.07-36.639,8.137-54.307
	c16.623-48.312,49.05-65.171,71.453-70.992c10.279-2.675,18.458-3.023,22.034-3.023c1.271,0,1.957,0.041,1.957,0.041
	c8.035,0,15.803,1.066,23.131,3.064C346.598,174.247,369.698,226.002,369.698,283.158z"/>
<path style="fill:#AA6100;" d="M164.787,162.014c-4.245,0-7.686-3.44-7.686-7.686V44.56c0-4.246,3.441-7.686,7.686-7.686
	c4.245,0,7.686,3.44,7.686,7.686v109.767C172.473,158.573,169.032,162.014,164.787,162.014z"/>
<path style="fill:#C70024;" d="M329.492,261.933c-0.769,23.654-7.584,46.826-19.216,67.948l-54.092,98.345
	c-4.591,7.522-11.232,13.61-19.062,17.822c-7.83,4.212-16.849,6.539-26.247,6.539c-9.224,0-17.996-2.234-25.621-6.211
	c-12.872-6.713-28.061-6.713-40.943,0c-3.812,1.988-7.902,3.546-12.206,4.591c-3.013,0.748-6.118,1.24-9.306,1.466
	c-1.353,0.103-2.716,0.154-4.099,0.154c-18.796,0-36.116-9.316-45.309-24.361l-54.102-98.345
	C7.667,308.759,0.852,285.587,0.084,261.933c-0.605-18.283,2.07-36.639,8.137-54.307c16.623-48.312,49.05-65.171,71.453-70.992
	c10.279-2.675,18.458-3.023,22.034-3.023c1.271,0,1.957,0.041,1.957,0.041c10.126,0,19.831,1.701,28.778,4.807
	c8.937,3.105,17.136,7.625,24.258,13.251c2.326,1.988,5.206,2.993,8.086,2.993s5.76-1.004,8.086-2.993
	c7.123-5.626,15.311-10.146,24.258-13.251c8.947-3.105,18.642-4.807,28.778-4.807c0,0,68.491-4.366,95.434,73.974
	C327.423,225.295,330.097,243.65,329.492,261.933z"/>
<path style="fill:#FF0C38;" d="M329.492,261.933c-0.769,23.654-7.584,46.826-19.216,67.948l-54.092,98.345
	c-4.591,7.522-11.232,13.61-19.062,17.822c-7.83,4.212-16.849,6.539-26.247,6.539c-9.224,0-17.996-2.234-25.621-6.211
	c-12.872-6.713-28.061-6.713-40.943,0c-3.812,1.988-7.902,3.546-12.206,4.591c-3.013,0.748-6.118,1.24-9.306,1.466
	c-0.072-0.143-0.143-0.277-0.215-0.42L68.482,333.069c-11.622-25.55-18.437-53.569-19.206-82.183
	c-0.605-22.106,2.07-44.304,8.137-65.673c5.842-20.528,13.631-36.372,22.26-48.578c10.279-2.675,18.458-3.023,22.034-3.023
	c1.271,0,1.957,0.041,1.957,0.041c10.126,0,19.831,1.701,28.778,4.807c8.937,3.105,17.136,7.625,24.258,13.251
	c2.326,1.988,5.206,2.993,8.086,2.993s5.76-1.004,8.086-2.993c7.123-5.626,15.311-10.146,24.258-13.251
	c8.947-3.105,18.642-4.807,28.778-4.807c0,0,68.491-4.366,95.434,73.974C327.423,225.295,330.097,243.65,329.492,261.933z"/>
<path style="fill:#5EAC24;" d="M160.618,105.578c-3.889-17.714-23.955-81.861-108.725-67.269c-2.47,0.425-3.848,3.1-2.771,5.363
	c8.781,18.441,46.029,86.789,108.026,67.775C159.655,110.678,161.18,108.14,160.618,105.578z"/>
<path style="fill:#FFEB99;" d="M391.138,402.419l-98.345,54.092c-40.215,22.127-83.392,24.433-122.255,11.068
	c-64.535-22.198-84.448-80.185-69.167-124.212c4.55-13.108,9.367-18.919,12.565-23.285c4.171-5.688,10.792-9.06,17.853-9.06h254.84
	c9.675,0,18.222,6.282,21.112,15.516C414.587,348.42,426.24,380.979,391.138,402.419z"/>
<path style="fill:#FFB655;" d="M355.043,318.126c0,28.05-44.407,50.782-99.185,50.782s-99.185-22.731-99.185-50.782
	c0-2.408,0.328-4.776,0.974-7.102H354.08C354.714,313.35,355.043,315.718,355.043,318.126z"/>
<g>
	<path style="fill:#AA6100;" d="M241.416,311.024l-11.95,21.604c-1.394,2.562-4.028,4.007-6.754,4.007
		c-1.24,0-2.501-0.307-3.669-0.943c-3.73-2.029-5.104-6.703-3.075-10.423l7.881-14.245L241.416,311.024L241.416,311.024z"/>
	<path style="fill:#AA6100;" d="M279.654,335.743c-1.158,0.625-2.408,0.912-3.638,0.912c-2.736,0-5.38-1.466-6.774-4.048
		l-11.499-21.583h17.412l7.625,14.307C284.788,329.072,283.394,333.735,279.654,335.743z"/>
</g>
<path style="fill:#FFE477;" d="M319.439,430.891c-40.215,22.127-83.392,24.433-122.255,11.068
	c-64.535-22.198-84.448-80.185-69.167-124.212c0.861-2.47,1.732-4.684,2.593-6.682c-6.621,0.348-12.739,3.648-16.674,9.019
	c-3.198,4.366-8.014,10.177-12.565,23.285c-15.281,44.028,4.632,102.014,69.167,124.212c38.862,13.364,82.04,11.058,122.255-11.068
	l98.345-54.092c10.792-6.59,17.166-14.235,20.61-22.301L319.439,430.891z"/>
<path style="fill:#4E901E;" d="M157.143,111.444C95.149,130.465,57.906,62.117,49.123,43.67c-1.076-2.265,0.297-4.94,2.767-5.36
	c7.256-1.25,14.051-1.927,20.395-2.091c13.005,22.946,42.122,62.998,85.739,59.913c1.24,3.792,2.07,7.051,2.593,9.449
	C161.18,108.144,159.654,110.675,157.143,111.444z"/>
<g>
</g>
<g>
</g>
<g>
</g>
<g>
</g>
<g>
</g>
<g>
</g>
<g>
</g>
<g>
</g>
<g>
</g>
<g>
</g>
<g>
</g>
<g>
</g>
<g>
</g>
<g>
</g>
<g>
</g>
</svg>
