<svg id="Layer_1" enable-background="new 0 0 512 512" height="512" viewBox="0 0 512 512" width="512" xmlns="http://www.w3.org/2000/svg"><g><g><path d="m256.359 122.422c-3.894 0-7.214-2.973-7.572-6.927-.274-3.032-6.139-74.698 43.768-113.871 3.305-2.595 8.09-2.019 10.687 1.288 2.596 3.307 2.019 8.092-1.287 10.687-43.471 34.121-38.065 99.866-38.006 100.526.379 4.187-2.709 7.888-6.896 8.266-.232.021-.465.031-.694.031z" fill="#bf7d2c"/><g><path d="m391.926 91.701c-.51-.649-1.218-1.154-2.082-1.415-13.589-4.1-28.002-6.305-42.932-6.305-34.103 0-65.507 11.506-90.543 30.829-25.341-19.559-57.207-31.109-91.791-30.824-82.896.682-148.501 70.5-146.802 153.185 2.552 124.223 91.654 274.829 172.272 274.829 23.552 0 40.737-7.532 51.673-14.595 8.788-5.675 20.091-5.812 28.942-.235 11.314 7.13 29.353 14.83 54.489 14.83 77.373 0 160.345-127.443 169.095-257.884.079-1.174-.272-2.275-.919-3.16-.779-1.065-76.379-6.143-98.968-44.227-21.741-36.653-1.511-113.855-2.434-115.028z" fill="#7de663"/></g><g fill="#68d64d"><path d="m235.703 126.232c4.844-3.739 15.37-8.295 20.665-11.422-24.725-19.412-63.817-31.054-91.791-30.824-4.688.039-9.318.31-13.886.78 28.166 2.888 63.772 25.073 85.012 41.466z"/><path d="m240.216 497.171c-8.851-5.577-20.154-5.441-28.942.235-8.107 5.235-19.658 10.722-34.681 13.214 4.5.894 8.991 1.381 13.455 1.381 23.169 0 40.162-7.289 51.12-14.249-.316-.195-.646-.389-.952-.581z"/><path d="m493.328 250.956c-.779-1.065-76.379-6.143-98.968-44.227-21.74-36.654-1.511-113.855-2.434-115.029-.51-.649-1.218-1.154-2.082-1.415-13.589-4.1-28.002-6.305-42.933-6.305-5.165 0-10.268.268-15.297.783 9.557.97 18.851 2.827 27.784 5.522.864.261 1.572.766 2.082 1.415.923 1.173-19.306 78.375 2.434 115.029 22.589 38.084 98.189 43.162 98.968 44.227.647.885.997 1.986.918 3.16-8.247 122.955-82.443 243.227-155.734 256.629 5.281.793 10.969 1.255 17.085 1.255 77.373 0 160.345-127.443 169.095-257.884.079-1.174-.271-2.275-.918-3.16z"/></g><g><path d="m336.794 132.462c0 13.563 6.303 25.65 16.14 33.527-4.37 7.285-6.887 15.804-6.887 24.911 0 26.835 21.806 48.589 48.704 48.589 1.894 0 3.76-.119 5.598-.329 3.516 23.387 23.737 41.322 48.16 41.322 20.11 0 37.371-12.162 44.803-29.513-.779-1.065-1.971-1.828-3.378-2.017-18.502-2.477-32.771-18.281-32.771-37.417v-.102c.006-4.352-3.829-7.647-8.16-7.125-2.553.308-5.195.328-7.893.025-15.789-1.773-28.311-14.725-29.547-30.528-.546-6.975 1.056-13.544 4.216-19.117 2.043-3.603.411-8.169-3.39-9.831-13.347-5.835-22.672-19.125-22.672-34.594 0-5.038.993-9.844 2.791-14.237.759-1.855.151-3.897-1.335-5.036-3.602-.975-7.388-1.504-11.3-1.504-23.792-.002-43.079 19.24-43.079 42.976z" fill="#b2fcaa"/></g><path d="m489.934 248.951c-18.502-2.477-32.771-18.281-32.771-37.417v-.102c.006-4.352-3.829-7.647-8.16-7.125-2.553.308-5.195.328-7.893.025-15.789-1.773-28.311-14.725-29.547-30.528-.546-6.975 1.056-13.544 4.216-19.117 2.043-3.603.411-8.169-3.39-9.831-13.347-5.835-22.672-19.125-22.672-34.594 0-5.038.993-9.843 2.791-14.237.759-1.855.151-3.897-1.335-5.036-3.602-.974-7.388-1.504-11.3-1.504-8.185 0-15.837 2.278-22.354 6.232 2.726.213 5.383.668 7.944 1.361 1.486 1.139 2.094 3.181 1.335 5.036-1.797 4.393-2.791 9.198-2.791 14.237 0 15.469 9.325 28.759 22.672 34.594 3.801 1.661 5.433 6.228 3.39 9.831-3.16 5.574-4.762 12.142-4.216 19.117 1.236 15.803 13.758 28.755 29.547 30.528 2.699.303 5.341.283 7.893-.025 4.331-.522 8.165 2.773 8.16 7.125v.102c0 19.136 14.269 34.94 32.771 37.417 1.407.188 2.6.952 3.378 2.017-4.253 9.93-11.729 18.154-21.111 23.378.67.027 1.342.046 2.018.046 20.11 0 37.371-12.162 44.803-29.513-.778-1.065-1.971-1.828-3.378-2.017z" fill="#97f78d"/></g><g fill="#fff"><path d="m63.01 243.733c-4.204 0-7.611-3.408-7.611-7.611 0-29.967 11.822-57.96 33.286-78.823 3.017-2.931 7.835-2.86 10.763.154 2.931 3.014 2.861 7.833-.153 10.763-18.491 17.971-28.674 42.087-28.674 67.906.001 4.203-3.407 7.611-7.611 7.611z"/><path d="m129.141 148.016c-3.076 0-5.972-1.878-7.123-4.927-1.484-3.933.501-8.324 4.435-9.808 12.396-4.677 25.463-7.049 38.834-7.049 4.204 0 7.611 3.408 7.611 7.611s-3.407 7.611-7.611 7.611c-11.529 0-22.788 2.042-33.461 6.069-.883.335-1.792.493-2.685.493z"/></g></g></svg>