<?xml version="1.0" encoding="iso-8859-1"?>
<!-- Generator: Adobe Illustrator 19.0.0, SVG Export Plug-In . SVG Version: 6.00 Build 0)  -->
<svg version="1.1" id="Layer_1" xmlns="http://www.w3.org/2000/svg" xmlns:xlink="http://www.w3.org/1999/xlink" x="0px" y="0px"
	 viewBox="0 0 512 512" style="enable-background:new 0 0 512 512;" xml:space="preserve">
<g>
	<path style="fill:#ECF0F1;" d="M414.72,441.379V88.276C414.367,8.898,370.582,0,255.823,0S97.28,8.898,97.28,88.276v353.103
		c0,17.655-0.353,70.621,61.793,70.621h193.501C414.72,512,414.367,459.034,414.72,441.379"/>
	<g>
		<path style="fill:#BDC3C7;" d="M413.685,459.034H98.108C100.747,481.465,111.87,512,159.071,512h193.501
			C399.773,512,410.905,481.465,413.685,459.034"/>
		<path style="fill:#BDC3C7;" d="M282.306,423.724h-52.965c-14.627,0-26.483-11.855-26.483-26.483V132.414
			c0-14.627,11.855-26.483,26.483-26.483h52.965c14.627,0,26.483,11.855,26.483,26.483v264.828
			C308.789,411.869,296.934,423.724,282.306,423.724"/>
	</g>
	<g>
		<polygon style="fill:#959CA0;" points="238.168,397.241 273.479,397.241 273.479,361.931 238.168,361.931 		"/>
		<path style="fill:#959CA0;" d="M238.168,185.379h-8.828c-4.873,0-8.828-3.955-8.828-8.828c0-4.873,3.955-8.828,8.828-8.828h8.828
			c4.873,0,8.828,3.955,8.828,8.828C246.996,181.425,243.041,185.379,238.168,185.379"/>
		<path style="fill:#959CA0;" d="M282.306,185.379h-8.828c-4.873,0-8.828-3.955-8.828-8.828c0-4.873,3.955-8.828,8.828-8.828h8.828
			c4.873,0,8.828,3.955,8.828,8.828C291.134,181.425,287.179,185.379,282.306,185.379"/>
		<path style="fill:#959CA0;" d="M238.168,211.862h-8.828c-4.873,0-8.828-3.955-8.828-8.828c0-4.873,3.955-8.828,8.828-8.828h8.828
			c4.873,0,8.828,3.955,8.828,8.828C246.996,207.907,243.041,211.862,238.168,211.862"/>
		<path style="fill:#959CA0;" d="M282.306,211.862h-8.828c-4.873,0-8.828-3.955-8.828-8.828c0-4.873,3.955-8.828,8.828-8.828h8.828
			c4.873,0,8.828,3.955,8.828,8.828C291.134,207.907,287.179,211.862,282.306,211.862"/>
		<path style="fill:#959CA0;" d="M238.168,264.828h-8.828c-4.873,0-8.828-3.955-8.828-8.828s3.955-8.828,8.828-8.828h8.828
			c4.873,0,8.828,3.955,8.828,8.828S243.041,264.828,238.168,264.828"/>
		<path style="fill:#959CA0;" d="M282.306,264.828h-8.828c-4.873,0-8.828-3.955-8.828-8.828s3.955-8.828,8.828-8.828h8.828
			c4.873,0,8.828,3.955,8.828,8.828S287.179,264.828,282.306,264.828"/>
		<path style="fill:#959CA0;" d="M238.168,291.31h-8.828c-4.873,0-8.828-3.955-8.828-8.828c0-4.873,3.955-8.828,8.828-8.828h8.828
			c4.873,0,8.828,3.955,8.828,8.828C246.996,287.356,243.041,291.31,238.168,291.31"/>
		<path style="fill:#959CA0;" d="M282.306,291.31h-8.828c-4.873,0-8.828-3.955-8.828-8.828c0-4.873,3.955-8.828,8.828-8.828h8.828
			c4.873,0,8.828,3.955,8.828,8.828C291.134,287.356,287.179,291.31,282.306,291.31"/>
		<path style="fill:#959CA0;" d="M238.168,317.793h-8.828c-4.873,0-8.828-3.955-8.828-8.828s3.955-8.828,8.828-8.828h8.828
			c4.873,0,8.828,3.955,8.828,8.828S243.041,317.793,238.168,317.793"/>
		<path style="fill:#959CA0;" d="M282.306,317.793h-8.828c-4.873,0-8.828-3.955-8.828-8.828s3.955-8.828,8.828-8.828h8.828
			c4.873,0,8.828,3.955,8.828,8.828S287.179,317.793,282.306,317.793"/>
	</g>
	<g>
		<path style="fill:#ECF0F1;" d="M352.927,511.987V494.34c0-4.873-3.955-8.828-8.828-8.828s-8.828,3.955-8.828,8.828v17.655h17.302
			C352.697,511.996,352.803,511.987,352.927,511.987"/>
		<path style="fill:#ECF0F1;" d="M308.789,485.517c-4.873,0-8.828,3.955-8.828,8.828V512h17.655v-17.655
			C317.617,489.472,313.662,485.517,308.789,485.517"/>
		<path style="fill:#ECF0F1;" d="M273.479,485.517c-4.873,0-8.828,3.955-8.828,8.828V512h17.655v-17.655
			C282.306,489.472,278.351,485.517,273.479,485.517"/>
		<path style="fill:#ECF0F1;" d="M238.168,485.517c-4.873,0-8.828,3.955-8.828,8.828V512h17.655v-17.655
			C246.996,489.472,243.041,485.517,238.168,485.517"/>
		<path style="fill:#ECF0F1;" d="M202.858,485.517c-4.873,0-8.828,3.955-8.828,8.828V512h17.655v-17.655
			C211.686,489.472,207.731,485.517,202.858,485.517"/>
		<path style="fill:#ECF0F1;" d="M167.548,485.517c-4.873,0-8.828,3.955-8.828,8.828v17.646c0.124,0,0.23,0.009,0.353,0.009h17.302
			v-17.655C176.375,489.472,172.42,485.517,167.548,485.517"/>
	</g>
</g>
<g>
</g>
<g>
</g>
<g>
</g>
<g>
</g>
<g>
</g>
<g>
</g>
<g>
</g>
<g>
</g>
<g>
</g>
<g>
</g>
<g>
</g>
<g>
</g>
<g>
</g>
<g>
</g>
<g>
</g>
</svg>
