<?xml version="1.0" encoding="iso-8859-1"?>
<!-- Generator: Adobe Illustrator 19.0.0, SVG Export Plug-In . SVG Version: 6.00 Build 0)  -->
<svg version="1.1" id="Capa_1" xmlns="http://www.w3.org/2000/svg" xmlns:xlink="http://www.w3.org/1999/xlink" x="0px" y="0px"
	 viewBox="0 0 512 512" style="enable-background:new 0 0 512 512;" xml:space="preserve">
<rect x="79.448" y="397.241" style="fill:#B5835D;" width="353.103" height="114.759"/>
<rect x="291.31" y="406.069" style="fill:#936547;" width="105.931" height="70.621"/>
<g>
	<path style="fill:#D8B294;" d="M361.931,450.207h-35.31c-4.873,0-8.828-3.955-8.828-8.828s3.955-8.828,8.828-8.828h35.31
		c4.873,0,8.828,3.955,8.828,8.828S366.804,450.207,361.931,450.207z"/>
	<rect x="61.793" style="fill:#D8B294;" width="388.414" height="406.069"/>
</g>
<rect x="105.931" y="44.138" style="fill:#426D5F;" width="300.138" height="194.207"/>
<circle style="fill:#936547;" cx="132.414" cy="335.448" r="26.483"/>
<path style="fill:#B5835D;" d="M317.793,308.966H211.862c-4.873,0-8.828-3.955-8.828-8.828c0-4.873,3.955-8.828,8.828-8.828h105.931
	c4.873,0,8.828,3.955,8.828,8.828C326.621,305.011,322.666,308.966,317.793,308.966z"/>
<g>
	<path style="fill:#2C4F43;" d="M194.207,158.897c-2.26,0-4.52-0.865-6.241-2.586c-3.452-3.452-3.452-9.031,0-12.482l17.655-17.655
		c3.452-3.452,9.031-3.452,12.482,0c3.452,3.452,3.452,9.031,0,12.482l-17.655,17.655
		C198.727,158.031,196.467,158.897,194.207,158.897z"/>
	<path style="fill:#2C4F43;" d="M141.241,105.931c-2.26,0-4.52-0.865-6.241-2.586c-3.452-3.452-3.452-9.031,0-12.482l17.655-17.655
		c3.452-3.452,9.031-3.452,12.482,0c3.452,3.452,3.452,9.031,0,12.482l-17.655,17.655
		C145.761,105.066,143.501,105.931,141.241,105.931z"/>
	<path style="fill:#2C4F43;" d="M141.241,158.897c-2.26,0-4.52-0.865-6.241-2.586c-3.452-3.452-3.452-9.031,0-12.482l70.621-70.621
		c3.452-3.452,9.031-3.452,12.482,0c3.452,3.452,3.452,9.031,0,12.482l-70.621,70.621
		C145.761,158.031,143.501,158.897,141.241,158.897z"/>
</g>
<path style="fill:#DC691D;" d="M388.414,317.793h-52.966c-9.754,0-17.655-7.901-17.655-17.655l0,0
	c0-9.754,7.901-17.655,17.655-17.655h52.966c9.754,0,17.655,7.901,17.655,17.655l0,0
	C406.069,309.892,398.168,317.793,388.414,317.793z"/>
<g>
</g>
<g>
</g>
<g>
</g>
<g>
</g>
<g>
</g>
<g>
</g>
<g>
</g>
<g>
</g>
<g>
</g>
<g>
</g>
<g>
</g>
<g>
</g>
<g>
</g>
<g>
</g>
<g>
</g>
</svg>
