<svg height="512" viewBox="0 0 128 128" width="512" xmlns="http://www.w3.org/2000/svg"><g><path d="m78.852 17.377-33.566 23.479a6.279 6.279 0 0 0 -2.554 6.5 5.035 5.035 0 0 1 .123 1.107c0 3.794-4.153 6.869-9.26 6.869a11.969 11.969 0 0 1 -3.9-.639 6.108 6.108 0 0 0 -5.458.872l-20.13 14.081 119.786-7.318c-2.608-42.254-45.041-44.951-45.041-44.951z" fill="#ffe17d"/><g fill="#ffc369"><path d="m4.107 104.288a6.334 6.334 0 0 0 7.014 6.3l58.33-6.3a6.479 6.479 0 0 0 5.036-3.722 7.462 7.462 0 0 1 12.53-1.322 6.36 6.36 0 0 0 5.625 2.531l25.6-2.766a6.335 6.335 0 0 0 5.653-6.3v-30.381l-119.788 7.318z"/><ellipse cx="98.09" cy="48.09" rx="7.646" ry="5.664"/><ellipse cx="68.053" cy="46.186" rx="6.18" ry="4.577"/><ellipse cx="82.874" cy="31.134" rx="6.18" ry="4.577"/></g><path d="m105.736 72.278a5.725 5.725 0 1 0 5.725 5.722 5.725 5.725 0 0 0 -5.725-5.722z" fill="#ffaa5f"/><circle cx="24.32" cy="83.728" fill="#ffaa5f" r="4.887" transform="matrix(.997 -.082 .082 .997 -6.823 2.291)"/><circle cx="52.309" cy="86.388" fill="#ffaa5f" r="6.708"/><path d="m72.47 75.04a1.75 1.75 0 0 0 2.469 2.48 1.761 1.761 0 0 0 0-2.48 1.807 1.807 0 0 0 -2.469 0z" fill="#ffaa5f"/><path d="m51.069 54.1a1.75 1.75 0 1 0 2.471 0 1.767 1.767 0 0 0 -2.471 0z" fill="#ffc369"/><circle cx="95.895" cy="91.17" fill="#ffaa5f" r="1.748"/><path d="m26.91 95.18a1.747 1.747 0 1 0 2.47 0 1.746 1.746 0 0 0 -2.47 0z" fill="#ffaa5f"/></g></svg>