<svg id="California" height="512" viewBox="0 0 512 512" width="512" xmlns="http://www.w3.org/2000/svg" xmlns:xlink="http://www.w3.org/1999/xlink"><linearGradient id="linear-gradient" gradientUnits="userSpaceOnUse" x1="256" x2="256" y1="-45" y2="203"><stop offset="0" stop-color="#8ce1ff"/><stop offset=".6802" stop-color="#ffda8f"/><stop offset="1" stop-color="#fffcba"/></linearGradient><linearGradient id="linear-gradient-2" gradientUnits="userSpaceOnUse" x1="109.17" x2="109.17" y1="120" y2="252.544"><stop offset=".2553" stop-color="#fff"/><stop offset="1" stop-color="#fffb7a"/></linearGradient><linearGradient id="linear-gradient-3" x1="406.279" x2="406.279" xlink:href="#linear-gradient-2" y1="102" y2="234.544"/><linearGradient id="linear-gradient-4" gradientUnits="userSpaceOnUse" x1="256.025" x2="256.025" y1="285.872" y2="167.535"><stop offset="0" stop-color="#74924d"/><stop offset=".7357" stop-color="#e6df83"/></linearGradient><linearGradient id="linear-gradient-5" gradientUnits="userSpaceOnUse" x1="256" x2="256" y1="198.045" y2="318.195"><stop offset="0" stop-color="#cacc58"/><stop offset=".5025" stop-color="#89b73b"/><stop offset="1" stop-color="#527d37"/></linearGradient><linearGradient id="linear-gradient-6" gradientUnits="userSpaceOnUse" x1="251.135" x2="251.135" y1="199.345" y2="338.907"><stop offset="0" stop-color="#ebbf71"/><stop offset=".5685" stop-color="#b78751"/><stop offset="1" stop-color="#a17648"/></linearGradient><g id="Layer_24" data-name="Layer 24"><circle cx="256" cy="256" fill="url(#linear-gradient)" r="256"/><circle cx="261" cy="202" fill="#fff" r="90"/><path d="m127 324h71v-25.7954a45.0024 45.0024 0 0 0 20.3379-38.2083c-.2588-23.7813-19.29-43.5866-43.0576-44.447a44.2966 44.2966 0 0 0 -24.1333 6.0833 45.5939 45.5939 0 0 0 1.1259-16.8946 44.8934 44.8934 0 0 0 -40.8518-39.3535 44.3672 44.3672 0 0 0 -30.7946 9.2143 45.4108 45.4108 0 0 0 .7661-13.7121 44.9705 44.9705 0 0 0 -42.0921-40.5537c-.1364-.0073-.2712-.0056-.4074-.0115a256.43 256.43 0 0 0 -26.451 214.6785h114.5579z" fill="url(#linear-gradient-2)"/><path d="m463.46 106.0093a44.7118 44.7118 0 0 0 -24.4952 49.6847 44.8663 44.8663 0 0 0 -70.8754 46.8342 44.8186 44.8186 0 0 0 -47.0894 76.2468v25.225h71v11h113.1553a256.4569 256.4569 0 0 0 -41.6953-208.9907z" fill="url(#linear-gradient-3)"/><path d="m411.7471 179.6335a35.5506 35.5506 0 0 0 -37.0611-2.5567l-104.4069 54.4732a28.8835 28.8835 0 0 1 -28.1224-.7812l-79.9667-47.548a33.4821 33.4821 0 0 0 -34.3382.0684l-127.8018 76.6808q.1388 9.0952.9009 18.03h510.0982c.6174-7.2531.9509-14.5872.9509-22 0-1.6869-.0312-3.3663-.064-5.0454z" fill="url(#linear-gradient-4)"/><path d="m512 256a257.18 257.18 0 0 0 -5.0132-50.613 39.8963 39.8963 0 0 0 -14.5581 3.551l-96.6042 44.1185a26.5345 26.5345 0 0 1 -21.7154.1482l-90.7663-39.9647a41.3049 41.3049 0 0 0 -32.78-.22l-84.9878 36.0678a28.5354 28.5354 0 0 1 -23.011-.3156l-74.6866-34.1422a43.3879 43.3879 0 0 0 -37.4426.653l-29.1148 14.557a258.3178 258.3178 0 0 0 .21 54.16h508.94a258.7965 258.7965 0 0 0 1.53-28z" fill="url(#linear-gradient-5)"/><path d="m509.6082 291h-507.2164c12.1905 89.1509 70.2682 163.6794 149.659 199h207.8984c79.3908-35.3206 137.4685-109.8491 149.659-199z" fill="#a2c45a"/><path d="m1.53 284q.6578 6.0425 1.5874 12h505.7649q.9347-5.955 1.5874-12z" fill="#b7de66"/><path d="m498.7551 337.4724-492.7859-26.3511c22.4632 102.3533 106.1524 181.7687 210.7408 197.8787h78.58c95.4251-14.6987 173.4615-82.0923 203.4651-171.5276z" fill="#98b955"/><path d="m256 512c105.7837 0 196.575-64.1653 235.5942-155.6948l-459.1137 24.5505a255.9084 255.9084 0 0 0 223.5195 131.1443z" fill="#87af3b"/><path d="m256 512a255.4831 255.4831 0 0 0 198.3318-94.1411l-407.2464-13.8731a255.6833 255.6833 0 0 0 208.9146 108.0142z" fill="#7fa538"/><path d="m429.801 443.939-312.0383 27.562a256.041 256.041 0 0 0 312.0383-27.562z" fill="#7a9d35"/><g fill="#6f8a3f"><path d="m283 379v131.584a254.6369 254.6369 0 0 0 51.0771-10.7266l-16.8803-120.8574z"/><path d="m175.1189 383h-42.8379l-54.9394 56.3245a256.7256 256.7256 0 0 0 60.4284 43.7795z"/><path d="m239.5105 378-27.1692 130.2761a257.5912 257.5912 0 0 0 43.6587 3.7239q3.5119 0 7-.0986v-133.9014z"/><path d="m376.2917 379 13.4141 95.3384a257.2183 257.2183 0 0 0 55.5315-45.9321l-35.2405-49.4063z"/></g><path d="m254 363s-10.7939 2.3986-15.6646 8.589a3.9757 3.9757 0 0 0 -.9137 2.6038 3.9253 3.9253 0 0 0 3.9206 3.8072h21.1928a14.3166 14.3166 0 0 0 12.5444-7.4172l5.8677-10.6687a4.55 4.55 0 0 0 .2175-3.9327l-3.1647-13.9814h-52s6.0766.7005 28 21z" fill="#916b41"/><path d="m387 365-9.5134 9.5134a4.447 4.447 0 0 0 -1.3613 3.4464 4.3386 4.3386 0 0 0 4.3247 4.0402h22.4037a10.0105 10.0105 0 0 0 7.0785-2.932l3.2035-3.2035a10.3054 10.3054 0 0 0 1.8358-12.08l-11.9715-22.7845-9-51c-3 47-40 55-40 55v2.2456c.5009 5.0577 4.6968 16.9682 33 17.7544z" fill="#916b41"/><path d="m397.9179 285.5923a2.8327 2.8327 0 0 0 .3554-.4882 6.0679 6.0679 0 0 0 -1.6316-7.9932l-7.8154-5.6725a268.9587 268.9587 0 0 0 -141.2063-50.7653 57.178 57.178 0 0 0 -27.8 5.313l-72.6658 34.0139-9.5048-5.118a3.631 3.631 0 0 0 -5.0589 1.7667l-4.4363 10.3513-10.59-2.8239a2.0027 2.0027 0 0 0 -.4788-.0723 4.14 4.14 0 0 0 -4.3087 3.7976l-.6225 8.0986-9 13 1.9487 7.7949 28.0513 29.2051 29.4062 4.16a3.8262 3.8262 0 0 1 3.8926 4.16 1.7374 1.7374 0 0 1 -.1146.5221l-13.1842 35.1579s-13.1214 3.4229-19.9736 9.4071a1.7541 1.7541 0 0 0 -.4847.674 4.1257 4.1257 0 0 0 3.66 5.9189h29.7487c3.3111 0 9.1568-3.0556 9.1568-3.0556l50.8928-40.9444h66.8458v19.23a3.9892 3.9892 0 0 1 -1.3128 2.9582l-13.2084 11.9505a1.5683 1.5683 0 0 0 -.427.61 3.7125 3.7125 0 0 0 3.3268 5.2513h28.7278a7.5249 7.5249 0 0 0 5.0417-1.9386l38.8519-35.0614s37-8 40-55z" fill="url(#linear-gradient-6)"/><path d="m92.9827 312.0959-2.735 3.4947a4.7082 4.7082 0 0 0 1.24 6.9116l5.89 2.7.6223-7.4622z" fill="#35312a"/><path d="m133 325.74-28.051-29.205.051.205-12.017 15.356 5.017 5.644-.622 7.463 18.622 8.537z" fill="#cabba7"/><path d="m113 290.74 5 9 9-11z" fill="#755735"/><path d="m170 31.6935c25.0625 7.4375 31.4414 15.376 31.3409 15.292 9.1308-7.2989 21.6865-11.8838 32.84-13.81-13.6045 5.9033-24.7891 16.417-29.251 22.792v.001c-7.0508 6.2431-9.0869-4.8819-12.6015-7.2608-7.7092-8.9625-22.3284-17.0142-22.3284-17.0142z" fill="#fff"/><path d="m291 65.8467c25.0625 7.4375 31.44 15.376 31.3409 15.292 9.1308-7.2979 21.6875-11.8838 32.84-13.81-13.6045 5.9033-24.7891 16.418-29.251 22.792l-.0009.001c-7.0489 6.2432-9.086-4.8818-12.6-7.26-7.7108-8.9623-22.329-17.015-22.329-17.015z" fill="#fff"/></g></svg>