<svg id="Layer_1" enable-background="new 0 0 50 50" height="512" viewBox="0 0 50 50" width="512" xmlns="http://www.w3.org/2000/svg"><g><g><g><g><g><g enable-background="new"><g><path d="m40.03287 35.57293-.00963 4.60055-15.19786 8.82652-14.86101-8.5859.01927-4.59114 1.66511-.9719.00963-25.9297 13.63862-7.92136 13.34023 7.7-.0192 26.05471z" fill="#65aa65"/></g></g></g></g></g><g><g><g><g><g enable-background="new"><g><path d="m40.03287 35.57293-.00963 4.60055-15.19786 8.82652-14.86101-8.5859.01927-4.59114 1.66511-.9719.00963-25.9297 13.63862-7.92136 13.34023 7.7-.0192 26.05471z" fill="#3f434f"/></g></g></g></g></g><g><g><g><g><g enable-background="new"><g><path d="m24.84475 44.40398 15.19088-8.82798-.01496 4.59446-15.19088 8.82797z" fill="#3f434f"/></g><g><path d="m9.98109 35.82146 15.19087-8.82797 14.86367 8.58251-15.19088 8.82798z" fill="#5b5e71"/></g><g><path d="m24.84475 44.40398-.01496 4.59445-14.86366-8.58251.01496-4.59446z" fill="#474b59"/></g></g></g><g><g enable-background="new"><g><path d="m25.00088 16.62712 13.63333-7.92283-.01343 26.90171-13.63332 7.92282z" fill="#3f434f"/></g><g><path d="m11.66121 8.92458 13.63333-7.92282 13.33967 7.70253-13.63333 7.92283z" fill="#5b5e71"/></g><g><path d="m25.00088 16.62712-.01342 26.9017-13.33967-7.70253.01342-26.90171z" fill="#474b59"/></g></g></g><g><g><g enable-background="new"><g><path d="m24.49383 16.86502-.0124 2.43091-12.32659-7.11756.0124-2.43091z" fill="#3f434f"/></g></g></g><g><ellipse cx="13.43" cy="11.711" fill="#363a44" rx=".623" ry="1.076" transform="matrix(.865 -.503 .503 .865 -4.066 8.335)"/></g><g><g fill="#bac1ce"><path d="m15.35224 11.95228c.05573.03375.10034.11161.10034.17313v.51829c0 .06125-.04461.08928-.10034.0558l-.4516-.25642c-.05574-.03348-.10034-.11161-.10034-.17285v-.51856c0-.06125.04461-.08901.10034-.06125z"/><path d="m15.44142 13.03404c.00558.02232.01116.03893.01116.05553v.51856c0 .06696-.04461.08928-.10034.06125l-.4516-.26187c-.01671-.01116-.03345-.02777-.04457-.04464-.01116-.01116-.02232-.02232-.02787-.03893-.01116-.01688-.01674-.03348-.02232-.05036-.00558-.01661-.00558-.02777-.00558-.03893v-.52972c0-.01661 0-.02777.01674-.03893.00558-.02777.04461-.03893.0836-.01688l.4516.26214c.01671.01116.02787.02232.03899.03893.02232.02233.03903.05581.05019.08385z"/><path d="m16.19959 12.44307c.05577.02777.10034.10589.09476.16714v.51856c0 .06696-.04457.09473-.10034.06125l-.44598-.26214c-.05573-.03321-.10034-.11133-.10034-.17258v-.51856c0-.06125.04461-.08929.10034-.0558z"/><path d="m17.13617 14.00965c0 .02232.00558.03893.00558.05553v.51856c0 .06696-.04461.09473-.10034.06125l-.45156-.26187c-.02229-.01116-.05019-.04464-.0669-.07241-.02229-.03348-.03345-.07268-.03345-.10045v-.52401c0-.06696.04461-.08928.10034-.06152l.45156.26214c.01674.01116.03345.02232.03903.03893.02229.02233.03903.05581.05574.08385z"/><path d="m16.26649 13.47448c.01674.03321.03345.07241.02787.10589v.51829c0 .06152-.04457.08929-.10034.0558l-.44598-.25642c-.01671-.01116-.03345-.02777-.04461-.04464-.02229-.02232-.03899-.05009-.05015-.08357-.00558-.02232-.01116-.03893-.01116-.0558l.00558-.5074v-.01089c0-.01688 0-.02804.01674-.0392 0-.03348.03345-.04464.07802-.0166l.00558.00544.44598.25098c.0279.0166.05018.04464.07247.07812z"/><path d="m17.14175 13.10101v.51829c0 .06125-.04461.08928-.10034.0558l-.45156-.25642c-.05019-.03348-.10034-.11161-.10034-.17285l.00558-.51856c0-.06125.04457-.08901.10034-.0558l.44598.25642c.05573.03374.10034.1116.10034.17312z"/></g></g><g><g><path d="m17.91181 13.79658c.22898.13221.41326.45138.41252.71457-.00074.26118-.18622.36688-.41521.23467-.22898-.1322-.41326-.45138-.41252-.71256.00075-.26319.18623-.36888.41521-.23668z" fill="#75ca75"/></g><g><path d="m18.92782 14.38317c.22898.1322.41326.45138.41252.71457-.00074.26118-.18623.36687-.41521.23467-.22729-.13122-.41157-.4504-.41083-.71158.00075-.26319.18623-.36888.41352-.23766z" fill="#f9bb4a"/></g><g><path d="m19.94552 14.97074c.22729.13123.41157.4504.41082.71359-.00074.26118-.18623.36687-.41351.23565-.22898-.1322-.41326-.45138-.41252-.71256.00074-.26319.18623-.36888.41521-.23668z" fill="#e63044"/></g><g><path d="m20.96153 15.55733c.22898.1322.41326.45138.41252.71457-.00074.26118-.18623.36687-.41521.23467s-.41326-.45138-.41252-.71256c.00074-.26319.18623-.36888.41521-.23668z" fill="#576cfb"/></g></g><g><path d="m23.55413 16.82113c.15589.09001.28483.31337.28431.49617l-.00254.89579c-.00052.183-.1303.25699-.28619.16699l-1.61204-.93071c-.15921-.09192-.28815-.31529-.28764-.49829l.00254-.89579c.00052-.1828.13031-.25679.28952-.16486z" fill="#75ca75"/></g></g><g><g><g enable-background="new"><g><path d="m24.49383 20.08658-.0124 2.43091-12.32659-7.11757.0124-2.4309z" fill="#3f434f"/></g></g></g><g><ellipse cx="13.43" cy="14.932" fill="#363a44" rx=".623" ry="1.076" transform="matrix(.865 -.503 .503 .865 -5.685 8.771)"/></g><g><g fill="#bac1ce"><path d="m15.35224 15.17383c.05573.03375.10034.11161.10034.17313v.51829c0 .06125-.04461.08928-.10034.0558l-.4516-.25642c-.05574-.03348-.10034-.11161-.10034-.17285v-.51856c0-.06125.04461-.08901.10034-.06125z"/><path d="m15.44142 16.2556c.00558.02232.01116.03893.01116.05553v.51856c0 .06697-.04461.08929-.10034.06125l-.4516-.26187c-.01671-.01116-.03345-.02777-.04457-.04464-.01116-.01116-.02232-.02232-.02787-.03893-.01116-.01688-.01674-.03348-.02232-.05036-.00558-.0166-.00558-.02777-.00558-.03893v-.52972c0-.01661 0-.02777.01674-.03893.00558-.02777.04461-.03893.0836-.01688l.4516.26214c.01671.01116.02787.02232.03899.03893.02232.02233.03903.05581.05019.08385z"/><path d="m16.19959 15.66463c.05577.02777.10034.10589.09476.16714v.51856c0 .06696-.04457.09473-.10034.06125l-.44598-.26214c-.05573-.03321-.10034-.11133-.10034-.17258v-.51856c0-.06125.04461-.08929.10034-.0558z"/><path d="m17.13617 17.2312c0 .02232.00558.03893.00558.05553v.51856c0 .06696-.04461.09473-.10034.06125l-.45156-.26187c-.02229-.01116-.05019-.04464-.0669-.07241-.02229-.03348-.03345-.07268-.03345-.10045v-.52401c0-.06696.04461-.08928.10034-.06152l.45156.26214c.01674.01116.03345.02232.03903.03893.02229.02233.03903.05581.05574.08385z"/><path d="m16.26649 16.69603c.01674.03321.03345.07241.02787.10589v.51829c0 .06152-.04457.08928-.10034.0558l-.44598-.25642c-.01671-.01116-.03345-.02777-.04461-.04464-.02229-.02232-.03899-.05009-.05015-.08357-.00558-.02232-.01116-.03893-.01116-.0558l.00558-.5074v-.01089c0-.01688 0-.02804.01674-.0392 0-.03348.03345-.04464.07802-.01661l.00558.00545.44598.25098c.0279.0166.05018.04464.07247.07812z"/><path d="m17.14175 16.32256v.51829c0 .06125-.04461.08928-.10034.0558l-.45156-.25642c-.05019-.03348-.10034-.1116-.10034-.17285l.00558-.51856c0-.06125.04457-.08901.10034-.0558l.44598.25642c.05573.03375.10034.1116.10034.17312z"/></g></g><g><g><path d="m17.91181 17.01814c.22898.1322.41326.45138.41252.71457-.00074.26118-.18622.36687-.41521.23467-.22898-.1322-.41326-.45138-.41252-.71256.00075-.2632.18623-.36889.41521-.23668z" fill="#75ca75"/></g><g><path d="m18.92782 17.60473c.22898.1322.41326.45138.41252.71457-.00074.26118-.18623.36687-.41521.23467-.22729-.13122-.41157-.4504-.41083-.71158.00075-.26319.18623-.36889.41352-.23766z" fill="#f9bb4a"/></g><g><path d="m19.94552 18.1923c.22729.13122.41157.4504.41082.71359-.00074.26118-.18623.36687-.41351.23565-.22898-.1322-.41326-.45138-.41252-.71256.00074-.26319.18623-.36889.41521-.23668z" fill="#e63044"/></g><g><path d="m20.96153 18.77889c.22898.1322.41326.45138.41252.71457-.00074.26118-.18623.36687-.41521.23467s-.41326-.45138-.41252-.71256c.00074-.26319.18623-.36889.41521-.23668z" fill="#576cfb"/></g></g><g><path d="m23.55413 20.04269c.15589.09001.28483.31337.28431.49617l-.00254.89579c-.00052.183-.1303.25699-.28619.16699l-1.61204-.93071c-.15921-.09192-.28815-.31529-.28764-.49829l.00254-.89579c.00052-.1828.13031-.25678.28952-.16487z" fill="#75ca75"/></g></g><g><g><g enable-background="new"><g><path d="m24.49383 23.30814-.0124 2.4309-12.32659-7.11756.0124-2.43091z" fill="#3f434f"/></g></g></g><g><ellipse cx="13.43" cy="18.154" fill="#363a44" rx=".623" ry="1.076" transform="matrix(.865 -.503 .503 .865 -7.304 9.207)"/></g><g><g fill="#bac1ce"><path d="m15.35224 18.39539c.05573.03375.10034.11161.10034.17313v.51829c0 .06125-.04461.08929-.10034.0558l-.4516-.25642c-.05574-.03348-.10034-.11161-.10034-.17285v-.51856c0-.06125.04461-.08901.10034-.06125z"/><path d="m15.44142 19.47715c.00558.02232.01116.03893.01116.05553v.51856c0 .06697-.04461.08928-.10034.06125l-.4516-.26187c-.01671-.01116-.03345-.02777-.04457-.04464-.01116-.01116-.02232-.02232-.02787-.03893-.01116-.01688-.01674-.03348-.02232-.05036-.00558-.0166-.00558-.02777-.00558-.03893v-.52972c0-.01661 0-.02777.01674-.03893.00558-.02777.04461-.03893.0836-.01688l.4516.26214c.01671.01116.02787.02232.03899.03893.02232.02233.03903.05582.05019.08385z"/><path d="m16.19959 18.88618c.05577.02777.10034.10589.09476.16714v.51856c0 .06696-.04457.09473-.10034.06125l-.44598-.26214c-.05573-.03321-.10034-.11133-.10034-.17258v-.51856c0-.06125.04461-.08928.10034-.0558z"/><path d="m17.13617 20.45276c0 .02232.00558.03893.00558.05553v.51856c0 .06696-.04461.09473-.10034.06125l-.45156-.26187c-.02229-.01116-.05019-.04464-.0669-.07241-.02229-.03348-.03345-.07268-.03345-.10045v-.52401c0-.06696.04461-.08928.10034-.06152l.45156.26214c.01674.01116.03345.02232.03903.03893.02229.02233.03903.05581.05574.08385z"/><path d="m16.26649 19.91759c.01674.03321.03345.07241.02787.10589v.51829c0 .06152-.04457.08928-.10034.0558l-.44598-.25642c-.01671-.01116-.03345-.02777-.04461-.04464-.02229-.02232-.03899-.05009-.05015-.08357-.00558-.02232-.01116-.03893-.01116-.0558l.00558-.5074v-.01089c0-.01688 0-.02804.01674-.0392 0-.03348.03345-.04464.07802-.01661l.00558.00545.44598.25098c.0279.0166.05018.04464.07247.07812z"/><path d="m17.14175 19.54412v.51829c0 .06125-.04461.08928-.10034.0558l-.45156-.25642c-.05019-.03348-.10034-.11161-.10034-.17285l.00558-.51856c0-.06125.04457-.08901.10034-.0558l.44598.25642c.05573.03375.10034.1116.10034.17312z"/></g></g><g><g><path d="m17.91181 20.23969c.22898.1322.41326.45138.41252.71457-.00074.26118-.18622.36687-.41521.23467-.22898-.1322-.41326-.45138-.41252-.71256.00075-.26319.18623-.36888.41521-.23668z" fill="#75ca75"/></g><g><path d="m18.92782 20.82628c.22898.1322.41326.45138.41252.71457-.00074.26118-.18623.36687-.41521.23467-.22729-.13122-.41157-.4504-.41083-.71158.00075-.26319.18623-.36888.41352-.23766z" fill="#f9bb4a"/></g><g><path d="m19.94552 21.41385c.22729.13122.41157.4504.41082.71359-.00074.26118-.18623.36687-.41351.23565-.22898-.1322-.41326-.45138-.41252-.71256.00074-.26319.18623-.36888.41521-.23668z" fill="#e63044"/></g><g><path d="m20.96153 22.00044c.22898.1322.41326.45138.41252.71457-.00074.26118-.18623.36687-.41521.23467s-.41326-.45138-.41252-.71256c.00074-.26319.18623-.36888.41521-.23668z" fill="#576cfb"/></g></g><g><path d="m23.55413 23.26424c.15589.09001.28483.31337.28431.49617l-.00254.89579c-.00052.183-.1303.25699-.28619.16699l-1.61204-.93071c-.15921-.09192-.28815-.31529-.28764-.49829l.00254-.89579c.00052-.1828.13031-.25678.28952-.16487z" fill="#75ca75"/></g></g><g><g><g enable-background="new"><g><path d="m24.49383 26.52969-.0124 2.43091-12.32659-7.11757.0124-2.4309z" fill="#3f434f"/></g></g></g><g><ellipse cx="13.43" cy="21.375" fill="#363a44" rx=".623" ry="1.076" transform="matrix(.865 -.503 .503 .865 -8.922 9.644)"/></g><g><g fill="#bac1ce"><path d="m15.35224 21.61694c.05573.03375.10034.1116.10034.17313v.51829c0 .06125-.04461.08929-.10034.0558l-.4516-.25642c-.05574-.03348-.10034-.11161-.10034-.17285v-.51856c0-.06125.04461-.08901.10034-.06125z"/><path d="m15.44142 22.69871c.00558.02232.01116.03893.01116.05553v.51856c0 .06697-.04461.08928-.10034.06125l-.4516-.26187c-.01671-.01116-.03345-.02777-.04457-.04464-.01116-.01116-.02232-.02232-.02787-.03893-.01116-.01688-.01674-.03348-.02232-.05036-.00558-.0166-.00558-.02777-.00558-.03893v-.52972c0-.01661 0-.02777.01674-.03893.00558-.02777.04461-.03893.0836-.01688l.4516.26214c.01671.01116.02787.02232.03899.03893.02232.02233.03903.05581.05019.08385z"/><path d="m16.19959 22.10774c.05577.02777.10034.10589.09476.16714v.51856c0 .06696-.04457.09473-.10034.06125l-.44598-.26214c-.05573-.03321-.10034-.11133-.10034-.17258v-.51857c0-.06125.04461-.08928.10034-.0558z"/><path d="m17.13617 23.67431c0 .02232.00558.03893.00558.05553v.51856c0 .06696-.04461.09473-.10034.06125l-.45156-.26187c-.02229-.01116-.05019-.04464-.0669-.07241-.02229-.03348-.03345-.07268-.03345-.10045v-.52401c0-.06696.04461-.08928.10034-.06152l.45156.26214c.01674.01116.03345.02232.03903.03893.02229.02233.03903.05581.05574.08385z"/><path d="m16.26649 23.13914c.01674.03321.03345.07241.02787.10589v.51829c0 .06152-.04457.08928-.10034.0558l-.44598-.25642c-.01671-.01116-.03345-.02777-.04461-.04464-.02229-.02232-.03899-.05009-.05015-.08357-.00558-.02232-.01116-.03893-.01116-.0558l.00558-.5074v-.01089c0-.01688 0-.02804.01674-.0392 0-.03348.03345-.04464.07802-.01661l.00558.00545.44598.25098c.0279.01661.05018.04464.07247.07812z"/><path d="m17.14175 22.76567v.51829c0 .06125-.04461.08928-.10034.0558l-.45156-.25642c-.05019-.03348-.10034-.11161-.10034-.17285l.00558-.51856c0-.06125.04457-.08901.10034-.0558l.44598.25642c.05573.03375.10034.1116.10034.17312z"/></g></g><g><g><path d="m17.91181 23.46125c.22898.1322.41326.45138.41252.71457-.00074.26118-.18622.36687-.41521.23467-.22898-.1322-.41326-.45138-.41252-.71256.00075-.26319.18623-.36889.41521-.23668z" fill="#75ca75"/></g><g><path d="m18.92782 24.04784c.22898.1322.41326.45138.41252.71457-.00074.26118-.18623.36687-.41521.23467-.22729-.13122-.41157-.4504-.41083-.71158.00075-.26319.18623-.36889.41352-.23766z" fill="#f9bb4a"/></g><g><path d="m19.94552 24.63541c.22729.13122.41157.4504.41082.71359-.00074.26118-.18623.36687-.41351.23565-.22898-.1322-.41326-.45138-.41252-.71256.00074-.26319.18623-.36889.41521-.23668z" fill="#e63044"/></g><g><path d="m20.96153 25.222c.22898.1322.41326.45138.41252.71457-.00074.26118-.18623.36687-.41521.23467s-.41326-.45138-.41252-.71256c.00074-.26319.18623-.36888.41521-.23668z" fill="#576cfb"/></g></g><g><path d="m23.55413 26.4858c.15589.09001.28483.31337.28431.49617l-.00254.89579c-.00052.183-.1303.25699-.28619.16699l-1.61204-.93071c-.15921-.09192-.28815-.31529-.28764-.49829l.00254-.89579c.00052-.1828.13031-.25678.28952-.16487z" fill="#75ca75"/></g></g><g><g><g enable-background="new"><g><path d="m24.49383 29.75125-.0124 2.4309-12.32659-7.11756.0124-2.43091z" fill="#3f434f"/></g></g></g><g><ellipse cx="13.43" cy="24.597" fill="#363a44" rx=".623" ry="1.076" transform="matrix(.865 -.503 .503 .865 -10.541 10.08)"/></g><g><g fill="#bac1ce"><path d="m15.35224 24.8385c.05573.03375.10034.1116.10034.17312v.51829c0 .06125-.04461.08929-.10034.0558l-.4516-.25642c-.05574-.03348-.10034-.11161-.10034-.17285v-.51856c0-.06125.04461-.08901.10034-.06125z"/><path d="m15.44142 25.92026c.00558.02232.01116.03893.01116.05553v.51856c0 .06697-.04461.08928-.10034.06125l-.4516-.26187c-.01671-.01116-.03345-.02777-.04457-.04464-.01116-.01116-.02232-.02232-.02787-.03893-.01116-.01688-.01674-.03348-.02232-.05036-.00558-.0166-.00558-.02777-.00558-.03893v-.52972c0-.01661 0-.02777.01674-.03893.00558-.02777.04461-.03893.0836-.01688l.4516.26214c.01671.01116.02787.02232.03899.03893.02232.02233.03903.05582.05019.08385z"/><path d="m16.19959 25.32929c.05577.02777.10034.10589.09476.16714v.51856c0 .06696-.04457.09473-.10034.06125l-.44598-.26214c-.05573-.03321-.10034-.11133-.10034-.17258v-.51856c0-.06125.04461-.08928.10034-.0558z"/><path d="m17.13617 26.89587c0 .02232.00558.03893.00558.05553v.51856c0 .06696-.04461.09473-.10034.06125l-.45156-.26187c-.02229-.01116-.05019-.04464-.0669-.07241-.02229-.03348-.03345-.07268-.03345-.10045v-.52401c0-.06696.04461-.08928.10034-.06152l.45156.26214c.01674.01116.03345.02232.03903.03893.02229.02233.03903.05581.05574.08385z"/><path d="m16.26649 26.3607c.01674.03321.03345.07241.02787.10589v.51829c0 .06152-.04457.08928-.10034.0558l-.44598-.25642c-.01671-.01116-.03345-.02777-.04461-.04464-.02229-.02232-.03899-.05009-.05015-.08357-.00558-.02232-.01116-.03893-.01116-.0558l.00558-.5074v-.01089c0-.01688 0-.02804.01674-.0392 0-.03348.03345-.04464.07802-.01661l.00558.00545.44598.25098c.0279.0166.05018.04464.07247.07812z"/><path d="m17.14175 25.98723v.51829c0 .06125-.04461.08928-.10034.0558l-.45156-.25642c-.05019-.03348-.10034-.11161-.10034-.17285l.00558-.51856c0-.06125.04457-.08901.10034-.0558l.44598.25642c.05573.03375.10034.1116.10034.17312z"/></g></g><g><g><path d="m17.91181 26.6828c.22898.1322.41326.45138.41252.71457-.00074.26118-.18622.36687-.41521.23467-.22898-.1322-.41326-.45138-.41252-.71256.00075-.26319.18623-.36888.41521-.23668z" fill="#75ca75"/></g><g><path d="m18.92782 27.26939c.22898.1322.41326.45138.41252.71457-.00074.26118-.18623.36687-.41521.23467-.22729-.13122-.41157-.4504-.41083-.71158.00075-.26319.18623-.36888.41352-.23766z" fill="#f9bb4a"/></g><g><path d="m19.94552 27.85696c.22729.13122.41157.4504.41082.71359-.00074.26118-.18623.36687-.41351.23565-.22898-.1322-.41326-.45138-.41252-.71256.00074-.26319.18623-.36888.41521-.23668z" fill="#e63044"/></g><g><path d="m20.96153 28.44355c.22898.1322.41326.45138.41252.71457-.00074.26118-.18623.36687-.41521.23467s-.41326-.45138-.41252-.71256c.00074-.26319.18623-.36888.41521-.23668z" fill="#576cfb"/></g></g><g><path d="m23.55413 29.70736c.15589.09001.28483.31337.28431.49617l-.00254.89579c-.00052.183-.1303.25699-.28619.16699l-1.61204-.93071c-.15921-.09192-.28815-.31529-.28764-.49829l.00254-.89579c.00052-.1828.13031-.25678.28952-.16487z" fill="#75ca75"/></g></g><g><g><g enable-background="new"><g><path d="m24.49383 32.9728-.0124 2.43091-12.32659-7.11757.0124-2.4309z" fill="#3f434f"/></g></g></g><g><ellipse cx="13.43" cy="27.818" fill="#363a44" rx=".623" ry="1.076" transform="matrix(.865 -.503 .503 .865 -12.16 10.516)"/></g><g><g fill="#bac1ce"><path d="m15.35224 28.06005c.05573.03375.10034.1116.10034.17312v.51829c0 .06125-.04461.08929-.10034.0558l-.4516-.25642c-.05574-.03348-.10034-.11161-.10034-.17285v-.51856c0-.06125.04461-.08901.10034-.06125z"/><path d="m15.44142 29.14182c.00558.02232.01116.03893.01116.05553v.51856c0 .06697-.04461.08928-.10034.06125l-.4516-.26187c-.01671-.01116-.03345-.02777-.04457-.04464-.01116-.01116-.02232-.02232-.02787-.03893-.01116-.01688-.01674-.03348-.02232-.05036-.00558-.01661-.00558-.02777-.00558-.03893v-.52972c0-.01661 0-.02777.01674-.03893.00558-.02777.04461-.03893.0836-.01688l.4516.26214c.01671.01116.02787.02232.03899.03893.02232.02233.03903.05581.05019.08385z"/><path d="m16.19959 28.55085c.05577.02777.10034.10589.09476.16714v.51856c0 .06696-.04457.09473-.10034.06125l-.44598-.26214c-.05573-.03321-.10034-.11133-.10034-.17258v-.51856c0-.06125.04461-.08928.10034-.0558z"/><path d="m17.13617 30.11742c0 .02232.00558.03893.00558.05553v.51856c0 .06696-.04461.09473-.10034.06125l-.45156-.26187c-.02229-.01116-.05019-.04464-.0669-.07241-.02229-.03348-.03345-.07268-.03345-.10045v-.52401c0-.06696.04461-.08928.10034-.06152l.45156.26214c.01674.01116.03345.02232.03903.03893.02229.02233.03903.05582.05574.08385z"/><path d="m16.26649 29.58226c.01674.03321.03345.07241.02787.10589v.51829c0 .06152-.04457.08928-.10034.0558l-.44598-.25642c-.01671-.01116-.03345-.02777-.04461-.04464-.02229-.02232-.03899-.05009-.05015-.08357-.00558-.02232-.01116-.03893-.01116-.0558l.00558-.5074v-.01089c0-.01688 0-.02804.01674-.0392 0-.03348.03345-.04464.07802-.01661l.00558.00545.44598.25098c.0279.0166.05018.04463.07247.07812z"/><path d="m17.14175 29.20878v.51829c0 .06125-.04461.08928-.10034.0558l-.45156-.25642c-.05019-.03348-.10034-.11161-.10034-.17285l.00558-.51856c0-.06125.04457-.08901.10034-.0558l.44598.25642c.05573.03375.10034.1116.10034.17312z"/></g></g><g><g><path d="m17.91181 29.90436c.22898.1322.41326.45138.41252.71457-.00074.26118-.18622.36687-.41521.23467-.22898-.1322-.41326-.45138-.41252-.71256.00075-.26319.18623-.36889.41521-.23668z" fill="#75ca75"/></g><g><path d="m18.92782 30.49095c.22898.1322.41326.45138.41252.71457-.00074.26118-.18623.36687-.41521.23467-.22729-.13122-.41157-.4504-.41083-.71158.00075-.26319.18623-.36888.41352-.23766z" fill="#f9bb4a"/></g><g><path d="m19.94552 31.07852c.22729.13123.41157.4504.41082.71359-.00074.26118-.18623.36687-.41351.23565-.22898-.1322-.41326-.45138-.41252-.71256.00074-.26319.18623-.36888.41521-.23668z" fill="#e63044"/></g><g><path d="m20.96153 31.66511c.22898.1322.41326.45138.41252.71457-.00074.26118-.18623.36687-.41521.23467s-.41326-.45138-.41252-.71256c.00074-.26319.18623-.36888.41521-.23668z" fill="#576cfb"/></g></g><g><path d="m23.55413 32.92891c.15589.09.28483.31337.28431.49616l-.00254.89579c-.00052.18301-.1303.257-.28619.16699l-1.61204-.93071c-.15921-.09192-.28815-.31529-.28764-.49829l.00254-.89579c.00052-.1828.13031-.25678.28952-.16487z" fill="#75ca75"/></g></g><g><g><g enable-background="new"><g><path d="m24.49383 36.19436-.0124 2.4309-12.32659-7.11756.0124-2.43091z" fill="#3f434f"/></g></g></g><g><ellipse cx="13.43" cy="31.04" fill="#363a44" rx=".623" ry="1.076" transform="matrix(.865 -.503 .503 .865 -13.779 10.952)"/></g><g><g fill="#bac1ce"><path d="m15.35224 31.28161c.05573.03375.10034.11161.10034.17313v.51829c0 .06125-.04461.08928-.10034.0558l-.4516-.25642c-.05574-.03348-.10034-.11161-.10034-.17285v-.51856c0-.06125.04461-.08901.10034-.06125z"/><path d="m15.44142 32.36338c.00558.02232.01116.03893.01116.05553v.51856c0 .06696-.04461.08928-.10034.06124l-.4516-.26187c-.01671-.01116-.03345-.02776-.04457-.04464-.01116-.01116-.02232-.02232-.02787-.03893-.01116-.01688-.01674-.03348-.02232-.05036-.00558-.01661-.00558-.02776-.00558-.03893v-.52972c0-.01661 0-.02776.01674-.03893.00558-.02777.04461-.03893.0836-.01688l.4516.26214c.01671.01116.02787.02232.03899.03893.02232.02234.03903.05582.05019.08386z"/><path d="m16.19959 31.77241c.05577.02777.10034.10589.09476.16714v.51856c0 .06697-.04457.09473-.10034.06125l-.44598-.26214c-.05573-.03321-.10034-.11134-.10034-.17258v-.51856c0-.06125.04461-.08929.10034-.0558z"/><path d="m17.13617 33.33898c0 .02232.00558.03893.00558.05553v.51856c0 .06696-.04461.09473-.10034.06125l-.45156-.26187c-.02229-.01116-.05019-.04464-.0669-.07241-.02229-.03348-.03345-.07268-.03345-.10045v-.52401c0-.06696.04461-.08928.10034-.06152l.45156.26214c.01674.01116.03345.02232.03903.03893.02229.02233.03903.05581.05574.08385z"/><path d="m16.26649 32.80381c.01674.03321.03345.07241.02787.10589v.51829c0 .06152-.04457.08928-.10034.0558l-.44598-.25642c-.01671-.01116-.03345-.02776-.04461-.04464-.02229-.02232-.03899-.05009-.05015-.08357-.00558-.02232-.01116-.03893-.01116-.05581l.00558-.5074v-.01089c0-.01688 0-.02804.01674-.0392 0-.03348.03345-.04464.07802-.01661l.00558.00544.44598.25098c.0279.01662.05018.04466.07247.07814z"/><path d="m17.14175 32.43034v.51829c0 .06125-.04461.08929-.10034.05581l-.45156-.25642c-.05019-.03348-.10034-.11161-.10034-.17285l.00558-.51856c0-.06125.04457-.08901.10034-.05581l.44598.25642c.05573.03375.10034.1116.10034.17312z"/></g></g><g><g><path d="m17.91181 33.12591c.22898.13221.41326.45138.41252.71457-.00074.26118-.18622.36687-.41521.23467-.22898-.1322-.41326-.45138-.41252-.71256.00075-.26319.18623-.36888.41521-.23668z" fill="#75ca75"/></g><g><path d="m18.92782 33.71251c.22898.1322.41326.45138.41252.71457-.00074.26118-.18623.36687-.41521.23467-.22729-.13122-.41157-.4504-.41083-.71158.00075-.2632.18623-.36889.41352-.23766z" fill="#f9bb4a"/></g><g><path d="m19.94552 34.30008c.22729.13123.41157.4504.41082.71359-.00074.26118-.18623.36687-.41351.23565-.22898-.1322-.41326-.45138-.41252-.71256.00074-.2632.18623-.36889.41521-.23668z" fill="#e63044"/></g><g><path d="m20.96153 34.88667c.22898.1322.41326.45138.41252.71457-.00074.26118-.18623.36687-.41521.23467s-.41326-.45138-.41252-.71256c.00074-.26319.18623-.36889.41521-.23668z" fill="#576cfb"/></g></g><g><path d="m23.55413 36.15047c.15589.09.28483.31337.28431.49617l-.00254.89579c-.00052.183-.1303.25699-.28619.16699l-1.61204-.93071c-.15921-.09192-.28815-.31528-.28764-.49829l.00254-.89579c.00052-.1828.13031-.25678.28952-.16486z" fill="#75ca75"/></g></g><g><g><g enable-background="new"><g><path d="m24.49383 39.41591-.0124 2.43091-12.32659-7.11756.0124-2.43091z" fill="#3f434f"/></g></g></g><g><ellipse cx="13.43" cy="34.262" fill="#363a44" rx=".623" ry="1.076" transform="matrix(.865 -.503 .503 .865 -15.398 11.389)"/></g><g><g fill="#bac1ce"><path d="m15.35224 34.50317c.05573.03375.10034.11161.10034.17313v.51829c0 .06125-.04461.08929-.10034.05581l-.4516-.25642c-.05574-.03348-.10034-.11161-.10034-.17286v-.51856c0-.06125.04461-.08902.10034-.06125z"/><path d="m15.44142 35.58493c.00558.02232.01116.03893.01116.05553v.51856c0 .06696-.04461.08929-.10034.06125l-.4516-.26187c-.01671-.01116-.03345-.02777-.04457-.04464-.01116-.01116-.02232-.02232-.02787-.03893-.01116-.01688-.01674-.03348-.02232-.05036-.00558-.01661-.00558-.02777-.00558-.03893v-.52972c0-.01661 0-.02777.01674-.03893.00558-.02777.04461-.03893.0836-.01688l.4516.26214c.01671.01116.02787.02232.03899.03893.02232.02233.03903.05581.05019.08385z"/><path d="m16.19959 34.99396c.05577.02777.10034.10589.09476.16714v.51856c0 .06696-.04457.09473-.10034.06125l-.44598-.26214c-.05573-.03321-.10034-.11133-.10034-.17258v-.51856c0-.06124.04461-.08928.10034-.0558z"/><path d="m17.13617 36.56054c0 .02232.00558.03893.00558.05553v.51856c0 .06696-.04461.09473-.10034.06124l-.45156-.26186c-.02229-.01116-.05019-.04464-.0669-.07241-.02229-.03348-.03345-.07268-.03345-.10044v-.52401c0-.06696.04461-.08929.10034-.06152l.45156.26214c.01674.01116.03345.02232.03903.03893.02229.02232.03903.0558.05574.08384z"/><path d="m16.26649 36.02537c.01674.03321.03345.07241.02787.10589v.51829c0 .06152-.04457.08929-.10034.0558l-.44598-.25642c-.01671-.01116-.03345-.02777-.04461-.04464-.02229-.02232-.03899-.05009-.05015-.08357-.00558-.02232-.01116-.03893-.01116-.0558l.00558-.5074v-.01089c0-.01688 0-.02804.01674-.0392 0-.03348.03345-.04464.07802-.0166l.00558.00544.44598.25098c.0279.0166.05018.04464.07247.07812z"/><path d="m17.14175 35.65189v.51829c0 .06124-.04461.08928-.10034.0558l-.45156-.25642c-.05019-.03348-.10034-.11161-.10034-.17286l.00558-.51856c0-.06124.04457-.08901.10034-.0558l.44598.25642c.05573.03376.10034.11161.10034.17313z"/></g></g><g><g><path d="m17.91181 36.34747c.22898.13221.41326.45138.41252.71457-.00074.26118-.18622.36688-.41521.23467-.22898-.1322-.41326-.45138-.41252-.71256.00075-.26319.18623-.36888.41521-.23668z" fill="#75ca75"/></g><g><path d="m18.92782 36.93406c.22898.13221.41326.45138.41252.71457-.00074.26118-.18623.36687-.41521.23467-.22729-.13122-.41157-.4504-.41083-.71158.00075-.26319.18623-.36888.41352-.23766z" fill="#f9bb4a"/></g><g><path d="m19.94552 37.52163c.22729.13123.41157.4504.41082.71359-.00074.26118-.18623.36687-.41351.23565-.22898-.1322-.41326-.45138-.41252-.71256.00074-.26319.18623-.36888.41521-.23668z" fill="#e63044"/></g><g><path d="m20.96153 38.10822c.22898.1322.41326.45138.41252.71457-.00074.26118-.18623.36687-.41521.23467s-.41326-.45138-.41252-.71256c.00074-.26319.18623-.36888.41521-.23668z" fill="#576cfb"/></g></g><g><path d="m23.55413 39.37202c.15589.09.28483.31337.28431.49616l-.00254.89579c-.00052.18301-.1303.257-.28619.16699l-1.61204-.93071c-.15921-.09192-.28815-.31529-.28764-.49829l.00254-.89579c.00052-.1828.13031-.25679.28952-.16486z" fill="#75ca75"/></g></g></g></g><g><g><g enable-background="new"><g fill="#3f434f"><path d="m17.59431 6.65405-3.98929 2.31833-.26351-.15214 3.9893-2.31832z"/><path d="m17.59431 6.65405-3.98929 2.31833-.26351-.15214 3.9893-2.31832z"/></g></g></g><g><g enable-background="new"><g fill="#3f434f"><path d="m18.04398 6.91724-3.98929 2.31832-.26351-.15213 3.9893-2.31833z"/><path d="m18.04398 6.91724-3.98929 2.31832-.26351-.15213 3.9893-2.31833z"/></g></g></g><g><g enable-background="new"><g fill="#3f434f"><path d="m18.49365 7.18042-3.9893 2.31832-.2635-.15213 3.9893-2.31832z"/><path d="m18.49365 7.18042-3.9893 2.31832-.2635-.15213 3.9893-2.31832z"/></g></g></g><g><g enable-background="new"><g fill="#3f434f"><path d="m18.94332 7.4436-3.9893 2.31833-.2635-.15213 3.9893-2.31833z"/><path d="m18.94332 7.4436-3.9893 2.31833-.2635-.15213 3.9893-2.31833z"/></g></g></g><g><g enable-background="new"><g fill="#3f434f"><path d="m19.39299 7.70679-3.9893 2.31832-.2635-.15213 3.98929-2.31833z"/><path d="m19.39299 7.70679-3.9893 2.31832-.2635-.15213 3.98929-2.31833z"/></g></g></g><g><g enable-background="new"><g fill="#3f434f"><path d="m19.84265 7.96997-3.98929 2.31833-.2635-.15214 3.98929-2.31832z"/><path d="m19.84265 7.96997-3.98929 2.31833-.2635-.15214 3.98929-2.31832z"/></g></g></g><g><g enable-background="new"><g fill="#3f434f"><path d="m20.29232 8.23315-3.98929 2.31833-.26351-.15213 3.9893-2.31833z"/><path d="m20.29232 8.23315-3.98929 2.31833-.26351-.15213 3.9893-2.31833z"/></g></g></g><g><g enable-background="new"><g fill="#3f434f"><path d="m20.74199 8.49634-3.9893 2.31832-.2635-.15213 3.9893-2.31833z"/><path d="m20.74199 8.49634-3.9893 2.31832-.2635-.15213 3.9893-2.31833z"/></g></g></g><g><g enable-background="new"><g fill="#3f434f"><path d="m21.19166 8.75952-3.9893 2.31833-.2635-.15214 3.9893-2.31832z"/><path d="m21.19166 8.75952-3.9893 2.31833-.2635-.15214 3.9893-2.31832z"/></g></g></g><g><g enable-background="new"><g fill="#3f434f"><path d="m21.64133 9.02271-3.9893 2.31832-.2635-.15213 3.98929-2.31833z"/><path d="m21.64133 9.02271-3.9893 2.31832-.2635-.15213 3.98929-2.31833z"/></g></g></g><g><g enable-background="new"><g fill="#3f434f"><path d="m22.09099 9.28589-3.98929 2.31832-.2635-.15213 3.98929-2.31832z"/><path d="m22.09099 9.28589-3.98929 2.31832-.2635-.15213 3.98929-2.31832z"/></g></g></g><g><g enable-background="new"><g fill="#3f434f"><path d="m22.54066 9.54907-3.98929 2.31833-.26351-.15213 3.9893-2.31833z"/><path d="m22.54066 9.54907-3.98929 2.31833-.26351-.15213 3.9893-2.31833z"/></g></g></g></g></g></g></g></g></svg>