<?xml version="1.0" encoding="iso-8859-1"?>
<!-- Generator: Adobe Illustrator 19.0.0, SVG Export Plug-In . SVG Version: 6.00 Build 0)  -->
<svg version="1.1" id="Layer_1" xmlns="http://www.w3.org/2000/svg" xmlns:xlink="http://www.w3.org/1999/xlink" x="0px" y="0px"
	 viewBox="0 0 512 512" style="enable-background:new 0 0 512 512;" xml:space="preserve">
<path style="fill:#CCCCCC;" d="M451.357,0C484.851,0,512,27.152,512,60.643v390.716C512,484.847,484.851,512,451.357,512H60.642
	C27.147,512,0,484.847,0,451.358V60.643C0,27.152,27.147,0,60.642,0"/>
<path style="fill:#DBDDDD;" d="M384.403,0H60.642C27.147,0,0,27.152,0,60.643v301.551c0,33.488,27.147,60.642,60.642,60.642h390.716
	c33.494,0,60.643-27.153,60.643-60.642V60.643C512,27.152,484.851,0,451.357,0h-37.976"/>
<path style="fill:#F5F5F5;" d="M314.209,193.723c-0.58-1.987-2.045-3.594-3.971-4.351c-1.927-0.759-4.094-0.581-5.873,0.477
	c-3.734,2.225-8.016,3.401-12.384,3.401c-13.366,0-24.241-10.875-24.241-24.241c0-2.409,0.35-4.784,1.042-7.056
	c0.581-1.911,0.278-3.981-0.826-5.644c-1.105-1.664-2.896-2.747-4.881-2.952c-2.225-0.231-4.487-0.349-6.723-0.349
	c-33.014,0-59.87,24.615-59.87,54.87s26.857,54.87,59.87,54.87c33.011,0,59.869-24.614,59.869-54.87
	C316.222,203.066,315.544,198.305,314.209,193.723z"/>
<path style="opacity:0.05;fill:#231F20;enable-background:new    ;" d="M214.316,207.877c0-23.042,13.502-43.241,33.631-54.319
	c-29.046,3.758-51.464,26.68-51.464,54.319s22.417,50.558,51.462,54.318C227.816,251.117,214.316,230.917,214.316,207.877z"/>
<path style="fill:#DBDDDD;" d="M440.779,454.193h-84.708H156.632H71.924c-5.867,0-10.623,4.757-10.623,10.623v6.196
	c0,5.867,4.757,10.623,10.623,10.623h57.24h26.353h200.554h84.708c5.867,0,10.623-4.757,10.623-10.623v-6.196
	C451.402,458.95,446.645,454.193,440.779,454.193z"/>
<path style="opacity:0.15;fill:#231F20;enable-background:new    ;" d="M17.833,451.358V60.643C17.833,27.152,44.98,0,78.475,0
	H60.642C27.147,0,0,27.152,0,60.643v390.716C0,484.847,27.147,512,60.642,512h17.833C44.98,512,17.833,484.847,17.833,451.358z"/>
<g>
</g>
<g>
</g>
<g>
</g>
<g>
</g>
<g>
</g>
<g>
</g>
<g>
</g>
<g>
</g>
<g>
</g>
<g>
</g>
<g>
</g>
<g>
</g>
<g>
</g>
<g>
</g>
<g>
</g>
</svg>
