<svg id="Layer_1" enable-background="new 0 0 64 64" height="512" viewBox="0 0 64 64" width="512" xmlns="http://www.w3.org/2000/svg"><path d="m51.56 56h-39.12l1.56-12h5 2 22 2 5z" fill="#e3eeec"/><path d="m46.239 29c-.69 3.38-1.07 7.27-1.18 10.08-.05 1.07-.93 1.92-2 1.92h-22.118c-1.07 0-1.95-.85-2-1.92-.11-2.81-.49-6.7-1.18-10.08z" fill="#bad3ce"/><path d="m47.999 11.43c-.05 2.95-.25 9.7-.98 13.57-.3 1.56-.56 2.87-.78 4h-28.478c-.22-1.13-.48-2.44-.78-4-.73-3.87-.93-10.62-.98-13.57-.02-.89.56-1.69 1.42-1.94 2.009-.59 7.289-1.49 14.579-1.49s12.57.9 14.58 1.49c.859.25 1.44 1.05 1.419 1.94z" fill="#cadfdc"/><path d="m48 11.43c0 .24-.01.5-.02.79-.06-.81-.61-1.5-1.4-1.73-2.01-.59-7.29-1.49-14.58-1.49s-12.57.9-14.58 1.49c-.8.24-1.36.94-1.41 1.76 0-.3-.01-.57-.01-.82-.02-.89.56-1.69 1.42-1.94 2.01-.59 7.29-1.49 14.58-1.49s12.57.9 14.58 1.49c.86.25 1.44 1.05 1.42 1.94z" fill="#e3eeec"/><path d="m20.98 12h22.039v13h-22.039z" fill="#333"/><path d="m40 39 .02-2v-1h-16.04v1l.02 2z" fill="#a3c4bd"/><path d="m28.98 33.5h-7c-.276 0-.5-.224-.5-.5s.224-.5.5-.5h7c.276 0 .5.224.5.5s-.223.5-.5.5z" fill="#333"/><path d="m42.02 33.5h-7c-.276 0-.5-.224-.5-.5s.224-.5.5-.5h7c.276 0 .5.224.5.5s-.224.5-.5.5z" fill="#333"/><path d="m20.98 25 22.04-13v13z" fill="#383838"/><path d="m23.98 36h16.02v1h-16.02z" fill="#8cb5ad"/><path d="m26 41h12v3h-12z" fill="#a3c4bd"/><path d="m25.5 50-.5 3h-3l.5-3z" fill="#b5d0ca"/><path d="m26 47-.5 3h-3l.5-3z" fill="#c4d9d5"/><path d="m29 47-.5 3h-3l.5-3z" fill="#b5d0ca"/><path d="m28.5 50-.5 3h-3l.5-3z" fill="#c4d9d5"/><path d="m19.5 50-.5 3h-3l.5-3z" fill="#b5d0ca"/><path d="m20 47-.5 3h-3l.5-3z" fill="#c4d9d5"/><path d="m23 47-.5 3h-3l.5-3z" fill="#b5d0ca"/><g fill="#c4d9d5"><path d="m22.5 50-.5 3h-3l.5-3z"/><path d="m32 47v3h-3.5l.5-3z"/><path d="m35.5 50h-3.5v-3h3z"/></g><path d="m36 53h-8l.5-3h7z" fill="#b5d0ca"/><path d="m38.5 50h-3l-.5-3h3z" fill="#b5d0ca"/><path d="m39 53h-3l-.5-3h3z" fill="#c4d9d5"/><path d="m42 53h-3l-.5-3h3z" fill="#b5d0ca"/><path d="m41.5 50h-3l-.5-3h3z" fill="#c4d9d5"/><path d="m45 53h-3l-.5-3h3z" fill="#c4d9d5"/><path d="m44.5 50h-3l-.5-3h3z" fill="#b5d0ca"/><path d="m48 53h-3l-.5-3h3z" fill="#b5d0ca"/><path d="m47.5 50h-3l-.5-3h3z" fill="#c4d9d5"/></svg>