<svg id="Layer_1" enable-background="new 0 0 64 64" height="512" viewBox="0 0 64 64" width="512" xmlns="http://www.w3.org/2000/svg"><path d="m45 44v-34c0-1.105-.895-2-2-2h-22c-1.105 0-2 .895-2 2v34s-.065 4.229.663 8.358c.168.952 1.005 1.642 1.971 1.642h10.366 10.366c.967 0 1.804-.69 1.971-1.642.728-4.129.663-8.358.663-8.358z" fill="#3f3f3f"/><path d="m45 10v1c0-1.1-.9-2-2-2h-22c-1.1 0-2 .9-2 2v-1c0-1.1.9-2 2-2h22c1.1 0 2 .9 2 2z" fill="#bebebe"/><path d="m23 12h18v25h-18z" fill="#e3eeec"/><path d="m23 37v2s3.042 2 9 2 9-2 9-2v-2z" fill="#8cb5ad"/><g fill="#5c5c5c"><circle cx="39.5" cy="47.5" r=".5"/><circle cx="37.5" cy="47.5" r=".5"/><circle cx="35.5" cy="47.5" r=".5"/><circle cx="39.5" cy="45.5" r=".5"/><circle cx="37.5" cy="45.5" r=".5"/><circle cx="35.5" cy="45.5" r=".5"/><circle cx="35.5" cy="49.5" r=".5"/><circle cx="37.5" cy="49.5" r=".5"/><circle cx="39.5" cy="49.5" r=".5"/></g><path d="m23 37 18-25v25z" fill="#cadfdc"/></svg>