<svg height="512" viewBox="0 0 48 48" width="512" xmlns="http://www.w3.org/2000/svg"><g id="_19-green_apple" data-name="19-green apple"><path d="m5 24c0 12.16 6.71 23 15 23 2 0 1.79-1 4-1s2 1 4 1c8.29 0 15-10.84 15-23 0-9.94-9.06-13-19-13s-19 3.06-19 13z" fill="#baec35"/><path d="m28 5c-3.83 0-5.95 5.34-6 10.81a9.63 9.63 0 0 0 2 .19 9.5 9.5 0 0 0 1.98-.19c-.89-6.85 4.02-8.81 4.02-8.81z" fill="#436600"/><path d="m5 2s2 9 16 9h2v-2c0-4.42-5.03-8-10-8 0 0-6 0-8 1z" fill="#4e8c00"/><path d="m5 24c0 12.16 6.71 23 15 23 2 0 1.79-1 4-1s2 1 4 1c8.29 0 15-10.84 15-23 0-9.94-9.06-13-19-13s-19 3.06-19 13z" fill="#baec35"/><path d="m24 11c-9.94 0-19 3.06-19 13 0 12.16 6.71 23 15 23 2 0 1.79-1 4-1s2 1 4 1c8.29 0 15-10.84 15-23 0-9.94-9.06-13-19-13zm5.368 32c-1.684 0-1.507-.833-3.368-.833s-1.684.833-3.368.833c-6.981 0-12.632-9.033-12.632-19.167 0-8.283 7.629-11.833 16-11.833s16 3.55 16 11.833c0 10.134-5.651 19.167-12.632 19.167z" fill="#8bc808"/><path d="m19 14s1-1 5-1 5 1 5 1-1 2-5 2-5-2-5-2z" fill="#4e8c00"/><path d="m28 5c-3.83 0-5.95 5.34-6 10.81a9.63 9.63 0 0 0 2 .19 9.5 9.5 0 0 0 1.98-.19c-.89-6.85 4.02-8.81 4.02-8.81z" fill="#527710"/><path d="m28.665 5.665 1.335 1.335s-4.91 1.96-4.02 8.81a9.5 9.5 0 0 1 -1.956.19c.188-4.969 2.076-8.851 4.641-10.335z" fill="#436600"/><path d="m24.033 16a9.489 9.489 0 0 0 1.947-.188 9.489 9.489 0 0 1 -1.947.188z" fill="#527710"/><path d="m24.205 14c-.089.645-.155 1.308-.181 2h-.024a9.63 9.63 0 0 1 -2-.19c.006-.608.041-1.213.1-1.81z" fill="#436600"/><path d="m24.024 15.999.009-.001z" fill="#2f4700"/><path d="m25.888 14a11.965 11.965 0 0 0 .092 1.81 9.489 9.489 0 0 1 -1.947.19h-.009c.026-.691.092-1.354.181-2z" fill="#224326"/><path d="m25.943 13.092c2.396.247 3.057.908 3.057.908a2.579 2.579 0 0 1 -.568.667 8.4 8.4 0 0 0 -2.545-.58c.004-.346.021-.679.056-.995z" fill="#63b300"/><path d="m19.568 14.667a2.579 2.579 0 0 1 -.568-.667s.693-.685 3.2-.921c-.046.334-.085.67-.115 1.01a8.354 8.354 0 0 0 -2.517.578z" fill="#63b300"/><path d="m5 2s2 9 16 9h2v-2c0-4.42-5.03-8-10-8 0 0-6 0-8 1z" fill="#4e8c00"/><path d="m5.023 2.09c-.015-.057-.023-.09-.023-.09 2-1 8-1 8-1 4.97 0 10 3.58 10 8v1.9c-2.443-3.795-9.171-7.155-17.977-8.81z" fill="#63b300"/><path d="m37.625 16.394a4.131 4.131 0 0 0 -4.439-1.185 10.791 10.791 0 0 0 -2.007 1.036 12.886 12.886 0 0 1 -6.653 1.474c-.854-.036-1.924-.077-2.331.443a.734.734 0 0 0 .243 1.018 4.011 4.011 0 0 0 1.3.608c3.609 1.169 7.914 1.72 11.558.605a6.514 6.514 0 0 0 1.378-.57 2.292 2.292 0 0 0 .951-3.429z" fill="#d8ff73"/><path d="m32.8 23.17a1.591 1.591 0 0 0 -1.036.566 1.726 1.726 0 0 0 -.187.826 34.384 34.384 0 0 1 -3.034 12.191 4.982 4.982 0 0 0 -.539 1.621 1.528 1.528 0 0 0 .659 1.477 1.825 1.825 0 0 0 1.174.1 9.633 9.633 0 0 0 5.788-3.7 22.339 22.339 0 0 0 3.252-6.306 18.488 18.488 0 0 0 1.047-3.838 5.054 5.054 0 0 0 -.258-2.748c-1.198-2.659-4.866-.684-6.866-.189z" fill="#d8ff73"/><ellipse cx="18" cy="17" fill="#d8ff73" rx="1.684" ry="3.187" transform="matrix(.401 -.916 .916 .401 -4.793 26.668)"/><path d="m26 12c-4.891 0-9.516 1.223-12.526 3.883a38.035 38.035 0 0 0 25.066 20.931 25.186 25.186 0 0 0 3.46-12.981c0-8.283-7.629-11.833-16-11.833z" fill="#c9ff39"/><path d="m26 12c8.371 0 16 3.55 16 11.833a25.186 25.186 0 0 1 -3.46 12.981c.541.139 1.087.263 1.637.378a31.535 31.535 0 0 0 2.823-13.192c0-9.94-9.06-13-19-13a29.8 29.8 0 0 0 -11.714 2.021c.355.975.757 1.926 1.188 2.862 3.01-2.66 7.635-3.883 12.526-3.883z" fill="#9cdf00"/><path d="m18.993 14.089s1-1 5-1 5 1 5 1-1 2-5 2-5-2-5-2z" fill="#4e8c00"/><path d="m27.993 5.089c-3.83 0-5.95 5.34-6 10.81a9.63 9.63 0 0 0 2 .19 9.5 9.5 0 0 0 1.98-.19c-.89-6.85 4.02-8.81 4.02-8.81z" fill="#5d881d"/><path d="m28.658 5.754 1.335 1.335s-4.91 1.96-4.02 8.81a9.5 9.5 0 0 1 -1.957.189c.184-4.968 2.084-8.849 4.642-10.334z" fill="#527710"/><path d="m24.2 14.089c-.089.645-.155 1.309-.182 2h-.023a9.63 9.63 0 0 1 -2-.19c.005-.608.041-1.212.1-1.81z" fill="#436600"/><path d="m25.881 14.089a11.965 11.965 0 0 0 .092 1.81 9.564 9.564 0 0 1 -1.948.189h-.009c.027-.69.093-1.354.182-2z" fill="#224326"/><path d="m25.936 13.181c2.4.247 3.057.908 3.057.908a2.579 2.579 0 0 1 -.568.667 8.433 8.433 0 0 0 -2.545-.58c.004-.346.02-.676.056-.995z" fill="#63b300"/><path d="m19.56 14.756a2.585 2.585 0 0 1 -.567-.667s.693-.685 3.205-.92c-.046.333-.085.669-.115 1.009a8.371 8.371 0 0 0 -2.523.578z" fill="#63b300"/><path d="m23 11v-.1c-1.942-3.015-6.6-5.754-12.847-7.583a37.8 37.8 0 0 0 .9 5.581 21.264 21.264 0 0 0 9.947 2.102z" fill="#63b300"/><path d="m23 10.9v-1.9c0-4.42-5.03-8-10-8 0 0-1.346 0-2.972.107.021.742.061 1.478.125 2.208 6.247 1.829 10.905 4.568 12.847 7.585z" fill="#8bc808"/><path d="m22.438 19.18a4.011 4.011 0 0 0 1.3.608c3.609 1.169 7.914 1.72 11.558.605a6.514 6.514 0 0 0 1.378-.57 2.292 2.292 0 0 0 .95-3.429 4.131 4.131 0 0 0 -4.439-1.185 10.791 10.791 0 0 0 -2.007 1.036 12.886 12.886 0 0 1 -6.653 1.474c-.854-.036-1.924-.077-2.331.443a.734.734 0 0 0 .244 1.018z" fill="#e8ffad"/><path d="m38.879 29.945a18.55 18.55 0 0 0 1.047-3.838 5.054 5.054 0 0 0 -.258-2.748c-1.2-2.658-4.867-.684-6.866-.189a1.591 1.591 0 0 0 -1.036.566 1.724 1.724 0 0 0 -.187.826 34.424 34.424 0 0 1 -1.722 8.838 37.757 37.757 0 0 0 5.949 2.589 22.939 22.939 0 0 0 3.073-6.044z" fill="#e8ffad"/><path d="m15.057 15.78c-.312.878.752 2.136 2.378 2.81s3.2.508 3.508-.37-.752-2.136-2.378-2.81-3.196-.51-3.508.37z" fill="#e8ffad"/><g fill="#f6fafd"><ellipse cx="35.724" cy="16.823" rx="1.656" ry="2.305" transform="matrix(.699 -.715 .715 .699 -1.279 30.606)"/><ellipse cx="37.71" cy="20.823" rx=".828" ry="1.152" transform="matrix(.699 -.715 .715 .699 -3.542 33.23)"/><ellipse cx="15.682" cy="3.823" rx=".828" ry="1.152" transform="matrix(.699 -.715 .715 .699 1.985 12.364)"/><ellipse cx="34.441" cy="20.323" rx=".414" ry=".576" transform="matrix(.699 -.715 .715 .699 -4.169 30.741)"/><ellipse cx="40.497" cy="20.323" rx=".414" ry=".576" transform="matrix(.699 -.715 .715 .699 -2.346 35.071)"/></g></g></svg>