<?xml version="1.0" encoding="iso-8859-1"?>
<!-- Generator: Adobe Illustrator 19.0.0, SVG Export Plug-In . SVG Version: 6.00 Build 0)  -->
<svg version="1.1" id="Layer_1" xmlns="http://www.w3.org/2000/svg" xmlns:xlink="http://www.w3.org/1999/xlink" x="0px" y="0px"
	 viewBox="0 0 512 512" style="enable-background:new 0 0 512 512;" xml:space="preserve">
<g>
	<polygon style="fill:#ECF0F1;" points="141.241,441.379 370.759,441.379 370.759,70.621 141.241,70.621 	"/>
	<g>
		<path style="fill:#BDC3C7;" d="M370.759,70.621H141.241V35.31c0-19.5,15.81-35.31,35.31-35.31h158.897
			c19.5,0,35.31,15.81,35.31,35.31V70.621z"/>
		<path style="fill:#BDC3C7;" d="M335.448,512H176.552c-19.5,0-35.31-15.81-35.31-35.31v-35.31h229.517v35.31
			C370.759,496.19,354.948,512,335.448,512"/>
		<polygon style="fill:#BDC3C7;" points="176.552,141.241 335.448,141.241 335.448,105.931 176.552,105.931 		"/>
		<polygon style="fill:#BDC3C7;" points="176.552,211.862 335.448,211.862 335.448,176.552 176.552,176.552 		"/>
		<polygon style="fill:#BDC3C7;" points="176.552,361.931 211.862,361.931 211.862,291.31 176.552,291.31 		"/>
	</g>
</g>
<g>
</g>
<g>
</g>
<g>
</g>
<g>
</g>
<g>
</g>
<g>
</g>
<g>
</g>
<g>
</g>
<g>
</g>
<g>
</g>
<g>
</g>
<g>
</g>
<g>
</g>
<g>
</g>
<g>
</g>
</svg>
