<svg id="Banana" enable-background="new 0 0 64 64" height="512" viewBox="0 0 64 64" width="512" xmlns="http://www.w3.org/2000/svg"><g id="Color"><path d="m58.888 39.757-.455-.542c-.54-.643-1.463-.82-2.191-.401-2.136 1.228-5.237 2.65-9.17 3.363-.69.125-4.008.7-7.204.374-12.362-1.263-22.286-16.075-25.538-28.996-.1-.396-.171-.798-.243-1.199-1.032-.302-2.2-.508-3.512-.472-1.673.046-3.132.459-4.381 1.029 0 0-2.309 5.533-2.702 11.329-.501 7.39 2.092 17.522 9.699 25.058 1.997 1.978 9.489 9.101 21.219 9.887 0 0 11.836.793 19.682-5.305 2.065-1.605 3.665-3.368 4.896-5.045 2.068-2.818 2.146-6.403-.1-9.08z" fill="#fbff86"/><path d="m58.89 39.754-.455-.542c-.54-.643-1.463-.82-2.191-.401-2.136 1.228-5.237 2.65-9.17 3.363-.69.125-4.008.7-7.204.374-12.361-1.262-22.285-16.074-25.538-28.995-.1-.397-.172-.8-.243-1.202 0 0-.001 0-.002 0 0 .002.001.005.001.007-1.032-.302-2.201-.509-3.513-.473-.289.008-.563.026-.839.055-.744 3.339-1.206 7.85-.294 12.894.31 1.717 3.102 15.784 16.101 22.489 6.378 3.29 12.208 3.257 13.772 3.213 9.201-.263 15.889-5.087 19.423-8.374.685-.637.753-1.692.152-2.408z" fill="#fbff86"/><path d="m14.088 12.356c-.325-1.816-.381-3.676-.205-5.516.081-.928-.606-1.747-1.534-1.828l-2.615-.229c-.929-.081-1.747.605-1.828 1.534-.199 2.279-.771 4.51-1.711 6.595 1.249-.57 2.708-.983 4.381-1.029 1.311-.036 2.479.171 3.512.473z" fill="#cd683d"/></g><g id="Shading"><g fill="#faea6b"><path d="m59.071 39.986c.408.696.279 1.608-.332 2.176-3.534 3.287-10.222 8.111-19.423 8.374-1.564.045-7.395.077-13.772-3.213-13-6.705-15.791-20.772-16.101-22.489-.91-5.037-.448-9.556.294-12.896-1.168.127-2.25.396-3.542.974 0 0-2.309 5.533-2.702 11.329-.501 7.39 2.092 17.522 9.699 25.058 1.997 1.978 9.489 9.101 21.219 9.887 0 0 11.836.793 19.682-5.305 2.065-1.605 3.665-3.368 4.896-5.045 2.008-2.736 2.134-6.201.082-8.85z"/><path d="m17.583 30.002c-.689-.584-1.934-1.146-2.513-.661s-.241 1.81.214 2.589c.828 1.417 2.776 2.286 3.422 1.744.647-.541.129-2.61-1.123-3.672z"/><path d="m20.114 34.802c-.798-.081-1.59.687-1.625 1.364-.062 1.188 2.201 2.24 2.858 1.756.432-.319.178-1.311.131-1.494-.061-.236-.392-1.528-1.364-1.626z"/></g><path d="m31.583 52.87c-1.12-.393-2.54.224-2.578.778-.035.511 1.104 1.015 1.905 1.171.631.123 1.832.18 2.036-.324.192-.472-.536-1.335-1.363-1.625z" fill="#f9d755"/><path d="m26.732 50.94c-1.228-.829-3.13-.962-3.487-.305-.453.833 1.353 3.353 3.225 3.294.579-.018 1.384-.29 1.581-.865.27-.784-.727-1.724-1.319-2.124z" fill="#f9d755"/></g></svg>