<svg id="Capa_1" enable-background="new 0 0 497 497" height="512" viewBox="0 0 497 497" width="512" xmlns="http://www.w3.org/2000/svg"><g><g><path d="m278.5 30c0-11.102-6.036-20.789-15-25.977h-26v178.477h41z" fill="#e8b5b1"/><path d="m248.5 30c0-11.102 6.036-20.789 15-25.977-4.414-2.554-9.534-4.023-15-4.023-16.568 0-30 13.432-30 30v152.5h30z" fill="#d6948c"/></g><g><path d="m425.273 236.968-18.444-8.444h-246.635v220.598c36.893 30.132 91.598 46.592 139.232 46.592h16.011c71.762-15.089 128.063-112.473 128.063-187.762 0-25.749-6.609-49.933-18.227-70.984z" fill="#ff8e9e"/><path d="m187.567 300.27c.6-12.382 2.617-25.461 5.885-38.488l-33.258-33.258h-83.456c-14.704 22.906-23.238 50.16-23.238 79.428 0 81.331 65.931 189.048 147.261 189.048h95.478c6.511 0 12.91-.468 19.199-1.287-74.212-9.671-131.578-118.833-127.871-195.443z" fill="#ea5b70"/></g><g><path d="m315.438 161.977c-23.335-3.037-45.861-.554-66.938 6.67h-55.048v93.135c13.49 3.189 22.798 15.196 22.798 29.168v39.212c0 16.483 13.382 30 30 30 16.647 0 30-13.544 30-30 0-16.568 13.432-30 30-30 16.65 0 30 13.553 30 30v19c0 16.568 13.432 30.785 30 30.785 17.25 0 30-14.427 30-30.785v-82.212c0-16.244 12.903-29.471 29.023-29.982-22.545-40.876-63.262-68.922-109.835-74.991z" fill="#ffce71"/><path d="m248.5 168.646c-14.976-5.133-31.022-7.957-47.739-7.957-52.018 0-97.818 27.013-124.023 67.834 11.395 4.253 19.512 15.231 19.512 28.109v104.865c0 16.423 13.329 30 30 30 16.657 0 30-13.551 30-30v-70.547c0-16.568 13.432-29.997 30-29.997 2.504 0 4.914.287 7.202.829 9.144-35.629 28.237-67.931 55.048-93.136z" fill="#ffb357"/></g><g fill="#ff8e9e"><path d="m148.944 211.123c-16.212 0-29.355 10.466-29.355 23.377 0 12.91 13.143 23.376 29.355 23.376s29.354-10.466 29.354-23.376c0-12.911-13.142-23.377-29.354-23.377z"/><path d="m348.057 211.123c-16.212 0-29.355 10.466-29.355 23.377 0 12.91 13.143 23.376 29.355 23.376s29.354-10.466 29.354-23.376c0-12.911-13.142-23.377-29.354-23.377z"/></g><g fill="#313d40"><path d="m186.978 200.072c-11.726 0-21.265 9.539-21.265 21.265 0 4.143 3.357 7.5 7.5 7.5s7.5-3.357 7.5-7.5c0-3.454 2.811-6.265 6.265-6.265s6.265 2.811 6.265 6.265c0 4.143 3.357 7.5 7.5 7.5s7.5-3.357 7.5-7.5c-.001-11.726-9.54-21.265-21.265-21.265z"/><path d="m310.022 200.072c-11.726 0-21.265 9.539-21.265 21.265 0 4.143 3.357 7.5 7.5 7.5s7.5-3.357 7.5-7.5c0-3.454 2.811-6.265 6.265-6.265s6.265 2.811 6.265 6.265c0 4.143 3.357 7.5 7.5 7.5s7.5-3.357 7.5-7.5c0-11.726-9.539-21.265-21.265-21.265z"/><path d="m268.03 231.772c-3.124-2.723-7.861-2.397-10.582.725-2.261 2.594-5.522 4.081-8.948 4.081s-6.688-1.487-8.948-4.081c-2.721-3.122-7.458-3.447-10.582-.725-3.122 2.722-3.446 7.459-.725 10.582 5.11 5.861 12.492 9.224 20.255 9.224s15.145-3.362 20.255-9.224c2.722-3.123 2.397-7.86-.725-10.582z"/></g></g></svg>