<svg clip-rule="evenodd" fill-rule="evenodd" height="512" image-rendering="optimizeQuality" shape-rendering="geometricPrecision" text-rendering="geometricPrecision" viewBox="0 0 1707 1707" width="512" xmlns="http://www.w3.org/2000/svg"><g id="Layer_x0020_1"><g id="_537439832"><path d="m993 347c-50 0-98-18-135-51-6-5-8-12-7-19 19-86 79-160 157-193 30-13 60-20 91-20 50 0 98 18 135 51 6 5 8 12 7 19-19 86-79 160-157 193-30 13-60 20-91 20z" fill="#3bbc56"/><path d="m853 523c-2 0-4 0-6-1-10-3-16-14-13-25 5-14 102-338-157-459-10-4-15-16-10-26s17-14 27-10c291 135 180 503 178 507-2 8-10 14-19 14z" fill="#93603e"/><path d="m847 1706c-209 0-386-40-487-111-307-217-349-612-256-907 72-227 212-368 365-368 71 0 141 30 208 89 57 49 116 74 176 74 61 0 120-25 176-74 68-59 138-89 208-89 153 0 293 141 365 368 94 295 51 690-255 907-98 69-289 111-500 111z" fill="#dd291b"/><path d="m1445 1022c-1 0-3 0-4 0-11-3-18-14-15-24 47-194-72-389-265-436-11-3-18-14-15-24 2-11 13-18 24-15 215 52 347 269 295 484-2 9-10 15-20 15z" fill="#e35147"/></g></g></svg>