<?xml version="1.0" encoding="iso-8859-1"?>
<!-- Generator: Adobe Illustrator 19.0.0, SVG Export Plug-In . SVG Version: 6.00 Build 0)  -->
<svg version="1.1" id="Layer_1" xmlns="http://www.w3.org/2000/svg" xmlns:xlink="http://www.w3.org/1999/xlink" x="0px" y="0px"
	 viewBox="0 0 512 512" style="enable-background:new 0 0 512 512;" xml:space="preserve">
<path style="fill:#CFCFED;" d="M326.376,491.102H185.625c-10.738,0-18.305-10.582-14.83-20.744l28.579-83.592
	c2.167-6.341,8.128-10.603,14.83-10.603h83.592c6.702,0,12.662,4.261,14.83,10.603l28.58,83.592
	C344.679,480.518,337.114,491.102,326.376,491.102z"/>
<path style="fill:#BCBBD8;" d="M341.206,470.358l-28.58-83.592c-2.168-6.341-8.128-10.603-14.83-10.603H256v114.939h70.376
	C337.114,491.102,344.679,480.518,341.206,470.358z"/>
<g>
	<path style="fill:#EEEFFF;" d="M360.49,491.102H151.51c-8.656,0-15.673-7.018-15.673-15.673c0-8.656,7.018-15.673,15.673-15.673
		h208.98c8.656,0,15.673,7.018,15.673,15.673C376.163,484.084,369.146,491.102,360.49,491.102z"/>
	<path style="fill:#EEEFFF;" d="M464.98,407.51H47.02C21.093,407.51,0,386.417,0,360.49v-52.245c0-8.656,7.018-15.673,15.673-15.673
		h480.653c8.656,0,15.673,7.018,15.673,15.673v52.245C512,386.417,490.907,407.51,464.98,407.51z"/>
</g>
<path style="fill:#CFCFED;" d="M496.327,292.571H256V407.51h208.98c25.927,0,47.02-21.093,47.02-47.02v-52.245
	C512,299.589,504.982,292.571,496.327,292.571z"/>
<path style="fill:#A5F4FF;" d="M512,323.918H0v-256c0-25.969,21.052-47.02,47.02-47.02H464.98c25.969,0,47.02,21.052,47.02,47.02
	V323.918z"/>
<path style="fill:#75E2FF;" d="M512,67.918c0-25.969-21.052-47.02-47.02-47.02H256v303.02h256V67.918z"/>
<circle style="fill:#61729B;" cx="256" cy="365.714" r="15.673"/>
<path style="fill:#75E2FF;" d="M281.465,188.082H154.847c-8.656,0-15.673-7.018-15.673-15.673s7.018-15.673,15.673-15.673h126.619
	c8.656,0,15.673,7.018,15.673,15.673S290.121,188.082,281.465,188.082z"/>
<path style="fill:#CFCFED;" d="M360.49,459.755H256v31.347h104.49c8.656,0,15.673-7.018,15.673-15.673
	C376.163,466.773,369.146,459.755,360.49,459.755z"/>
<path style="fill:#57658C;" d="M271.673,365.714c0-8.656-7.018-15.673-15.673-15.673v31.347
	C264.656,381.388,271.673,374.37,271.673,365.714z"/>
<g>
	<path style="fill:#37B7FF;" d="M281.465,156.735H256v31.347h25.465c8.656,0,15.673-7.018,15.673-15.673
		S290.121,156.735,281.465,156.735z"/>
	<path style="fill:#37B7FF;" d="M357.153,188.082h-21.041c-8.656,0-15.673-7.018-15.673-15.673s7.018-15.673,15.673-15.673h21.041
		c8.656,0,15.673,7.018,15.673,15.673S365.809,188.082,357.153,188.082z"/>
</g>
<g>
</g>
<g>
</g>
<g>
</g>
<g>
</g>
<g>
</g>
<g>
</g>
<g>
</g>
<g>
</g>
<g>
</g>
<g>
</g>
<g>
</g>
<g>
</g>
<g>
</g>
<g>
</g>
<g>
</g>
</svg>
