<svg viewBox="0 -25 511.99994 511" xmlns="http://www.w3.org/2000/svg"><path d="m50.914062 384.019531c-9.652343 0-19.601562-2.222656-30.222656-6.558593-8.558594-3.496094-12.667968-13.269532-9.171875-21.832032 3.496094-8.558594 13.269531-12.667968 21.832031-9.167968 15.71875 6.417968 30.019532 8.925781 58.597657-21.292969 6.355469-6.71875 16.953125-7.015625 23.667969-.660157 6.722656 6.351563 7.015624 16.949219.660156 23.667969-23 24.324219-43.394532 35.84375-65.363282 35.84375zm0 0" fill="#495059"/><path d="m204.816406 450.191406c-.542968 0-1.09375-.023437-1.644531-.066406-11.527344-.894531-20.140625-10.964844-19.242187-22.488281 1.910156-24.5625 1.222656-41.835938-2.457032-61.613281-2.117187-11.363282 5.382813-22.289063 16.746094-24.40625 11.363281-2.113282 22.292969 5.382812 24.40625 16.75 4.347656 23.363281 5.226562 44.375 3.035156 72.519531-.851562 10.96875-10.019531 19.304687-20.84375 19.304687zm0 0" fill="#ddaf89"/><path d="m122.515625 450.191406c-.542969 0-1.09375-.023437-1.648437-.066406-11.523438-.894531-20.136719-10.964844-19.242188-22.488281 1.785156-22.90625 1.6875-38.960938 1.558594-61.183594-.019532-3.089844-.039063-6.292969-.050782-9.640625-.050781-11.558594 9.277344-20.96875 20.835938-21.019531h.09375c11.515625 0 20.875 9.308593 20.925781 20.835937.015625 3.328125.035157 6.507813.050781 9.574219.140626 23.238281.238282 40.027344-1.679687 64.679687-.851563 10.972657-10.023437 19.308594-20.84375 19.308594zm0 0" fill="#ddaf89"/><path d="m291.5625 335.851562c-23.09375 0-44.25-9.664062-61.410156-28.464843-7.792969-8.539063-7.1875-21.777344 1.351562-29.570313 8.539063-7.792968 21.777344-7.1875 29.570313 1.351563 13.269531 14.539062 28.3125 18.277343 47.347656 11.773437 10.933594-3.742187 22.835937 2.09375 26.574219 13.03125 3.738281 10.9375-2.09375 22.835938-13.03125 26.574219-10.378906 3.550781-20.566406 5.304687-30.402344 5.304687zm0 0" fill="#ddaf89"/><path d="m144.992188 356.628906c-.050782-11.527344-9.414063-20.839844-20.929688-20.839844-.03125 0-.0625 0-.09375 0-11.558594.050782-20.886719 9.464844-20.835938 21.023438.015626 3.347656.03125 6.546875.050782 9.636719.039062 6.578125.074218 12.613281.058594 18.445312 12.648437 6.476563 26.75 10.839844 41.738281 12.570313.1875-9.996094.128906-19.851563.0625-31.261719-.019531-3.066406-.035157-6.246094-.050781-9.574219zm0 0" fill="#d1a582"/><path d="m222.625 358.363281c-2.117188-11.363281-13.042969-18.863281-24.40625-16.746093-11.363281 2.113281-18.863281 13.042968-16.746094 24.40625 1.882813 10.121093 2.976563 19.59375 3.34375 29.71875 14.882813-3.050782 28.695313-8.730469 40.816406-16.480469-.695312-6.925781-1.6875-13.804688-3.007812-20.898438zm0 0" fill="#d1a582"/><path d="m261.074219 279.167969c-7.792969-8.539063-21.03125-9.144531-29.570313-1.351563-8.539062 7.792969-9.144531 21.03125-1.351562 29.570313 10.824218 11.859375 23.242187 20.074219 36.730468 24.53125 5.40625-12.246094 8.390626-25.613281 8.390626-39.609375 0-.695313-.015626-1.382813-.03125-2.074219-4.980469-2.464844-9.679688-6.144531-14.167969-11.066406zm0 0" fill="#d1a582"/><path d="m261.554688 292.308594c0-50.960938-45.683594-92.273438-102.03125-92.273438-56.351563 0-102.035157 41.3125-102.035157 92.273438 0 50.960937 45.683594 92.273437 102.035157 92.273437 56.347656 0 102.03125-41.3125 102.03125-92.273437zm0 0" fill="#ddaf89"/><path d="m251.675781 233.0625c-25.007812 20.75-57.121093 33.226562-92.152343 33.226562s-67.148438-12.476562-92.152344-33.226562c-5.320313 6.886719-9.75 14.382812-13.113282 22.363281-4.578124 10.871094-.355468 23.472657 9.820313 29.445313 28.003906 16.441406 60.621094 25.871094 95.445313 25.871094 34.820312 0 67.4375-9.429688 95.445312-25.871094 10.171875-5.972656 14.394531-18.574219 9.816406-29.445313-3.359375-7.980469-7.792968-15.476562-13.109375-22.363281zm0 0" fill="#7f9ae6"/><path d="m113.054688 258.644531c-16.839844-5.722656-32.285157-14.460937-45.683594-25.582031-5.316406 6.886719-9.75 14.382812-13.109375 22.363281-4.582031 10.871094-.359375 23.472657 9.816406 29.445313 14.5625 8.550781 30.378906 15.183594 47.097656 19.601562-6.136719-12.308594-4.398437-30.789062 1.878907-45.828125zm0 0" fill="#738cd1"/><path d="m121.683594 118.828125c-4.101563 0-8.238282-1.25-11.808594-3.84375l-24.757812-17.980469c-10.839844-7.875-25.460938-7.222656-35.554688 1.589844l-16.207031 14.152344c-8.371094 7.308594-21.082031 6.445312-28.390625-1.925782-7.308594-8.367187-6.449219-21.078124 1.921875-28.386718l16.210937-14.152344c11.6875-10.207031 26.664063-16.210938 42.164063-16.902344 15.503906-.695312 30.953125 3.945313 43.507812 13.0625l24.757813 17.984375c8.988281 6.53125 10.984375 19.113281 4.453125 28.105469-3.9375 5.417969-10.074219 8.296875-16.296875 8.296875zm0 0" fill="#495059"/><path d="m197.359375 118.828125c-6.222656 0-12.359375-2.875-16.296875-8.296875-6.53125-8.992188-4.535156-21.574219 4.457031-28.105469l24.753907-17.980469c12.554687-9.121093 28.011718-13.757812 43.507812-13.066406 15.5.695313 30.476562 6.699219 42.164062 16.902344l16.210938 14.152344c8.371094 7.308594 9.234375 20.019531 1.921875 28.390625-7.308594 8.371093-20.015625 9.230469-28.386719 1.921875l-16.210937-14.152344c-10.09375-8.8125-24.714844-9.464844-35.554688-1.589844l-24.757812 17.980469c-3.570313 2.59375-7.707031 3.84375-11.808594 3.84375zm0 0" fill="#495059"/><path d="m159.523438 278.1875c102.140624 0 148.171874-46.789062 133.804687-112.675781-15.4375-70.800781-64.066406-109.554688-133.804687-109.554688-69.742188 0-118.371094 38.753907-133.808594 109.554688-14.367188 65.882812 31.667968 112.675781 133.808594 112.675781zm0 0" fill="#ddaf89"/><path d="m204.816406 314.339844c0 15.738281-12.757812 28.5-28.5 28.5-15.738281 0-28.5-12.761719-28.5-28.5 0-15.742188 12.761719-28.503906 28.5-28.503906 15.742188 0 28.5 12.761718 28.5 28.503906zm0 0" fill="#f6e06a"/><path d="m122.40625 171.101562c0-13.128906-13.367188-23.769531-29.855469-23.769531-16.484375 0-29.851562 10.640625-29.851562 23.769531 0 13.132813 13.367187 23.773438 29.851562 23.773438 16.488281 0 29.855469-10.640625 29.855469-23.773438zm0 0" fill="#ffdbdb"/><path d="m289.9375 171.101562c0-13.128906-13.367188-23.769531-29.855469-23.769531s-29.851562 10.640625-29.851562 23.769531c0 13.132813 13.363281 23.773438 29.851562 23.773438s29.855469-10.640625 29.855469-23.773438zm0 0" fill="#ffdbdb"/><g fill="#495059"><path d="m109.949219 154.886719c-4.140625 0-7.5-3.359375-7.5-7.5v-10.542969c0-4.140625 3.359375-7.5 7.5-7.5 4.144531 0 7.5 3.359375 7.5 7.5v10.542969c0 4.140625-3.355469 7.5-7.5 7.5zm0 0"/><path d="m242.683594 154.886719c-4.140625 0-7.5-3.359375-7.5-7.5v-10.542969c0-4.140625 3.359375-7.5 7.5-7.5 4.144531 0 7.5 3.359375 7.5 7.5v10.542969c0 4.140625-3.355469 7.5-7.5 7.5zm0 0"/><path d="m198.394531 172.863281c5.421875-2.410156 7.339844-9.140625 4.003907-14.046875-2.472657-3.636718-6.175782-6.25-10.425782-7.363281-10.265625-2.6875-21.046875-2.6875-31.3125 0-4.25 1.113281-7.953125 3.726563-10.421875 7.363281-3.339843 4.90625-1.421875 11.636719 4 14.046875l14.578125 6.484375v22.917969c-4.464844 1.027344-8.683594 2.957031-12.4375 5.757813-3.320312 2.476562-4.003906 7.175781-1.523437 10.496093 1.472656 1.972657 3.730469 3.015625 6.015625 3.015625 1.558594 0 3.132812-.484375 4.480468-1.488281 3.1875-2.378906 6.980469-3.636719 10.964844-3.636719 6.949219 0 10.472656.988282 12.207032 1.820313 3.730468 1.792969 8.210937.222656 10.007812-3.511719 1.792969-3.734375.21875-8.214844-3.515625-10.007812-3.046875-1.464844-6.757813-2.421876-11.199219-2.914063v-22.449219zm0 0"/><path d="m259.621094 86.664062h-200.199219l18.492187-66.523437c3.898438-14.023437 18.269532-22.375 32.382813-18.824219l31.738281 7.992188c11.480469 2.886718 23.496094 2.886718 34.976563 0l31.734375-7.992188c14.113281-3.550781 28.484375 4.800782 32.382812 18.824219zm0 0"/></g><path d="m59.421875 86.664062h200.199219l-9.382813-33.75h-181.433593zm0 0" fill="#f3e5b7"/><path d="m269.445312 86.664062h-219.847656c-7.597656 0-13.757812 6.15625-13.757812 13.757813 0 7.597656 6.160156 13.757813 13.757812 13.757813h219.847656c7.597657 0 13.757813-6.160157 13.757813-13.757813 0-7.601563-6.160156-13.757813-13.757813-13.757813zm0 0" fill="#495059"/><path d="m312.984375 332.945312c-9-3.277343-13.640625-13.230468-10.367187-22.226562l22.28125-61.210938c3.273437-9 13.226562-13.644531 22.226562-10.367187s13.640625 13.230469 10.363281 22.226563l-22.277343 61.210937c-3.277344 9-13.226563 13.640625-22.226563 10.367187zm0 0" fill="#444f58"/><path d="m393.285156 229.390625c0 23.535156-19.078125 42.617187-42.613281 42.617187s-42.613281-19.082031-42.613281-42.617187 19.078125-42.613281 42.613281-42.613281 42.613281 19.078125 42.613281 42.613281zm0 0" fill="#a2d3ee"/><path d="m350.703125 279.53125c-5.78125 0-11.578125-1.011719-17.171875-3.046875-12.578125-4.578125-22.621094-13.78125-28.277344-25.914063-5.65625-12.132812-6.25-25.738281-1.671875-38.316406s13.78125-22.621094 25.914063-28.28125c12.128906-5.65625 25.738281-6.25 38.316406-1.671875s22.621094 13.78125 28.28125 25.914063c5.65625 12.128906 6.25 25.738281 1.671875 38.316406s-13.78125 22.621094-25.914063 28.277344c-6.738281 3.144531-13.929687 4.722656-21.148437 4.722656zm-.050781-85.269531c-5.058594 0-10.097656 1.105469-14.820313 3.308593-8.5 3.964844-14.949219 11-18.15625 19.8125s-2.789062 18.347657 1.171875 26.847657c3.964844 8.503906 11.003906 14.949219 19.816406 18.15625 8.8125 3.210937 18.347657 2.792969 26.847657-1.171875 8.5-3.960938 14.949219-11 18.15625-19.8125 3.207031-8.816406 2.792969-18.351563-1.171875-26.851563s-11-14.949219-19.8125-18.15625c-3.917969-1.425781-7.984375-2.132812-12.03125-2.132812zm0 0" fill="#7f9ae6"/><path d="m341.65625 443.253906c0-10.632812-19.324219-19.25-43.164062-19.25-23.839844 0-43.167969 8.617188-43.167969 19.25 0 10.632813 19.328125 19.25 43.167969 19.25 23.839843 0 43.164062-8.617187 43.164062-19.25zm0 0" fill="#dfe3e5"/><path d="m415.1875 390.453125c0-10.632813-19.328125-19.25-43.167969-19.25-23.839843 0-43.164062 8.617187-43.164062 19.25s19.324219 19.253906 43.164062 19.253906c23.839844 0 43.167969-8.621093 43.167969-19.253906zm0 0" fill="#dfe3e5"/><path d="m512 429.257812c0-10.628906-19.324219-19.25-43.164062-19.25-23.839844 0-43.164063 8.621094-43.164063 19.25 0 10.632813 19.324219 19.253907 43.164063 19.253907 23.839843 0 43.164062-8.621094 43.164062-19.253907zm0 0" fill="#dfe3e5"/><path d="m65.5625 319.59375c-8.785156 0-16.964844-5.574219-19.871094-14.371094-3.625-10.976562 2.335938-22.8125 13.3125-26.4375 19.644532-6.488281 27.910156-17.402344 37.480469-30.042968 8.785156-11.601563 18.738281-24.75 36.796875-32.140626 10.695312-4.382812 22.917969.742188 27.300781 11.441407 4.378907 10.695312-.742187 22.917969-11.441406 27.296875-7.113281 2.914062-11.734375 8.699218-19.285156 18.671875-10.847657 14.328125-25.703125 33.949219-57.726563 44.523437-2.175781.71875-4.390625 1.058594-6.566406 1.058594zm0 0" fill="#c49b7a"/></svg>