<svg height="512" viewBox="0 0 64 64" width="512" xmlns="http://www.w3.org/2000/svg"><g id="Artboard_11" data-name="Artboard 11"><rect fill="#e2e7f7" height="46" rx="4" width="60" x="2" y="2"/><path d="m58 2h-52a3.968 3.968 0 0 0 -1.261.222v3.637a36.272 36.272 0 0 0 36.272 36.271h19.728a3.968 3.968 0 0 0 1.261-.222v-35.908a4 4 0 0 0 -4-4z" fill="#f7f7ff"/><path d="m58 2h-52a4 4 0 0 0 -4 4v32h60v-32a4 4 0 0 0 -4-4z" fill="#5bc6e5"/><path d="m58 2h-52a3.925 3.925 0 0 0 -.672.068 4.509 4.509 0 0 0 -.589.154v3.637a36.258 36.258 0 0 0 19.466 32.141h37.795v-32a4 4 0 0 0 -4-4z" fill="#98fbfe"/><circle cx="32" cy="43" fill="#f7f7ff" r="2"/><path d="m24.353 48-4.353 10h24l-4.353-10z" fill="#2a2d40"/><path d="m44 58-3.482-8h-9.3a5.891 5.891 0 0 0 -5.4 3.54l-1.947 4.46z" fill="#474c6a"/><ellipse cx="57.674" cy="40.1" fill="#fff" rx="3.35" ry="1.53"/><path d="m39.456 52.592h-7.912a.807.807 0 1 1 0-1.614h7.912a.807.807 0 0 1 0 1.614z" fill="#fff"/><path d="m20 58h-10a2 2 0 0 0 -2 2 2 2 0 0 0 2 2h44a2 2 0 0 0 2-2 2 2 0 0 0 -2-2z" fill="#979bc0"/><path d="m54 58h-42.723a1.988 1.988 0 0 0 1.723 3h42.723a1.988 1.988 0 0 0 -1.723-3z" fill="#e2e7f7"/><ellipse cx="53.213" cy="59.5" fill="#fff" rx="1.042" ry="2.282" transform="matrix(.367 -.93 .93 .367 -21.66 87.174)"/></g></svg>