<?xml version="1.0" encoding="iso-8859-1"?>
<!-- Generator: Adobe Illustrator 19.0.0, SVG Export Plug-In . SVG Version: 6.00 Build 0)  -->
<svg version="1.1" id="Capa_1" xmlns="http://www.w3.org/2000/svg" xmlns:xlink="http://www.w3.org/1999/xlink" x="0px" y="0px"
	 viewBox="0 0 512.001 512.001" style="enable-background:new 0 0 512.001 512.001;" xml:space="preserve">
<g>
	<path style="fill:#FFEA84;" d="M468.861,278.166c-10.315-8.313-22.263-13.641-35.089-16.166l-37.914,58.667l12,16.715
		c10.412,2.888,20.129,7.739,28.714,14.658c21.945,17.686,32.25,45.467,31.1,75.862l6.041,2.619
		C510.209,376.439,508.944,310.468,468.861,278.166z"/>
	<path style="fill:#FFEA84;" d="M281.047,255.323c-4.12-19.365-13.725-36.381-28.872-48.588
		c-43.002-34.655-114.384-17.431-159.436,38.472C75.983,266,65.236,289.213,60.552,311.954l13.763,7.036
		c42.253-52.43,97.757-77.807,123.972-56.68c17.712,14.274,17.522,46.126,2.502,81.458l54.233-39.601L281.047,255.323z"/>
	<path style="fill:#FFEA84;" d="M454.844,103.711c-2.6-24.188-7.483-47.578-14.411-69.977
		c-15.96-51.597-92.047-41.343-93.272,12.653c-1.884,83.075-30.187,166.202-86.361,235.906
		c-56.275,69.83-131.657,115.19-212.6,134.628c-52.436,12.592-46.274,88.998,7.448,93.687c23.502,2.051,47.546,1.866,71.888-0.75
		C330.308,488.062,476.64,306.484,454.844,103.711z"/>
</g>
<g>
	<path style="fill:#FFDC40;" d="M454.844,103.711c-2.6-24.188-7.483-47.578-14.411-69.977c-7.574-24.487-28.69-35.034-48.92-33.596
		c3.886,15.856,6.789,32.144,8.582,48.823c21.795,202.773-124.537,384.351-327.31,406.146c-20.418,2.195-40.625,2.672-60.48,1.561
		c-2.913,24.486,12.247,51.226,43.341,53.94c23.502,2.051,47.546,1.866,71.888-0.75C330.308,488.062,476.64,306.484,454.844,103.711
		z"/>
	<path style="fill:#FFDC40;" d="M264.113,278.091c-1.1,1.403-2.192,2.81-3.314,4.202c-56.275,69.83-131.657,115.19-212.6,134.628
		c-52.436,12.592-46.274,88.998,7.448,93.687c23.502,2.051,47.546,1.866,71.888-0.75c107.399-11.543,198.961-67.914,258.098-148.513
		l-84.714-79.969L264.113,278.091z"/>
</g>
<path style="fill:#FFAB15;" d="M72.785,455.107c-20.418,2.195-40.625,2.672-60.48,1.561c-2.913,24.486,12.247,51.226,43.341,53.94
	c23.502,2.051,47.546,1.866,71.888-0.75c107.399-11.543,198.961-67.914,258.098-148.513L329.548,308.4
	C270.372,388.034,179.379,443.65,72.785,455.107z"/>
<path style="fill:#FFF3C0;" d="M264.135,278.093c5.835,2.678,11.364,6.061,16.486,10.19c43.002,34.655,41.341,108.067-3.711,163.97
	c-11.749,14.579-25.293,26.515-39.653,35.598l0.452,4.201c42.772,16.675,100.251-2.865,138.629-50.487
	c45.052-55.903,46.713-129.315,3.711-163.97C349.264,252.787,303.936,254.57,264.135,278.093"/>
<path style="fill:#FFEA84;" d="M380.049,277.596c-6.895-5.557-14.524-9.769-22.652-12.712
	c-13.529,24.808-29.852,47.959-48.596,68.996c8.866,36.143-1.885,81.14-31.89,118.373c-11.749,14.579-25.293,26.515-39.653,35.598
	l0.452,4.201c42.772,16.675,100.251-2.865,138.629-50.487C421.39,385.663,423.051,312.251,380.049,277.596z"/>
<g>
</g>
<g>
</g>
<g>
</g>
<g>
</g>
<g>
</g>
<g>
</g>
<g>
</g>
<g>
</g>
<g>
</g>
<g>
</g>
<g>
</g>
<g>
</g>
<g>
</g>
<g>
</g>
<g>
</g>
</svg>
