<?xml version="1.0" encoding="iso-8859-1"?>
<!-- Generator: Adobe Illustrator 19.0.0, SVG Export Plug-In . SVG Version: 6.00 Build 0)  -->
<svg version="1.1" id="Capa_1" xmlns="http://www.w3.org/2000/svg" xmlns:xlink="http://www.w3.org/1999/xlink" x="0px" y="0px"
	 viewBox="0 0 512 512" style="enable-background:new 0 0 512 512;" xml:space="preserve">
<g>
	<g>
		<path style="fill:#FDD7AD;" d="M498.983,269.017c4.787-0.014,8.664-3.891,8.678-8.678v-17.356
			c-0.014-4.787-3.891-8.664-8.678-8.678l-52.068-121.492l-52.068,121.492c-4.787,0.014-8.664,3.891-8.678,8.678v8.678h-60.746
			v-43.39c-0.014-4.787-3.891-8.664-8.678-8.678H299.39v-34.712h8.678c4.787-0.014,8.664-3.891,8.678-8.678v-17.356
			c-0.014-4.787-3.891-8.664-8.678-8.678L256,8.678l-52.068,121.492c-4.787,0.014-8.664,3.891-8.678,8.678v17.356
			c0.014,4.787,3.891,8.664,8.678,8.678h8.678v34.712h-17.356c-4.787,0.014-8.664,3.891-8.678,8.678v43.39h-60.746v-8.678
			c-0.014-4.787-3.891-8.664-8.678-8.678L65.085,112.814L13.017,234.305c-4.787,0.014-8.664,3.891-8.678,8.678v17.356
			c0.014,4.787,3.891,8.664,8.678,8.678h8.678v34.712h-8.678c-4.787,0.014-8.664,3.891-8.678,8.678v17.356
			c0.014,4.787,3.891,8.664,8.678,8.678h8.678v164.881c0.014,4.787,3.891,8.664,8.678,8.678h451.254
			c4.787-0.014,8.664-3.891,8.678-8.678V338.441h8.678c4.787-0.014,8.664-3.891,8.678-8.678v-17.356
			c-0.014-4.787-3.891-8.664-8.678-8.678h-8.678v-34.712H498.983z"/>
		<path style="fill:#FDD7AD;" d="M108.475,338.441V512H30.373c-4.787-0.014-8.664-3.891-8.678-8.678V338.441H108.475z"/>
	</g>
	<path style="fill:#FB7B76;" d="M13.017,303.729h104.136c4.793,0,8.678,3.885,8.678,8.678v17.356c0,4.793-3.885,8.678-8.678,8.678
		H13.017c-4.793,0-8.678-3.885-8.678-8.678v-17.356C4.339,307.614,8.224,303.729,13.017,303.729z"/>
	<path style="fill:#3B97D3;" d="M13.017,234.305h104.136c4.793,0,8.678,3.885,8.678,8.678v17.356c0,4.793-3.885,8.678-8.678,8.678
		H13.017c-4.793,0-8.678-3.885-8.678-8.678v-17.356C4.339,238.19,8.224,234.305,13.017,234.305z"/>
	<g>
		<rect x="21.695" y="269.017" style="fill:#D75E72;" width="86.78" height="34.712"/>
		<rect x="212.61" y="164.881" style="fill:#D75E72;" width="86.78" height="34.712"/>
		<rect x="403.525" y="269.017" style="fill:#D75E72;" width="86.78" height="34.712"/>
	</g>
	<polygon style="fill:#67B9CC;" points="117.153,234.305 13.017,234.305 65.085,112.814 	"/>
	<path style="fill:#3B97D3;" d="M203.932,130.169h104.136c4.793,0,8.678,3.885,8.678,8.678v17.356c0,4.793-3.885,8.678-8.678,8.678
		H203.932c-4.793,0-8.678-3.885-8.678-8.678v-17.356C195.254,134.055,199.139,130.169,203.932,130.169z"/>
	<polygon style="fill:#67B9CC;" points="308.068,130.169 203.932,130.169 256,8.678 	"/>
	<path style="fill:#FDD7AD;" d="M490.305,338.441v164.881c-0.014,4.787-3.891,8.664-8.678,8.678h-78.102V338.441H490.305z"/>
	<path style="fill:#FB7B76;" d="M394.847,303.729h104.136c4.793,0,8.678,3.885,8.678,8.678v17.356c0,4.793-3.885,8.678-8.678,8.678
		H394.847c-4.793,0-8.678-3.885-8.678-8.678v-17.356C386.169,307.614,390.055,303.729,394.847,303.729z"/>
	<path style="fill:#3B97D3;" d="M394.847,234.305h104.136c4.793,0,8.678,3.885,8.678,8.678v17.356c0,4.793-3.885,8.678-8.678,8.678
		H394.847c-4.793,0-8.678-3.885-8.678-8.678v-17.356C386.169,238.19,390.055,234.305,394.847,234.305z"/>
	<polygon style="fill:#67B9CC;" points="498.983,234.305 394.847,234.305 446.915,112.814 	"/>
	<g>
		<rect x="108.475" y="373.153" style="fill:#FAC176;" width="60.746" height="138.847"/>
		<rect x="342.78" y="373.153" style="fill:#FAC176;" width="60.746" height="138.847"/>
	</g>
	<path style="fill:#5E5F62;" d="M299.39,477.288V512h-86.78v-34.712c0-23.964,19.426-43.39,43.39-43.39
		S299.39,453.325,299.39,477.288z"/>
	<path style="fill:#FDD7AD;" d="M325.424,208.271v86.78H299.39L256,234.305l-43.39,60.746h-26.034v-86.78
		c0.014-4.787,3.891-8.664,8.678-8.678h121.492C321.533,199.608,325.409,203.484,325.424,208.271z"/>
	<polygon style="fill:#67B9CC;" points="299.39,295.051 212.61,295.051 256,234.305 	"/>
	<path style="fill:#FAC176;" d="M186.576,251.661v43.39h-8.678c-4.787,0.014-8.664,3.891-8.678,8.678v69.424h-60.746v-34.712h8.678
		c4.787-0.014,8.664-3.891,8.678-8.678v-17.356c-0.014-4.787-3.891-8.664-8.678-8.678h-8.678v-34.712h8.678
		c4.787-0.014,8.664-3.891,8.678-8.678v-8.678H186.576z"/>
	<path style="fill:#FB7B76;" d="M334.102,295.051H177.898c-4.787,0.014-8.664,3.891-8.678,8.678V512h43.39v-34.712
		c0-15.502,8.27-29.826,21.695-37.577c13.425-7.751,29.965-7.751,43.39,0c13.425,7.751,21.695,22.075,21.695,37.577V512h43.39
		V303.729C342.765,298.942,338.888,295.065,334.102,295.051z M273.356,390.508h-34.712v-34.712
		c0.028-9.574,7.782-17.328,17.356-17.356c9.557,0.069,17.287,7.799,17.356,17.356V390.508z"/>
	<path style="fill:#FAC176;" d="M386.169,312.407v17.356c0.014,4.787,3.891,8.664,8.678,8.678h8.678v34.712H342.78v-69.424
		c-0.014-4.787-3.891-8.664-8.678-8.678h-8.678v-43.39h60.746v8.678c0.014,4.787,3.891,8.664,8.678,8.678h8.678v34.712h-8.678
		C390.061,303.743,386.184,307.62,386.169,312.407z"/>
	<g>
		<path style="fill:#5E5F62;" d="M273.356,355.797v34.712h-34.712v-34.712c0.028-9.574,7.782-17.328,17.356-17.356
			C265.557,338.509,273.287,346.24,273.356,355.797z"/>
		<path style="fill:#5E5F62;" d="M264.678,399.186h-43.39c-4.793,0-8.678-3.885-8.678-8.678c0-4.793,3.885-8.678,8.678-8.678h43.39
			c4.793,0,8.678,3.885,8.678,8.678C273.356,395.301,269.471,399.186,264.678,399.186z"/>
		<path style="fill:#5E5F62;" d="M290.712,399.186H256c-4.793,0-8.678-3.885-8.678-8.678c0-4.793,3.885-8.678,8.678-8.678h34.712
			c4.793,0,8.678,3.885,8.678,8.678C299.39,395.301,295.505,399.186,290.712,399.186z"/>
	</g>
	<g>
		<circle style="fill:#3B97D3;" cx="134.508" cy="60.746" r="8.678"/>
		<path style="fill:#3B97D3;" d="M134.508,34.712c-2.302,0.001-4.509-0.913-6.137-2.541c-1.628-1.628-2.542-3.835-2.541-6.137V8.678
			c0-4.793,3.885-8.678,8.678-8.678s8.678,3.885,8.678,8.678v17.356c0.001,2.302-0.913,4.509-2.541,6.137
			C139.018,33.798,136.81,34.712,134.508,34.712z"/>
	</g>
	<path style="fill:#D75E72;" d="M109.962,44.881c-2.302,0.003-4.51-0.912-6.135-2.543L91.555,30.068
		c-3.389-3.389-3.389-8.883,0-12.271c3.389-3.389,8.883-3.389,12.271,0l12.271,12.271c2.481,2.482,3.223,6.214,1.88,9.456
		C116.635,42.766,113.471,44.88,109.962,44.881L109.962,44.881z"/>
	<path style="fill:#3B97D3;" d="M99.797,69.424H82.441c-4.793,0-8.678-3.885-8.678-8.678s3.885-8.678,8.678-8.678h17.356
		c4.793,0,8.678,3.885,8.678,8.678S104.589,69.424,99.797,69.424z"/>
	<path style="fill:#D75E72;" d="M97.691,106.237c-3.509-0.001-6.673-2.115-8.016-5.357c-1.343-3.242-0.601-6.974,1.88-9.456
		l12.271-12.271c3.389-3.389,8.883-3.389,12.271,0c3.389,3.389,3.389,8.883,0,12.271l-12.271,12.271
		C102.201,105.325,99.993,106.24,97.691,106.237z"/>
	<path style="fill:#3B97D3;" d="M134.508,121.492c-2.302,0.001-4.509-0.913-6.137-2.541s-2.542-3.835-2.541-6.137V95.458
		c0-4.793,3.885-8.678,8.678-8.678s8.678,3.885,8.678,8.678v17.356c0.001,2.302-0.913,4.509-2.541,6.137
		S136.81,121.492,134.508,121.492z"/>
	<path style="fill:#D75E72;" d="M171.326,106.237c-2.302,0.003-4.51-0.913-6.135-2.543L152.92,91.424
		c-2.192-2.192-3.048-5.387-2.246-8.381c0.802-2.994,3.141-5.333,6.136-6.136c2.994-0.802,6.189,0.054,8.381,2.246l12.271,12.271
		c2.481,2.482,3.223,6.214,1.88,9.456S174.836,106.236,171.326,106.237L171.326,106.237z"/>
	<path style="fill:#3B97D3;" d="M186.576,69.424H169.22c-4.793,0-8.678-3.885-8.678-8.678s3.885-8.678,8.678-8.678h17.356
		c4.793,0,8.678,3.885,8.678,8.678S191.369,69.424,186.576,69.424z"/>
	<path style="fill:#D75E72;" d="M159.055,44.881c-3.509-0.001-6.673-2.115-8.016-5.357c-1.343-3.242-0.601-6.974,1.88-9.456
		l12.271-12.271c3.389-3.389,8.883-3.389,12.271,0c3.389,3.389,3.389,8.883,0,12.271l-12.271,12.271
		C163.565,43.969,161.357,44.884,159.055,44.881z"/>
	<g>
		<circle style="fill:#3B97D3;" cx="377.492" cy="60.746" r="8.678"/>
		<path style="fill:#3B97D3;" d="M377.492,34.712c-2.302,0.001-4.509-0.913-6.137-2.541c-1.628-1.628-2.542-3.835-2.541-6.137V8.678
			c0-4.793,3.885-8.678,8.678-8.678c4.793,0,8.678,3.885,8.678,8.678v17.356c0.001,2.302-0.914,4.509-2.541,6.137
			C382.001,33.798,379.793,34.712,377.492,34.712z"/>
	</g>
	<path style="fill:#D75E72;" d="M352.945,44.881c-2.302,0.003-4.51-0.912-6.135-2.543l-12.272-12.271
		c-2.192-2.192-3.048-5.387-2.246-8.381c0.802-2.994,3.141-5.333,6.136-6.136c2.994-0.802,6.189,0.054,8.381,2.246l12.271,12.271
		c2.481,2.482,3.223,6.214,1.88,9.456C359.618,42.766,356.455,44.88,352.945,44.881L352.945,44.881z"/>
	<path style="fill:#3B97D3;" d="M342.78,69.424h-17.356c-4.793,0-8.678-3.885-8.678-8.678s3.885-8.678,8.678-8.678h17.356
		c4.793,0,8.678,3.885,8.678,8.678S347.572,69.424,342.78,69.424z"/>
	<path style="fill:#D75E72;" d="M340.674,106.237c-3.509-0.001-6.673-2.115-8.016-5.357c-1.343-3.242-0.601-6.974,1.88-9.456
		l12.271-12.271c2.192-2.192,5.387-3.048,8.381-2.246c2.994,0.802,5.333,3.141,6.136,6.136s-0.054,6.189-2.246,8.381l-12.271,12.271
		C345.184,105.325,342.976,106.24,340.674,106.237z"/>
	<path style="fill:#3B97D3;" d="M377.492,121.492c-2.302,0.001-4.509-0.913-6.137-2.541s-2.542-3.835-2.541-6.137V95.458
		c0-4.793,3.885-8.678,8.678-8.678c4.793,0,8.678,3.885,8.678,8.678v17.356c0.001,2.302-0.914,4.509-2.541,6.137
		C382.001,120.578,379.793,121.492,377.492,121.492z"/>
	<path style="fill:#D75E72;" d="M414.309,106.237c-2.302,0.003-4.51-0.913-6.135-2.543l-12.271-12.271
		c-3.389-3.389-3.389-8.883,0-12.271c3.389-3.389,8.883-3.389,12.271,0l12.271,12.271c2.481,2.482,3.223,6.214,1.88,9.456
		C420.983,104.122,417.819,106.236,414.309,106.237L414.309,106.237z"/>
	<path style="fill:#3B97D3;" d="M429.559,69.424h-17.356c-4.793,0-8.678-3.885-8.678-8.678s3.885-8.678,8.678-8.678h17.356
		c4.793,0,8.678,3.885,8.678,8.678S434.352,69.424,429.559,69.424z"/>
	<path style="fill:#D75E72;" d="M402.038,44.881c-3.509-0.001-6.673-2.115-8.016-5.357c-1.343-3.242-0.601-6.974,1.88-9.456
		l12.271-12.271c2.192-2.192,5.387-3.048,8.381-2.246c2.994,0.802,5.333,3.141,6.136,6.136c0.802,2.994-0.054,6.189-2.246,8.381
		l-12.272,12.271C406.548,43.969,404.34,44.884,402.038,44.881z"/>
</g>
<g>
</g>
<g>
</g>
<g>
</g>
<g>
</g>
<g>
</g>
<g>
</g>
<g>
</g>
<g>
</g>
<g>
</g>
<g>
</g>
<g>
</g>
<g>
</g>
<g>
</g>
<g>
</g>
<g>
</g>
</svg>
