<svg id="Capa_1" enable-background="new 0 0 497 497" height="512" viewBox="0 0 497 497" width="512" xmlns="http://www.w3.org/2000/svg"><g><g fill="#3c6a73"><path d="m228 336.5h30v120h-30z"/><path d="m48 473.001h401c5.523 0 10-4.477 10-10v-10c0-5.523-4.477-10-10-10h-401c-5.523 0-10 4.477-10 10v10c0 5.522 4.477 10 10 10z"/><path d="m68.5 0h360c16.569 0 30 13.431 30 30v59c0 16.569-13.431 30-30 30h-360c-16.569 0-30-13.431-30-30v-59c0-16.569 13.431-30 30-30z"/><path d="m68.5 119 180-10 180 10c16.569 0 30 13.431 30 30v59c0 16.569-13.431 30-30 30h-360c-16.569 0-30-13.431-30-30v-59c0-16.569 13.431-30 30-30z"/><path d="m68.5 238 177.16-10 182.84 10c16.569 0 30 13.431 30 30v59c0 16.569-13.431 30-30 30h-360c-16.569 0-30-13.431-30-30v-59c0-16.569 13.431-30 30-30z"/></g><path d="m88.5 119h340c16.569 0 30-13.431 30-30v-20c0 16.57-13.43 30-30 30h-360c-.03 0-.061 0-.091 0-5.424-.016-9.893-4.485-9.909-9.909 0-.03 0-.061 0-.091v-59c0-16.57 13.43-30 30-30h-20c-16.569 0-30 13.431-30 30v39 20c0 16.57 13.43 30 30 30-16.57 0-30 13.43-30 30v39 20c0 16.57 13.43 30 30 30-16.57 0-30 13.43-30 30v39 20c0 16.569 13.431 30 30 30h20 340c16.569 0 30-13.431 30-30v-20c0 16.57-13.43 30-30 30h-360c-.03 0-.061 0-.091 0-5.424-.016-9.893-4.485-9.909-9.909 0-.03 0-.061 0-.091v-59c0-16.569 13.431-30 30-30h340c16.569 0 30-13.431 30-30v-20c0 16.57-13.43 30-30 30h-360c-.03 0-.061 0-.091 0-5.424-.016-9.893-4.485-9.909-9.909 0-.03 0-.061 0-.091v-59c0-16.569 13.431-30 30-30z" fill="#2f535a"/><circle cx="243" cy="457" fill="#b3e59f" r="40"/><path d="m279.46 473.46c-6.27 13.88-20.24 23.54-36.46 23.54-22.09 0-40-17.91-40-40 0-16.22 9.66-30.19 23.54-36.46-2.28 5.02-3.54 10.6-3.54 16.46 0 22.09 17.91 40 40 40 5.86 0 11.44-1.26 16.46-3.54z" fill="#95d6a4"/><g fill="#b3e59f"><circle cx="399.5" cy="59" r="25"/><circle cx="314.5" cy="59" r="25"/><circle cx="399.5" cy="178" r="25"/><circle cx="399.5" cy="297" r="25"/><circle cx="314.5" cy="178" r="25"/><circle cx="314.5" cy="297" r="25"/></g><g fill="#95d6a4"><path d="m424.07 63.57c-2.13 11.63-12.32 20.43-24.57 20.43-13.81 0-25-11.19-25-25 0-12.25 8.8-22.44 20.43-24.57-.29 1.48-.43 3.01-.43 4.57 0 13.81 11.19 25 25 25 1.56 0 3.09-.14 4.57-.43z"/><path d="m339.07 63.57c-2.13 11.63-12.32 20.43-24.57 20.43-13.81 0-25-11.19-25-25 0-12.25 8.8-22.44 20.43-24.57-.29 1.48-.43 3.01-.43 4.57 0 13.81 11.19 25 25 25 1.56 0 3.09-.14 4.57-.43z"/><path d="m424.07 182.57c-2.13 11.63-12.32 20.43-24.57 20.43-13.81 0-25-11.19-25-25 0-12.25 8.8-22.44 20.43-24.57-.29 1.48-.43 3.01-.43 4.57 0 13.81 11.19 25 25 25 1.56 0 3.09-.14 4.57-.43z"/><path d="m424.07 301.57c-2.13 11.63-12.32 20.43-24.57 20.43-13.81 0-25-11.19-25-25 0-12.25 8.8-22.44 20.43-24.57-.29 1.48-.43 3.01-.43 4.57 0 13.81 11.19 25 25 25 1.56 0 3.09-.14 4.57-.43z"/><path d="m339.07 182.57c-2.13 11.63-12.32 20.43-24.57 20.43-13.81 0-25-11.19-25-25 0-12.25 8.8-22.44 20.43-24.57-.29 1.48-.43 3.01-.43 4.57 0 13.81 11.19 25 25 25 1.56 0 3.09-.14 4.57-.43z"/><path d="m339.07 301.57c-2.13 11.63-12.32 20.43-24.57 20.43-13.81 0-25-11.19-25-25 0-12.25 8.8-22.44 20.43-24.57-.29 1.48-.43 3.01-.43 4.57 0 13.81 11.19 25 25 25 1.56 0 3.09-.14 4.57-.43z"/></g><g><g><path d="m115.5 49.5h-42c-4.142 0-7.5-3.357-7.5-7.5s3.358-7.5 7.5-7.5h42c4.142 0 7.5 3.357 7.5 7.5s-3.358 7.5-7.5 7.5z" fill="#ddd"/></g><g><path d="m115.5 84.5h-42c-4.142 0-7.5-3.357-7.5-7.5s3.358-7.5 7.5-7.5h42c4.142 0 7.5 3.357 7.5 7.5s-3.358 7.5-7.5 7.5z" fill="#ddd"/></g><g><path d="m194.5 49.5h-44c-4.142 0-7.5-3.357-7.5-7.5s3.358-7.5 7.5-7.5h44c4.142 0 7.5 3.357 7.5 7.5s-3.358 7.5-7.5 7.5z" fill="#ddd"/></g><g><path d="m194.5 84.5h-44c-4.142 0-7.5-3.357-7.5-7.5s3.358-7.5 7.5-7.5h44c4.142 0 7.5 3.357 7.5 7.5s-3.358 7.5-7.5 7.5z" fill="#ddd"/></g><g><path d="m115.5 168.5h-42c-4.142 0-7.5-3.357-7.5-7.5s3.358-7.5 7.5-7.5h42c4.142 0 7.5 3.357 7.5 7.5s-3.358 7.5-7.5 7.5z" fill="#ddd"/></g><g><path d="m115.5 203.5h-42c-4.142 0-7.5-3.357-7.5-7.5s3.358-7.5 7.5-7.5h42c4.142 0 7.5 3.357 7.5 7.5s-3.358 7.5-7.5 7.5z" fill="#ddd"/></g><g><path d="m194.5 168.5h-44c-4.142 0-7.5-3.357-7.5-7.5s3.358-7.5 7.5-7.5h44c4.142 0 7.5 3.357 7.5 7.5s-3.358 7.5-7.5 7.5z" fill="#ddd"/></g><g><path d="m194.5 203.5h-44c-4.142 0-7.5-3.357-7.5-7.5s3.358-7.5 7.5-7.5h44c4.142 0 7.5 3.357 7.5 7.5s-3.358 7.5-7.5 7.5z" fill="#ddd"/></g><g><path d="m115.5 287.5h-42c-4.142 0-7.5-3.357-7.5-7.5s3.358-7.5 7.5-7.5h42c4.142 0 7.5 3.357 7.5 7.5s-3.358 7.5-7.5 7.5z" fill="#ddd"/></g><g><path d="m115.5 322.5h-42c-4.142 0-7.5-3.357-7.5-7.5s3.358-7.5 7.5-7.5h42c4.142 0 7.5 3.357 7.5 7.5s-3.358 7.5-7.5 7.5z" fill="#ddd"/></g><g><path d="m194.5 287.5h-44c-4.142 0-7.5-3.357-7.5-7.5s3.358-7.5 7.5-7.5h44c4.142 0 7.5 3.357 7.5 7.5s-3.358 7.5-7.5 7.5z" fill="#ddd"/></g><g><path d="m194.5 322.5h-44c-4.142 0-7.5-3.357-7.5-7.5s3.358-7.5 7.5-7.5h44c4.142 0 7.5 3.357 7.5 7.5s-3.358 7.5-7.5 7.5z" fill="#ddd"/></g></g><g><g><path d="m88.5 49.5h-15c-4.14 0-7.5-3.36-7.5-7.5s3.36-7.5 7.5-7.5h15c-4.14 0-7.5 3.36-7.5 7.5s3.36 7.5 7.5 7.5z" fill="#cdcdcd"/></g><g><path d="m88.5 84.5h-15c-4.14 0-7.5-3.36-7.5-7.5s3.36-7.5 7.5-7.5h15c-4.14 0-7.5 3.36-7.5 7.5s3.36 7.5 7.5 7.5z" fill="#cdcdcd"/></g><g><path d="m165.5 49.5h-15c-4.14 0-7.5-3.36-7.5-7.5s3.36-7.5 7.5-7.5h15c-4.14 0-7.5 3.36-7.5 7.5s3.36 7.5 7.5 7.5z" fill="#cdcdcd"/></g><g><path d="m165.5 84.5h-15c-4.14 0-7.5-3.36-7.5-7.5s3.36-7.5 7.5-7.5h15c-4.14 0-7.5 3.36-7.5 7.5s3.36 7.5 7.5 7.5z" fill="#cdcdcd"/></g><g><path d="m88.5 168.5h-15c-4.14 0-7.5-3.36-7.5-7.5s3.36-7.5 7.5-7.5h15c-4.14 0-7.5 3.36-7.5 7.5s3.36 7.5 7.5 7.5z" fill="#cdcdcd"/></g><g><path d="m88.5 203.5h-15c-4.14 0-7.5-3.36-7.5-7.5s3.36-7.5 7.5-7.5h15c-4.14 0-7.5 3.36-7.5 7.5s3.36 7.5 7.5 7.5z" fill="#cdcdcd"/></g><g><path d="m165.5 168.5h-15c-4.14 0-7.5-3.36-7.5-7.5s3.36-7.5 7.5-7.5h15c-4.14 0-7.5 3.36-7.5 7.5s3.36 7.5 7.5 7.5z" fill="#cdcdcd"/></g><g><path d="m165.5 203.5h-15c-4.14 0-7.5-3.36-7.5-7.5s3.36-7.5 7.5-7.5h15c-4.14 0-7.5 3.36-7.5 7.5s3.36 7.5 7.5 7.5z" fill="#cdcdcd"/></g><g><path d="m88.5 287.5h-15c-4.14 0-7.5-3.36-7.5-7.5s3.36-7.5 7.5-7.5h15c-4.14 0-7.5 3.36-7.5 7.5s3.36 7.5 7.5 7.5z" fill="#cdcdcd"/></g><g><path d="m88.5 322.5h-15c-4.14 0-7.5-3.36-7.5-7.5s3.36-7.5 7.5-7.5h15c-4.14 0-7.5 3.36-7.5 7.5s3.36 7.5 7.5 7.5z" fill="#cdcdcd"/></g><g><path d="m165.5 287.5h-15c-4.14 0-7.5-3.36-7.5-7.5s3.36-7.5 7.5-7.5h15c-4.14 0-7.5 3.36-7.5 7.5s3.36 7.5 7.5 7.5z" fill="#cdcdcd"/></g><g><path d="m165.5 322.5h-15c-4.14 0-7.5-3.36-7.5-7.5s3.36-7.5 7.5-7.5h15c-4.14 0-7.5 3.36-7.5 7.5s3.36 7.5 7.5 7.5z" fill="#cdcdcd"/></g></g></g></svg>