<svg id="Layer_1" height="512" viewBox="0 0 64 64" width="512" xmlns="http://www.w3.org/2000/svg" data-name="Layer 1"><path d="m40.058 25.6c3.229-4.944 15.929-4.287 20.436 7.011.333.835-.673 1.528-1.2.824-3.773-5.065-13.846-10.319-17.813-3.96h-2.189a5.54 5.54 0 0 1 .766-3.875z" fill="#f3d532"/><path d="m46.607 29.833a34.83 34.83 0 0 0 -9.15-22.593c-4.192-4.684-12.316-8.005-16.926-5.224-3.538 2.134-2.719 5.469 1.593 10.891 4.915 6.18 5.733 10.122 5.611 16.926l5.765 6.215z" fill="#fff9b9"/><path d="m24.593 10.722c-1.993-2.222-3.875-4.322-4.155-6.302a.356.356 0 1 0 -.7.1c.31 2.2 2.264 4.375 4.348 6.7.836.932 1.7 1.9 2.448 2.861a24.908 24.908 0 0 1 5.179 19.444.356.356 0 0 0 .284.411.3.3 0 0 0 .068.006.356.356 0 0 0 .347-.293 25.613 25.613 0 0 0 -5.317-20c-.769-.997-1.646-1.974-2.502-2.927z" fill="#fcf4a0"/><path d="m37.238 14.169c-3.408-6.411-8.067-10.847-13.117-12.492a.356.356 0 1 0 -.221.676c4.875 1.588 9.389 5.9 12.71 12.15 2.952 5.552 4.535 12.04 4.132 16.931a.346.346 0 0 0 .083.259.353.353 0 0 0 .252.125h.023a.356.356 0 0 0 .354-.325c.417-5.093-1.154-11.573-4.216-17.324z" fill="#fcf4a0"/><path d="m27.014 29.833a25.059 25.059 0 0 1 -5.974 15.867 25.355 25.355 0 0 1 -11.5 7.728 7.985 7.985 0 0 0 -4 2.95l-1.386.25a.871.871 0 0 0 -.7 1.015l.373 2.03a.877.877 0 0 0 1.017.7l.752-.136a8.419 8.419 0 0 0 4.821 2.492 31.91 31.91 0 0 0 27.3-9.661 33.349 33.349 0 0 0 8.969-23.24l-12.9 3.781z" fill="#fae63c"/><path d="m42.225 29.833a31.569 31.569 0 0 1 -7.884 22.129c-6.53 7.538-17.492 10.956-23.924 10.772a31.91 31.91 0 0 0 27.3-9.661 33.349 33.349 0 0 0 8.969-23.24z" fill="#f3d532"/><path d="m4.8 36.817a.968.968 0 0 0 1.629 1.011c3.678-4.45 9.064-8.891 14.9-9.107a5.032 5.032 0 0 1 5.1 6.111 24.923 24.923 0 0 1 -5.389 10.868 25.355 25.355 0 0 1 -11.5 7.728 7.985 7.985 0 0 0 -4 2.95l-1.385.25a.871.871 0 0 0 -.7 1.015l.152.824 2.857-.667c.4 2.594 14.217-2.253 19.054-6.992a27.812 27.812 0 0 0 8.268-17.191 7.7 7.7 0 0 0 -6.571-8.169c-7.268-1.184-18.671 2.839-22.415 11.369z" fill="#fcf579"/><path d="m33.786 33.614c8.8-9.86 23.242-4.611 23.924 8.2.405 7.619-1.722 14.806-11.543 20.545-1.79 1.046-3.494-.827-2.716-2.806 5.123-13.03 1.179-29.626-9.665-25.939z" fill="#fcf579"/><path d="m44.466 59.558c3.545-9.143 3.8-32.577-10.68-25.944 13.636-1.792 12.054 17.622 9.2 25.943a2.286 2.286 0 0 0 2.677 3.024 2.422 2.422 0 0 1 -1.197-3.023z" fill="#f3d532"/></svg>