<svg id="Layer_1" enable-background="new 0 0 50 50" height="512" viewBox="0 0 50 50" width="512" xmlns="http://www.w3.org/2000/svg"><g><g><g enable-background="new"><g><path d="m8.3152 38.4356v1.7009l15.2581 8.8635v-1.7009z" fill="#3d3d3d"/></g><g><path d="m23.5733 47.2991v1.7009l18.1115-10.4248v-1.7009z" fill="#282828"/></g><g><path d="m8.3152 38.4356 15.2581 8.8635 18.1115-10.4248-15.344-8.8635z" fill="#4f4d4d"/></g></g></g><g><g><g enable-background="new"><g><path d="m10.1683 10.0852.0802 28.2973 13.2921 7.7245-.0802-28.2972z" fill="#3d3d3d"/></g><g><path d="m23.4604 17.8098.0802 28.2972 15.7361-9.0852-.0802-28.2972z" fill="#282828"/></g><g><path d="m10.1683 10.0852 13.2921 7.7246 15.7361-9.0852-13.2922-7.7246z" fill="#686868"/></g></g></g><g><g><path d="m37.6735 32.4459.0131 4.601.8384-.4841-.013-4.6009z" fill="#1e1e1e"/></g><g><path d="m36.217 33.2868.0131 4.601.8384-.484-.013-4.601z" fill="#1e1e1e"/></g><g><path d="m34.7552 34.1309.013 4.6009.8384-.484-.013-4.601z" fill="#1e1e1e"/></g><g><path d="m33.2987 34.9718.013 4.6009.8385-.484-.0131-4.601z" fill="#1e1e1e"/></g><g><path d="m31.8368 35.8158.0131 4.6009.8384-.484-.0131-4.601z" fill="#1e1e1e"/></g><g><path d="m30.3803 36.6567.0131 4.6009.8384-.484-.0131-4.601z" fill="#1e1e1e"/></g><g><path d="m28.9185 37.5007.013 4.601.8384-.4841-.013-4.601z" fill="#1e1e1e"/></g><g><path d="m27.462 38.3416.013 4.601.8384-.4841-.013-4.601z" fill="#1e1e1e"/></g><g><path d="m26.0055 39.1825.0131 4.6009.8384-.484-.0131-4.601z" fill="#1e1e1e"/></g><g><path d="m24.549 40.0234.0131 4.6009.8384-.484-.013-4.601z" fill="#1e1e1e"/></g></g><g><g><path d="m11.8685 33.5239-.0138 4.8656-.8866-.5119.0138-4.8656z" fill="#282828"/></g><g><path d="m13.4088 34.4132-.0138 4.8656-.8866-.5119.0138-4.8657z" fill="#282828"/></g><g><path d="m14.9548 35.3057-.0138 4.8657-.8867-.5119.0138-4.8657z" fill="#282828"/></g><g><path d="m16.495 36.195-.0137 4.8656-.8867-.5119.0138-4.8656z" fill="#282828"/></g><g><path d="m18.041 37.0876-.0138 4.8656-.8866-.5119.0138-4.8657z" fill="#282828"/></g><g><path d="m19.5813 37.9768-.0138 4.8657-.8866-.5119.0138-4.8657z" fill="#282828"/></g><g><path d="m21.1273 38.8694-.0138 4.8657-.8867-.5119.0138-4.8657z" fill="#282828"/></g><g><path d="m22.6675 39.7587-.0138 4.8656-.8866-.5119.0138-4.8656z" fill="#282828"/></g></g><g><g><path d="m37.3267 29.5623c-.2475.1429-.4497.4884-.4489.7728.0008.2846.2043.3959.4518.253.2435-.1406.4457-.4861.4449-.7707-.0008-.2844-.2043-.3957-.4478-.2551z" fill="#fee44b"/></g><g><path d="m34.6853 31.0873c-.2475.1429-.4457.4861-.4449.7704.0008.2846.2003.3982.4478.2553s.4457-.4861.4449-.7707c-.0008-.2843-.2003-.3979-.4478-.255z" fill="#fee44b"/></g><g><path d="m33.3666 31.8486c-.2475.1429-.4457.4861-.4449.7704.0008.2846.2003.3982.4478.2553s.4457-.4861.4449-.7707c-.0009-.2842-.2003-.3979-.4478-.255z" fill="#fee44b"/></g><g><path d="m32.0438 32.6123c-.2435.1406-.4457.4861-.4449.7704.0008.2846.2043.3959.4478.2553.2475-.1429.4497-.4884.4489-.773-.0007-.2843-.2043-.3956-.4518-.2527z" fill="#fee44b"/></g><g><path d="m27.0397 35.0905.0048 1.6738 2.4106-1.3918-.0047-1.6738z" fill="#69c4ef"/></g><g><path d="m38.525 30.7712-14.1283 8.1569-.0083-2.9421 14.1282-8.1569zm-13.5336 7.1784 1.4566-.841-.0047-1.6738-1.4566.841zm2.0531-1.1853 2.4106-1.3918-.0047-1.6738-2.4106 1.3918zm8.9624-5.4127c.2475-.1429.4497-.4884.4489-.773-.0008-.2843-.2043-.3956-.4518-.2527-.2435.1406-.4457.4861-.4449.7704.0008.2846.2043.3959.4478.2553m-3.9601 2.2864c.2475-.1429.4497-.4884.4489-.773-.0008-.2843-.2043-.3956-.4518-.2527-.2435.1406-.4457.4861-.4449.7704.0008.2846.2043.3959.4478.2553m5.2828-3.05c.2435-.1406.4457-.4861.4449-.7707-.0008-.2843-.2043-.3956-.4478-.255-.2475.1429-.4497.4884-.4489.7728.0008.2845.2043.3958.4518.2529m-2.6414 1.525c.2475-.1429.4457-.4861.4449-.7707-.0008-.2843-.2003-.3979-.4478-.255s-.4457.4861-.4449.7704c.0008.2846.2003.3982.4478.2553m-1.3187.7614c.2475-.1429.4457-.4861.4449-.7707-.0008-.2843-.2003-.398-.4478-.255-.2475.1429-.4457.4861-.4449.7704.0008.2845.2003.3982.4478.2553" fill="#3d3d3d"/></g><g><path d="m36.004 30.3259c-.2435.1406-.4457.4861-.4449.7704.0008.2846.2043.3959.4478.2553.2475-.1429.4497-.4884.4489-.773-.0008-.2843-.2043-.3956-.4518-.2527z" fill="#fee44b"/></g><g><path d="m24.9867 36.2758.0047 1.6738 1.4566-.841-.0047-1.6738z" fill="#69c4ef"/></g></g><g><g><path d="m37.3267 26.069c-.2475.1429-.4497.4884-.4489.7728.0008.2846.2043.3959.4518.253.2435-.1406.4457-.4861.4449-.7707-.0008-.2844-.2043-.3957-.4478-.2551z" fill="#fee44b"/></g><g><path d="m34.6853 27.594c-.2475.1429-.4457.4861-.4449.7704.0008.2846.2003.3982.4478.2553s.4457-.4861.4449-.7707c-.0008-.2843-.2003-.3979-.4478-.255z" fill="#fee44b"/></g><g><path d="m33.3666 28.3554c-.2475.1429-.4457.4861-.4449.7704.0008.2846.2003.3982.4478.2553s.4457-.4861.4449-.7707c-.0009-.2843-.2003-.3979-.4478-.255z" fill="#fee44b"/></g><g><path d="m32.0438 29.119c-.2435.1406-.4457.4861-.4449.7704.0008.2846.2043.3959.4478.2553.2475-.1429.4497-.4884.4489-.773-.0007-.2843-.2043-.3955-.4518-.2527z" fill="#fee44b"/></g><g><path d="m27.0397 31.5972.0048 1.6738 2.4106-1.3918-.0047-1.6738z" fill="#69c4ef"/></g><g><path d="m38.525 27.2779-14.1283 8.1569-.0083-2.9421 14.1282-8.1569zm-13.5336 7.1784 1.4566-.841-.0047-1.6738-1.4566.841zm2.0531-1.1853 2.4106-1.3918-.0047-1.6738-2.4106 1.3918zm8.9624-5.4126c.2475-.1429.4497-.4884.4489-.773-.0008-.2843-.2043-.3956-.4518-.2527-.2435.1406-.4457.4861-.4449.7704.0008.2846.2043.3958.4478.2553m-3.9601 2.2864c.2475-.1429.4497-.4884.4489-.773-.0008-.2843-.2043-.3956-.4518-.2527-.2435.1406-.4457.4861-.4449.7704.0008.2845.2043.3958.4478.2553m5.2828-3.0501c.2435-.1406.4457-.4861.4449-.7707-.0008-.2843-.2043-.3956-.4478-.255-.2475.1429-.4497.4884-.4489.7728.0008.2845.2043.3958.4518.2529m-2.6414 1.525c.2475-.1429.4457-.4861.4449-.7707-.0008-.2843-.2003-.3979-.4478-.255s-.4457.4861-.4449.7704c.0008.2846.2003.3982.4478.2553m-1.3187.7614c.2475-.1429.4457-.4861.4449-.7707-.0008-.2843-.2003-.398-.4478-.255-.2475.1429-.4457.4861-.4449.7704.0008.2846.2003.3982.4478.2553" fill="#3d3d3d"/></g><g><path d="m36.004 26.8327c-.2435.1406-.4457.4861-.4449.7704.0008.2846.2043.3959.4478.2553.2475-.1429.4497-.4884.4489-.773-.0008-.2843-.2043-.3956-.4518-.2527z" fill="#fee44b"/></g><g><path d="m24.9867 32.7826.0047 1.6737 1.4566-.841-.0047-1.6737z" fill="#69c4ef"/></g></g><g><g><path d="m37.3267 22.5757c-.2475.1429-.4497.4884-.4489.7728.0008.2846.2043.3959.4518.253.2435-.1406.4457-.4861.4449-.7707-.0008-.2844-.2043-.3957-.4478-.2551z" fill="#fee44b"/></g><g><path d="m34.6853 24.1007c-.2475.1429-.4457.4861-.4449.7704.0008.2846.2003.3982.4478.2553s.4457-.4861.4449-.7707c-.0008-.2842-.2003-.3979-.4478-.255z" fill="#fee44b"/></g><g><path d="m33.3666 24.8621c-.2475.1429-.4457.4861-.4449.7704.0008.2846.2003.3982.4478.2553s.4457-.4861.4449-.7707c-.0009-.2843-.2003-.3979-.4478-.255z" fill="#fee44b"/></g><g><path d="m32.0438 25.6258c-.2435.1406-.4457.4861-.4449.7704.0008.2846.2043.3959.4478.2553.2475-.1429.4497-.4884.4489-.773-.0007-.2843-.2043-.3956-.4518-.2527z" fill="#fee44b"/></g><g><path d="m27.0397 28.1039.0048 1.6738 2.4106-1.3918-.0047-1.6737z" fill="#69c4ef"/></g><g><path d="m38.525 23.7846-14.1283 8.1569-.0083-2.9421 14.1282-8.1569zm-13.5336 7.1785 1.4566-.841-.0047-1.6738-1.4566.841zm2.0531-1.1854 2.4106-1.3918-.0047-1.6738-2.4106 1.3918zm8.9624-5.4126c.2475-.1429.4497-.4884.4489-.773-.0008-.2843-.2043-.3956-.4518-.2527-.2435.1406-.4457.4861-.4449.7704.0008.2846.2043.3959.4478.2553m-3.9601 2.2864c.2475-.1429.4497-.4884.4489-.773-.0008-.2843-.2043-.3956-.4518-.2527-.2435.1406-.4457.4861-.4449.7704.0008.2846.2043.3959.4478.2553m5.2828-3.0501c.2435-.1406.4457-.4861.4449-.7707-.0008-.2843-.2043-.3956-.4478-.255-.2475.1429-.4497.4884-.4489.7728.0008.2845.2043.3958.4518.2529m-2.6414 1.5251c.2475-.1429.4457-.4861.4449-.7707-.0008-.2843-.2003-.3979-.4478-.255s-.4457.4861-.4449.7704c.0008.2845.2003.3982.4478.2553m-1.3187.7613c.2475-.1429.4457-.4861.4449-.7707-.0008-.2843-.2003-.398-.4478-.255-.2475.1429-.4457.4861-.4449.7704.0008.2846.2003.3982.4478.2553" fill="#3d3d3d"/></g><g><path d="m36.004 23.3394c-.2435.1406-.4457.4861-.4449.7704.0008.2846.2043.3959.4478.2553.2475-.1429.4497-.4884.4489-.773-.0008-.2843-.2043-.3956-.4518-.2527z" fill="#fee44b"/></g><g><path d="m24.9867 29.2893.0047 1.6738 1.4566-.841-.0047-1.6738z" fill="#69c4ef"/></g></g><g><g enable-background="new"><g><path d="m25.4207 18.6915-.7109-.4131.0061 2.1683.7109.4131z" fill="#e8e8e8"/></g><g><path d="m38.7252 11.0102-.7109-.4131-13.3045 7.6813.7109.4131z" fill="#fff"/></g><g><path d="m25.4207 18.6915.0061 2.1683 13.3045-7.6813-.0061-2.1683z" fill="#d7d7d7"/></g><g><path d="m25.7173 18.8044.0048 1.6738 1.4566-.841-.0047-1.6738z" fill="#a9c838"/></g><g><path d="m27.3462 17.8953.0048 1.6738 1.4566-.841-.0047-1.6737z" fill="#ef5a5a"/></g><g><path d="m28.9751 16.9863.0048 1.6738 1.4566-.841-.0047-1.6738z" fill="#2174bb"/></g></g></g><g><g><path d="m37.8524 12.33c-.1458.0842-.263.2872-.2625.4549.0005.1674.1184.2347.2642.1505s.263-.2872.2625-.4546c-.0005-.1677-.1184-.2349-.2642-.1508z" fill="#686868"/></g><g><path d="m36.9447 12.8541c-.1458.0842-.263.2872-.2625.4549.0005.1674.1184.2347.2642.1505s.263-.2872.2625-.4546c-.0004-.1677-.1184-.235-.2642-.1508z" fill="#686868"/></g><g><path d="m36.0371 13.3781c-.1458.0842-.263.2872-.2625.4549.0005.1674.1185.2347.2642.1505s.263-.2872.2625-.4546c-.0005-.1677-.1185-.235-.2642-.1508z" fill="#686868"/></g><g><path d="m35.1294 13.9021c-.1458.0842-.263.2872-.2625.4549.0005.1674.1185.2347.2642.1505.1458-.0842.263-.2872.2625-.4546-.0004-.1677-.1184-.2349-.2642-.1508z" fill="#686868"/></g><g><path d="m34.2217 14.4262c-.1458.0842-.263.2872-.2625.4549.0005.1674.1184.2347.2642.1505s.263-.2872.2625-.4546c-.0004-.1677-.1184-.235-.2642-.1508z" fill="#686868"/></g><g><path d="m33.3141 14.9502c-.1458.0842-.263.2872-.2625.4549.0005.1674.1185.2347.2642.1505s.263-.2872.2625-.4546c-.0005-.1677-.1184-.2349-.2642-.1508z" fill="#686868"/></g></g></g></g></svg>