<?xml version="1.0" encoding="iso-8859-1"?>
<!-- Generator: Adobe Illustrator 19.0.0, SVG Export Plug-In . SVG Version: 6.00 Build 0)  -->
<svg version="1.1" id="Capa_1" xmlns="http://www.w3.org/2000/svg" xmlns:xlink="http://www.w3.org/1999/xlink" x="0px" y="0px"
	 viewBox="0 0 512 512" style="enable-background:new 0 0 512 512;" xml:space="preserve">
<path style="fill:#FEDB41;" d="M361,241c0,66.299-53.699,120-120,120s-120-53.701-120-120c0-66.301,53.699-120,120-120
	S361,174.699,361,241z"/>
<path style="fill:#FCBF29;" d="M361,241c0,66.299-53.699,120-120,120V121C307.301,121,361,174.699,361,241z"/>
<path style="fill:#FEA832;" d="M76,241H15c-8.291,0-15-6.709-15-15s6.709-15,15-15h61c8.291,0,15,6.709,15,15S84.291,241,76,241z"/>
<g>
	<path style="fill:#FE9923;" d="M466,241h-60c-8.291,0-15-6.709-15-15s6.709-15,15-15h60c8.291,0,15,6.709,15,15
		S474.291,241,466,241z"/>
	<path style="fill:#FE9923;" d="M347.069,119.931c-5.859-5.859-5.859-15.352,0-21.211l42.422-42.422
		c5.859-5.859,15.352-5.859,21.211,0s5.859,15.352,0,21.211l-42.422,42.422C362.421,125.79,352.929,125.79,347.069,119.931z"/>
</g>
<g>
	<path style="fill:#FEA832;" d="M113.72,119.931L71.298,77.509c-5.859-5.859-5.859-15.352,0-21.211s15.352-5.859,21.211,0
		l42.422,42.422c5.859,5.859,5.859,15.352,0,21.211C129.071,125.79,119.579,125.79,113.72,119.931z"/>
	<path style="fill:#FEA832;" d="M256,15v61c0,8.399-6.599,15-15,15s-15-6.601-15-15V15c0-8.401,6.599-15,15-15S256,6.599,256,15z"/>
</g>
<path style="fill:#6D3326;" d="M510.177,504.2c-2.701,4.799-7.8,7.8-13.2,7.8H373.9l-98.056-103.397L243.1,314.2l60.3-90.601
	c5.7-8.399,19.499-8.399,25.199,0l180.678,265C512.577,493.4,512.878,499.1,510.177,504.2z"/>
<path style="fill:#FE9923;" d="M241,91V0c8.401,0,15,6.599,15,15v61C256,84.399,249.401,91,241,91z"/>
<path style="fill:#A44F3E;" d="M243.1,314.2l-2.1-3.001l-2.401-3.6c-6-8.699-19.199-8.699-25.199,0l-65.7,99L118.001,367
	c-6-8.101-18.001-8.101-24.001,0L3,488c-3.3,4.499-3.9,10.499-1.5,15.599C4.2,508.7,9.3,512,15,512h358.9L243.1,314.2z"/>
<polygon style="fill:#883F2E;" points="373.9,512 241,512 241,311.199 243.1,314.2 "/>
<g>
</g>
<g>
</g>
<g>
</g>
<g>
</g>
<g>
</g>
<g>
</g>
<g>
</g>
<g>
</g>
<g>
</g>
<g>
</g>
<g>
</g>
<g>
</g>
<g>
</g>
<g>
</g>
<g>
</g>
</svg>
